<svg width="11" height="9" viewBox="0 0 11 9" fill="none" xmlns="http://www.w3.org/2000/svg">
<path fill-rule="evenodd" clip-rule="evenodd" d="M9.54871 0.0266953C9.48456 0.0456635 9.39738 0.0827615 9.35497 0.109163C9.31259 0.135564 8.05028 1.44809 6.54984 3.0259L3.82182 5.89466L2.78272 4.80502C1.84974 3.82664 1.72911 3.70794 1.60144 3.64258C1.49553 3.58835 1.41838 3.56653 1.29901 3.55703C1.18193 3.5477 1.10424 3.55472 1.01067 3.58303C0.940231 3.60435 0.838411 3.65138 0.784423 3.68752C0.730456 3.72369 0.558352 3.89026 0.401984 4.05771C0.188356 4.28646 0.103047 4.39503 0.0588317 4.49436C0.00645792 4.61209 0 4.65266 0 4.86453C0 5.08009 0.00583366 5.11526 0.0619746 5.23845C0.116501 5.35811 0.323305 5.58484 1.78409 7.12662C2.73015 8.12516 3.4859 8.90497 3.5411 8.9396C3.62477 8.9921 3.66143 9.00033 3.81018 8.99999C3.94536 8.99967 4.0009 8.98904 4.06849 8.95054C4.11966 8.9214 5.51795 7.46442 7.51539 5.35899C10.5186 2.1934 10.8828 1.80201 10.9381 1.68049C10.9942 1.55734 11 1.52206 11 1.30656C11 1.08971 10.9944 1.05656 10.9371 0.932639C10.8903 0.831543 10.7993 0.716374 10.5822 0.483656C10.3396 0.223607 10.2644 0.157207 10.1377 0.0912825C10.0162 0.0280551 9.95274 0.00994795 9.82528 0.00208418C9.72081 -0.00435188 9.62491 0.00419173 9.54871 0.0266953Z" fill="#1989FF"/>
</svg>
