<svg width="22" height="22" viewBox="0 0 22 22" fill="none" xmlns="http://www.w3.org/2000/svg">
<path fill-rule="evenodd" clip-rule="evenodd" d="M9.71094 0.0597038C9.46279 0.0898249 9.04707 0.157415 8.78711 0.20988C8.52715 0.262301 8.09209 0.37243 7.82031 0.454544C7.54854 0.536657 7.11348 0.690614 6.85352 0.796704C6.59355 0.902751 6.16284 1.10367 5.89639 1.24319C5.62989 1.38271 5.21821 1.62458 4.98145 1.78069C4.7447 1.93679 4.35364 2.22172 4.11241 2.41383C3.87118 2.60599 3.46921 2.96706 3.21909 3.21627C2.96901 3.46549 2.6079 3.86674 2.41669 4.10796C2.22544 4.34919 1.94266 4.73814 1.78823 4.97228C1.63384 5.20641 1.401 5.59932 1.27076 5.84536C1.14056 6.0914 0.946859 6.50072 0.84034 6.75497C0.73382 7.00925 0.578617 7.43207 0.495473 7.69465C0.412328 7.95723 0.295367 8.40389 0.235512 8.68723C0.175699 8.97056 0.0982266 9.44623 0.0633789 9.74422C0.0285313 10.0422 0 10.6053 0 10.9956C0 11.3858 0.0285313 11.9489 0.0633789 12.2469C0.0982266 12.5449 0.175699 13.0205 0.235512 13.3039C0.295367 13.5872 0.412328 14.0339 0.495473 14.2965C0.578617 14.559 0.73382 14.9818 0.84034 15.2361C0.946859 15.4904 1.14056 15.8997 1.27076 16.1457C1.401 16.3918 1.63384 16.7847 1.78823 17.0188C1.94266 17.253 2.226 17.6419 2.41789 17.8831C2.60984 18.1244 2.97095 18.5258 3.22034 18.7752C3.46977 19.0246 3.87118 19.3857 4.11241 19.5777C4.35364 19.7696 4.74259 20.0529 4.97673 20.2073C5.21086 20.3617 5.60377 20.5946 5.84981 20.7248C6.09585 20.855 6.50517 21.0487 6.75941 21.1552C7.0137 21.2617 7.43652 21.4169 7.6991 21.5001C7.96168 21.5832 8.40834 21.7002 8.69168 21.76C8.97501 21.8199 9.45068 21.8973 9.74866 21.9322C10.0467 21.967 10.6098 21.9956 11 21.9956C11.3902 21.9956 11.9565 21.9667 12.2584 21.9314C12.5602 21.896 13.0049 21.8264 13.2464 21.7765C13.4879 21.7267 13.9079 21.6187 14.1797 21.5366C14.4515 21.4544 14.8865 21.3005 15.1465 21.1944C15.4064 21.0884 15.8372 20.8874 16.1036 20.7479C16.3701 20.6084 16.7818 20.3665 17.0185 20.2104C17.2553 20.0543 17.6464 19.7696 17.8876 19.5777C18.1288 19.3857 18.5302 19.0246 18.7797 18.7752C19.0291 18.5258 19.3902 18.1244 19.5821 17.8831C19.774 17.6419 20.0573 17.253 20.2118 17.0188C20.3662 16.7847 20.599 16.3918 20.7292 16.1457C20.8594 15.8997 21.0531 15.4904 21.1597 15.2361C21.2662 14.9818 21.4214 14.559 21.5045 14.2965C21.5877 14.0339 21.7046 13.5872 21.7645 13.3039C21.8243 13.0205 21.9018 12.5449 21.9366 12.2469C21.9715 11.9489 22 11.3858 22 10.9956C22 10.6053 21.9715 10.0422 21.9366 9.74422C21.9018 9.44623 21.8243 8.97056 21.7645 8.68723C21.7046 8.40389 21.5877 7.95723 21.5045 7.69465C21.4214 7.43207 21.2662 7.00925 21.1597 6.75497C21.0531 6.50072 20.8586 6.08916 20.7274 5.84042C20.5962 5.59167 20.3625 5.19765 20.2079 4.96484C20.0535 4.73204 19.7713 4.34532 19.581 4.10547C19.3906 3.86562 19.0304 3.46493 18.7805 3.21503C18.5306 2.96516 18.1288 2.60406 17.8876 2.41259C17.6464 2.22116 17.2535 1.93563 17.0146 1.77807C16.7757 1.62054 16.3446 1.36909 16.0567 1.21934C15.7688 1.06956 15.3341 0.868075 15.0907 0.77161C14.8473 0.675102 14.4316 0.530684 14.1669 0.450676C13.9022 0.370669 13.4879 0.264407 13.2464 0.214563C13.0049 0.164719 12.5602 0.0950671 12.2584 0.0597468C11.9426 0.0228366 11.381 -0.00247197 10.9358 0.000192096C10.5103 0.00277022 9.95908 0.0295398 9.71094 0.0597038ZM11.2872 3.99452C11.3538 4.0197 11.4543 4.08257 11.5106 4.13417C11.5668 4.18574 11.6486 4.30532 11.6922 4.39985C11.7669 4.56163 11.7717 4.75004 11.7744 7.60102L11.7773 10.6303L13.6332 12.1127C14.6539 12.9281 15.5329 13.6609 15.5864 13.7412C15.6579 13.8487 15.6836 13.9497 15.6836 14.1241C15.6836 14.2989 15.6556 14.4088 15.5768 14.5433C15.5056 14.6648 15.4079 14.7556 15.2839 14.8156C15.1816 14.8652 15.0211 14.9057 14.9272 14.9057C14.8333 14.9057 14.6895 14.8714 14.6077 14.8294C14.5259 14.7875 13.5379 14.0156 12.4121 13.1141C10.5554 11.6274 10.3586 11.4578 10.2945 11.289C10.2307 11.1211 10.225 10.7774 10.2359 7.76611L10.248 4.42928L10.38 4.26415C10.4526 4.17336 10.5783 4.06525 10.6593 4.02396C10.7403 3.98262 10.8876 3.94876 10.9865 3.94876C11.0854 3.94872 11.2207 3.9693 11.2872 3.99452Z" fill="#1989FF"/>
</svg>
