<svg width="16" height="15" viewBox="0 0 16 15" fill="none" xmlns="http://www.w3.org/2000/svg">
<path fill-rule="evenodd" clip-rule="evenodd" d="M7.34873 0.0135728C7.29072 0.0280923 7.1958 0.0648656 7.13779 0.0952758C7.07979 0.125651 6.99857 0.187631 6.95734 0.232983C6.9161 0.278334 6.85282 0.370795 6.81671 0.438471C6.75403 0.555963 6.75027 0.743451 6.7335 4.59591L6.71592 8.63026L5.48545 7.396C4.53598 6.44358 4.21483 6.14254 4.0792 6.07778C3.98252 6.03162 3.84805 5.99379 3.78037 5.99369C3.7127 5.99362 3.60195 6.00894 3.53428 6.02779C3.4666 6.04663 3.34985 6.11265 3.27486 6.17453C3.19984 6.2364 3.10924 6.3514 3.07348 6.43012C3.03703 6.51038 3.00813 6.65494 3.00771 6.75921C3.00722 6.87593 3.03225 6.99374 3.07489 7.07562C3.11226 7.14734 4.03381 8.0954 5.12274 9.18236C6.49412 10.5512 7.14282 11.1753 7.23335 11.2126C7.30524 11.2423 7.42836 11.2666 7.50693 11.2666C7.58551 11.2666 7.70863 11.2423 7.78052 11.2126C7.87105 11.1753 8.51975 10.5512 9.89112 9.18236C10.9801 8.0954 11.9016 7.14734 11.939 7.07562C11.9816 6.99374 12.0067 6.87593 12.0062 6.75921C12.0057 6.65494 11.9768 6.51038 11.9404 6.43012C11.9046 6.3514 11.814 6.2364 11.739 6.17453C11.664 6.11265 11.5473 6.04663 11.4796 6.02779C11.4119 6.00894 11.3012 5.99383 11.2335 5.99414C11.1658 5.99446 11.0393 6.0268 10.9522 6.06604C10.8348 6.11905 10.4709 6.45993 9.53794 7.39104L8.28181 8.64471L8.27232 4.60312L8.26279 0.561518L8.1871 0.420893C8.14548 0.343549 8.07428 0.246518 8.0289 0.20528C7.98351 0.164041 7.89893 0.106596 7.84092 0.0775923C7.78291 0.0486235 7.67217 0.0164204 7.59482 0.00601416C7.51748 -0.00435693 7.40674 -0.000981925 7.34873 0.0135728ZM0.493262 12.7955C0.412473 12.8239 0.290059 12.9133 0.205543 13.0058C0.0968402 13.1247 0.0484652 13.2147 0.0202699 13.3506C-0.0104919 13.4988 -0.00725755 13.5701 0.036969 13.7191C0.0715979 13.8357 0.138571 13.9506 0.218551 14.0305C0.288231 14.1002 0.397813 14.1792 0.462078 14.2061C0.56041 14.2471 1.67623 14.2548 7.5146 14.2546L14.4503 14.2542L14.6311 14.1505C14.7306 14.0935 14.8438 13.9948 14.8828 13.9311C14.9217 13.8675 14.9711 13.7498 14.9924 13.6696C15.0207 13.5629 15.0206 13.4745 14.9918 13.3404C14.9613 13.198 14.916 13.1193 14.7893 12.9887C14.684 12.8802 14.5761 12.8068 14.4854 12.782C14.3858 12.7548 12.3482 12.7439 7.48936 12.7449C1.70088 12.746 0.611985 12.7539 0.493262 12.7955Z" fill="#1A89FF"/>
</svg>
