<svg width="17" height="18" viewBox="0 0 17 18" fill="none" xmlns="http://www.w3.org/2000/svg">
<path d="M9.55103 18H6.58472C6.31145 18 6.09033 17.7641 6.09033 17.4727V10.5469H4.60718C4.33391 10.5469 4.11279 10.311 4.11279 10.0195V6.85547C4.11279 6.56399 4.33391 6.32812 4.60718 6.32812H6.09033V3.69141C6.09033 1.65618 7.643 0 9.55103 0H12.5173C12.7906 0 13.0117 0.235863 13.0117 0.527344V3.69141C13.0117 3.98289 12.7906 4.21875 12.5173 4.21875H10.0454V6.32812H12.5173C12.6627 6.32812 12.8007 6.39612 12.8944 6.51456C12.9885 6.633 13.0291 6.78906 13.0049 6.94199L12.5105 10.1061C12.471 10.3604 12.2648 10.5469 12.0229 10.5469H10.0454V17.4727C10.0454 17.7641 9.82429 18 9.55103 18Z" fill="white"/>
</svg>
