<svg width="150" height="151" viewBox="0 0 150 151" fill="none" xmlns="http://www.w3.org/2000/svg">
<g clip-path="url(#clip0_4260_94)">
<path d="M83.7886 150.372H57.4214C54.9924 150.372 53.0269 148.407 53.0269 145.978V88.2627H39.8433C37.4143 88.2627 35.4487 86.2972 35.4487 83.8682V57.501C35.4487 55.072 37.4143 53.1064 39.8433 53.1064H53.0269V31.1338C53.0269 14.1735 66.8283 0.37207 83.7886 0.37207H110.156C112.585 0.37207 114.55 2.3376 114.55 4.7666V31.1338C114.55 33.5628 112.585 35.5283 110.156 35.5283H88.1831V53.1064H110.156C111.447 53.1064 112.675 53.673 113.507 54.6601C114.344 55.6471 114.705 56.9476 114.49 58.222L110.095 84.5892C109.744 86.7091 107.911 88.2627 105.761 88.2627H88.1828V145.978C88.1831 148.407 86.2176 150.372 83.7886 150.372Z" fill="#1A89FF"/>
</g>
<defs>
<clipPath id="clip0_4260_94">
<rect width="150" height="150" fill="white" transform="translate(0 0.37207)"/>
</clipPath>
</defs>
</svg>
