<svg width="21" height="28" viewBox="0 0 21 28" fill="none" xmlns="http://www.w3.org/2000/svg">
<path fill-rule="evenodd" clip-rule="evenodd" d="M2.73915 0.110414C2.52002 0.167781 2.16318 0.307234 1.94618 0.420273C1.67039 0.563938 1.41101 0.766281 1.08474 1.09222C0.730862 1.44583 0.569424 1.6578 0.417338 1.96875C0.306979 2.19434 0.172612 2.52656 0.118745 2.70703C0.0263229 3.01662 0.0198696 3.63852 0.00428367 13.7266C-0.00769289 21.4706 0.00483068 24.5378 0.0496197 24.8527C0.0836901 25.0919 0.168838 25.4397 0.238838 25.6257C0.308838 25.8118 0.468581 26.1261 0.593706 26.3243C0.718885 26.5226 0.991065 26.8419 1.1986 27.034C1.40609 27.2261 1.74756 27.4735 1.95745 27.5838C2.16728 27.6941 2.52877 27.8328 2.76064 27.8922C3.17003 27.9968 3.39595 28 10.493 28C17.6069 28 17.815 27.9971 18.2282 27.8914C18.4617 27.8317 18.8248 27.6902 19.0351 27.5769C19.2454 27.4637 19.561 27.2414 19.7365 27.0829C19.912 26.9244 20.143 26.6756 20.2497 26.5302C20.3565 26.3847 20.5158 26.1207 20.6038 25.9434C20.6917 25.7661 20.8084 25.4734 20.8631 25.293C20.9569 24.9831 20.9634 24.5014 20.9789 16.6146L20.9953 8.26437L17.0195 4.13219L13.0437 0L8.0906 0.00300781C3.39775 0.00585156 3.11655 0.0114844 2.73915 0.110414ZM7.37578 2.73438V3.44531H8.1414C8.83413 3.44531 8.91742 3.4557 9.0164 3.55469C9.11117 3.64946 9.12578 3.73696 9.12578 4.21094C9.12578 4.68491 9.11117 4.77241 9.0164 4.86719C8.91742 4.96617 8.83413 4.97656 8.1414 4.97656H7.37578V5.76953V6.5625H8.1414C8.83413 6.5625 8.91742 6.57289 9.0164 6.67188C9.11117 6.76665 9.12578 6.85415 9.12578 7.32812C9.12578 7.8021 9.11117 7.8896 9.0164 7.98438C8.91742 8.08336 8.83413 8.09375 8.1414 8.09375H7.37578V8.88672V9.67969H8.1414C8.83413 9.67969 8.91742 9.69008 9.0164 9.78906C9.11117 9.88384 9.12578 9.97134 9.12578 10.4453C9.12578 10.9193 9.11117 11.0068 9.0164 11.1016C8.91381 11.2042 8.83413 11.2109 7.73124 11.2109C6.62836 11.2109 6.54868 11.2042 6.44609 11.1016C6.34896 11.0044 6.33671 10.9193 6.33671 10.34V9.68778L5.53921 9.67006C4.8246 9.6542 4.73366 9.6413 4.66421 9.5462C4.60946 9.47116 4.58671 9.27779 4.58671 8.88672C4.58671 8.49565 4.60946 8.30227 4.66421 8.22724C4.73366 8.13214 4.8246 8.11923 5.53921 8.10337L6.33671 8.08566V7.32408V6.5625H5.62217C5.18953 6.5625 4.86053 6.53767 4.78818 6.49961C4.7225 6.46505 4.65064 6.40965 4.62855 6.37656C4.60646 6.34348 4.58841 6.07031 4.58841 5.76953C4.58841 5.46875 4.60646 5.19559 4.62855 5.1625C4.65064 5.12941 4.7225 5.07402 4.78818 5.03945C4.86053 5.00139 5.18953 4.97656 5.62217 4.97656H6.33671V4.21094V3.44531H5.65667C5.28267 3.44531 4.90789 3.41917 4.82378 3.38718C4.73973 3.35524 4.65239 3.2999 4.6297 3.26413C4.60695 3.22842 4.58803 2.9347 4.58753 2.61133L4.58671 2.02344H5.98124H7.37578V2.73438ZM7.50243 12.3129C7.56811 12.3475 7.63997 12.4029 7.66206 12.4359C7.68416 12.469 7.70259 12.9417 7.70308 13.4863L7.7039 14.4765L8.03547 15.4503C8.30114 16.2306 8.36699 16.4916 8.36699 16.7642C8.36699 16.9513 8.33149 17.1872 8.28807 17.2885C8.24465 17.3898 8.13664 17.5711 8.04799 17.6914C7.9594 17.8117 7.75678 17.9809 7.59775 18.0673C7.4 18.1748 7.20067 18.2332 6.96688 18.252C6.73068 18.2709 6.54075 18.2514 6.35192 18.1886C6.20164 18.1388 5.97578 18.0098 5.85005 17.9022C5.72427 17.7945 5.55638 17.5801 5.47697 17.4255C5.36196 17.2019 5.33221 17.0664 5.33112 16.7617C5.32997 16.4349 5.37547 16.2481 5.64185 15.4851L5.9539 14.5913V13.5811C5.9539 12.9709 5.97698 12.5278 6.01214 12.4621C6.04419 12.4022 6.1242 12.3315 6.18988 12.3051C6.25561 12.2786 6.55092 12.2554 6.84618 12.2534C7.15194 12.2515 7.4344 12.2771 7.50243 12.3129ZM6.25386 15.9824C6.2403 16.02 6.19185 16.1585 6.14624 16.2901C6.10063 16.4217 6.06339 16.6309 6.06349 16.7549C6.0636 16.882 6.11025 17.0569 6.17046 17.1555C6.22914 17.2518 6.35613 17.3714 6.4526 17.4214C6.57548 17.4849 6.71564 17.5048 6.92028 17.4878C7.13132 17.4703 7.25185 17.4268 7.35406 17.3314C7.43188 17.2587 7.5301 17.1328 7.57238 17.0516C7.61465 16.9703 7.64921 16.8336 7.64921 16.7477C7.64921 16.6618 7.59775 16.4391 7.53481 16.2528L7.4204 15.9141H6.84952C6.44242 15.9141 6.27153 15.9337 6.25386 15.9824Z" fill="#1A89FF"/>
<path d="M13 8.25V0L21 8.25H13Z" fill="#5FADFF"/>
</svg>
