<svg width="18" height="20" viewBox="0 0 18 20" fill="none" xmlns="http://www.w3.org/2000/svg">
<path fill-rule="evenodd" clip-rule="evenodd" d="M12.347 0.0139131C12.2917 0.0237556 12.1197 0.0527827 11.9648 0.07839C11.5726 0.143242 10.9784 0.345098 10.597 0.543158C9.80851 0.952458 9.86218 0.900909 4.81515 6.09598C1.24677 9.769 0.0676345 11.0067 0.0328748 11.1159C-0.138107 11.653 0.389604 12.1697 0.882355 11.9477C0.970702 11.9079 2.74288 10.1134 5.70888 7.06038C10.6866 1.93667 10.6709 1.95168 11.3374 1.6577C12.4999 1.14489 13.8179 1.24152 14.8863 1.91794C15.3314 2.19975 15.8886 2.77729 16.1604 3.23872C16.8101 4.34159 16.9052 5.70615 16.4164 6.9122C16.1421 7.58904 16.1088 7.62674 11.6446 12.3146C5.8336 18.4168 6.0854 18.1616 5.66865 18.372C4.88974 18.7654 4.11223 18.7652 3.33525 18.3715C2.7222 18.0608 2.22861 17.4455 2.02275 16.7354C1.97105 16.5571 1.95021 16.3474 1.95021 16.0056C1.95021 15.4626 2.00842 15.2045 2.23702 14.7336C2.36881 14.4621 2.62959 14.1827 5.94476 10.7607C9.9482 6.62818 9.74507 6.81181 10.3137 6.81181C10.9813 6.81181 11.4397 7.28801 11.4356 7.97724C11.432 8.56812 11.6337 8.32681 7.8979 12.2104C4.25968 15.9924 4.45029 15.7695 4.52094 16.1599C4.55807 16.3652 4.79873 16.6147 4.99675 16.6532C5.37512 16.7268 5.1516 16.9332 8.85057 13.0941C12.1481 9.67174 12.2588 9.55171 12.4176 9.22841C12.6457 8.76393 12.7217 8.43888 12.7199 7.93553C12.7188 7.60314 12.6973 7.45075 12.6141 7.18483C12.2898 6.14786 11.3893 5.47431 10.3355 5.4804C9.87562 5.48307 9.53603 5.56657 9.12853 5.77705C8.85359 5.91906 8.69278 6.06874 7.31813 7.46213C6.48836 8.30321 4.81338 10.03 3.59598 11.2994C1.14008 13.8602 1.12966 13.8732 0.857814 14.7018C0.382885 16.1494 0.716965 17.6959 1.74173 18.7934C2.88325 20.016 4.671 20.3472 6.16727 19.6134C6.77062 19.3175 6.80667 19.2818 11.9106 13.9294C17.1249 8.4614 17.0939 8.49597 17.4771 7.70615C17.6614 7.32625 17.8286 6.82441 17.9249 6.36189C18.025 5.88115 18.025 4.7767 17.9249 4.29596C17.7069 3.24919 17.268 2.38667 16.5747 1.64265C15.8327 0.846317 14.9927 0.354899 13.9563 0.110962C13.6286 0.0338484 12.5875 -0.0289187 12.347 0.0139131Z" fill="#1A89FF"/>
</svg>
