<svg width="24" height="24" viewBox="0 0 24 24" fill="none" xmlns="http://www.w3.org/2000/svg">
<path fill-rule="evenodd" clip-rule="evenodd" d="M4.78097 0.607517V1.21499L2.77701 1.22863L0.773045 1.24222L0.55882 1.36818C0.316095 1.51087 0.124886 1.7633 0.0505875 2.03912C-0.016305 2.28766 -0.0171019 5.49831 0.04965 5.97828C0.215733 7.17254 0.737607 8.23996 1.55897 9.06569C2.35854 9.86938 3.23864 10.3514 4.35144 10.5948C4.56637 10.6418 4.75214 10.6902 4.76428 10.7023C4.77638 10.7145 4.80661 10.9927 4.83146 11.3206C4.93533 12.6932 5.37438 13.9247 6.15548 15.0343C6.52866 15.5645 7.31426 16.3489 7.85137 16.7276C8.40366 17.1171 9.22194 17.5176 9.87877 17.7199C10.1688 17.8092 10.4061 17.9036 10.4061 17.9297C10.4061 17.9557 10.2254 18.5191 10.0046 19.1817L9.60304 20.3864L8.09297 20.4005L6.58289 20.4146L6.35034 20.5344C5.9607 20.735 5.88083 20.8871 5.32886 22.48C5.05243 23.2776 4.82663 23.9461 4.82705 23.9655C4.82808 24.0115 19.1718 24.0115 19.1728 23.9655C19.1732 23.9461 18.9474 23.2776 18.671 22.48C18.119 20.8871 18.0391 20.735 17.6495 20.5344L17.4169 20.4146L15.9069 20.4005L14.3968 20.3864L13.9953 19.1817C13.7744 18.5191 13.5937 17.9557 13.5937 17.9297C13.5937 17.9036 13.831 17.8092 14.1211 17.7199C14.7779 17.5176 15.5962 17.1171 16.1485 16.7276C16.6856 16.3489 17.4712 15.5645 17.8444 15.0343C18.6255 13.9247 19.0645 12.6932 19.1684 11.3206C19.1932 10.9927 19.2235 10.7145 19.2356 10.7023C19.2477 10.6902 19.4335 10.6418 19.6484 10.5948C20.1965 10.4749 20.6676 10.3021 21.1333 10.0503C21.6754 9.75721 21.9842 9.5247 22.4409 9.06569C23.2622 8.23996 23.7841 7.17254 23.9502 5.97828C24.0169 5.49831 24.0161 2.28766 23.9493 2.03912C23.875 1.7633 23.6837 1.51087 23.441 1.36818L23.2268 1.24222L21.2228 1.22863L19.2189 1.21499V0.607517V0H11.9999H4.78097V0.607517ZM4.78097 5.93492V8.2604L4.65206 8.22881C4.40549 8.16843 3.86501 7.8688 3.56294 7.62509C3.07861 7.23423 2.73196 6.71911 2.51684 6.07048C2.43772 5.83183 2.42037 5.62408 2.40256 4.69935L2.38151 3.60948H3.58122H4.78097V5.93492ZM21.5991 4.69935C21.5809 5.72622 21.5726 5.81088 21.4552 6.16423C21.1799 6.99329 20.6202 7.66493 19.9168 8.01055C19.7005 8.11682 19.455 8.21685 19.3712 8.23284L19.2189 8.26195V5.93571V3.60948H20.4186H21.6183L21.5991 4.69935ZM12.1862 5.21499C12.2697 5.40188 12.5069 5.92891 12.7132 6.38615L13.0884 7.21745L14.3286 7.22992L15.5688 7.24239L14.6984 8.40197C14.2197 9.03972 13.8281 9.59413 13.8281 9.63392C13.8281 9.67372 13.9555 10.2146 14.1112 10.8358C14.2669 11.4571 14.3882 11.9703 14.3808 11.9762C14.3733 11.9822 13.8345 11.6932 13.1835 11.3338L11.9999 10.6806L10.8163 11.3338C10.1653 11.6932 9.62657 11.9822 9.61907 11.9762C9.61162 11.9703 9.73293 11.4571 9.88861 10.8358C10.0443 10.2146 10.1717 9.67372 10.1717 9.63392C10.1717 9.59413 9.78009 9.03972 9.30139 8.40197L8.43099 7.24239L9.67125 7.22992L10.9115 7.21745L11.2866 6.38615C11.493 5.92891 11.7301 5.40188 11.8137 5.21499C11.8973 5.02809 11.981 4.87514 11.9999 4.87514C12.0188 4.87514 12.1026 5.02809 12.1862 5.21499Z" fill="#1A89FF"/>
</svg>
