<svg width="150" height="151" viewBox="0 0 150 151" fill="none" xmlns="http://www.w3.org/2000/svg">
<g clip-path="url(#clip0_4260_91)">
<path d="M75 44.9033C58.0371 44.9033 44.2383 58.7021 44.2383 75.665C44.2383 92.6279 58.0371 106.427 75 106.427C91.9629 106.427 105.762 92.6279 105.762 75.665C105.762 58.7021 91.9629 44.9033 75 44.9033ZM75 44.9033C58.0371 44.9033 44.2383 58.7021 44.2383 75.665C44.2383 92.6279 58.0371 106.427 75 106.427C91.9629 106.427 105.762 92.6279 105.762 75.665C105.762 58.7021 91.9629 44.9033 75 44.9033ZM128.027 0.37207H21.9727C9.84375 0.37207 0 10.2158 0 22.3447V128.399C0 140.528 9.84375 150.372 21.9727 150.372H128.027C140.156 150.372 150 140.528 150 128.399V22.3447C150 10.2158 140.156 0.37207 128.027 0.37207ZM75 115.216C53.2034 115.216 35.4492 97.4616 35.4492 75.665C35.4492 53.8679 53.2034 36.1143 75 36.1143C96.7966 36.1143 114.551 53.8679 114.551 75.665C114.551 97.4616 96.7966 115.216 75 115.216ZM123.34 36.1143C118.506 36.1143 114.551 32.1592 114.551 27.3252C114.551 22.4912 118.506 18.5361 123.34 18.5361C128.174 18.5361 132.129 22.4912 132.129 27.3252C132.129 32.1592 128.174 36.1143 123.34 36.1143ZM75 44.9033C58.0371 44.9033 44.2383 58.7021 44.2383 75.665C44.2383 92.6279 58.0371 106.427 75 106.427C91.9629 106.427 105.762 92.6279 105.762 75.665C105.762 58.7021 91.9629 44.9033 75 44.9033ZM75 44.9033C58.0371 44.9033 44.2383 58.7021 44.2383 75.665C44.2383 92.6279 58.0371 106.427 75 106.427C91.9629 106.427 105.762 92.6279 105.762 75.665C105.762 58.7021 91.9629 44.9033 75 44.9033ZM75 44.9033C58.0371 44.9033 44.2383 58.7021 44.2383 75.665C44.2383 92.6279 58.0371 106.427 75 106.427C91.9629 106.427 105.762 92.6279 105.762 75.665C105.762 58.7021 91.9629 44.9033 75 44.9033Z" fill="#286BB2"/>
</g>
<defs>
<clipPath id="clip0_4260_91">
<rect width="150" height="150" fill="white" transform="translate(0 0.37207)"/>
</clipPath>
</defs>
</svg>
