<svg width="152" height="54" viewBox="0 0 152 54" fill="none" xmlns="http://www.w3.org/2000/svg">
<path d="M49.987 18.4833C49.9566 18.6354 49.9008 18.7876 49.8297 18.9245C49.7638 19.0514 49.6776 19.168 49.5711 19.2644C49.4848 19.3506 49.3732 19.3963 49.2515 19.3963H49.1298V19.6397H52.5485V19.3963H52.4267C52.2999 19.3963 52.1782 19.3455 52.097 19.2492C52.0057 19.1477 51.9246 19.0311 51.8637 18.9093C51.7978 18.7724 51.7471 18.6304 51.7166 18.4833C51.6862 18.3412 51.6659 18.1992 51.6659 18.0572V11.4125H59.4822V18.0572C59.4822 18.1992 59.4619 18.3412 59.4315 18.4833C59.4011 18.6354 59.3453 18.7876 59.2743 18.9245C59.2083 19.0514 59.1221 19.168 59.0156 19.2644C58.9294 19.3506 58.8178 19.3963 58.696 19.3963H58.5743V19.6397H61.993V19.3963H61.8814C61.7647 19.3963 61.6532 19.3405 61.5771 19.2492C61.4858 19.1477 61.4046 19.0311 61.3437 18.9093C61.2778 18.7724 61.222 18.6304 61.1865 18.4833C61.1459 18.3463 61.1256 18.1992 61.1256 18.0572V5.04181C61.1307 4.90993 61.1459 4.77805 61.1764 4.65125C61.2068 4.50922 61.2524 4.3672 61.3082 4.23532C61.364 4.10851 61.4401 3.99693 61.5416 3.90562C61.6329 3.8194 61.7546 3.77375 61.8814 3.77375H62.0031V3.55057H58.5844V3.79404H58.7062C58.833 3.79404 58.9547 3.83969 59.046 3.92591C59.1475 4.02229 59.2286 4.13388 59.2895 4.25561C59.4112 4.50922 59.4822 4.78312 59.4873 5.0621V10.5604H51.676V5.04181C51.6811 4.90993 51.6963 4.77805 51.7268 4.65125C51.7572 4.50922 51.8028 4.3672 51.8586 4.23532C51.9144 4.10851 51.9905 3.99693 52.092 3.90562C52.1833 3.8194 52.305 3.77375 52.4318 3.77375H52.5535V3.55057H49.1348V3.79404H49.2566C49.3834 3.79404 49.5051 3.83969 49.5964 3.92591C49.6979 4.02229 49.779 4.13388 49.8399 4.25561C49.9616 4.50922 50.0326 4.78312 50.0377 5.0621V18.0572C50.0377 18.1992 50.0174 18.3412 49.987 18.4833Z" fill="url(#paint0_linear)"/>
<path d="M74.0548 16.7841H73.8113C73.8012 16.9869 73.7657 17.1898 73.6997 17.3826C73.6236 17.621 73.5121 17.8442 73.3599 18.042C73.1976 18.2449 73.0048 18.4122 72.7867 18.5492C72.5433 18.7014 72.2643 18.7775 71.9802 18.7673H66.6189V11.3872H70.6767C71.0216 11.372 71.3614 11.4886 71.6303 11.7067C71.8585 11.8893 71.9955 12.1683 71.9955 12.4625H72.2389V9.41916H71.9955C71.9955 9.72856 71.8534 10.0278 71.615 10.2256C71.3564 10.4539 71.0216 10.5756 70.6767 10.5655H66.6189V4.38242H71.5187C71.9701 4.34184 72.4114 4.49908 72.7411 4.80848C72.9947 5.07731 73.1519 5.4273 73.1824 5.79757H73.4258V3.55057H64.032V3.79404H64.1538C64.2806 3.79404 64.4023 3.83969 64.4936 3.92591C64.595 4.02229 64.6864 4.13388 64.7523 4.25561C64.8284 4.38749 64.8842 4.52444 64.9247 4.67153C64.9603 4.79834 64.9805 4.93022 64.9856 5.0621V18.1028C64.9856 18.2449 64.9653 18.3818 64.9247 18.5188C64.8842 18.6659 64.8284 18.8028 64.7523 18.9347C64.6864 19.0564 64.595 19.168 64.4936 19.2644C64.4023 19.3506 64.2806 19.3963 64.1538 19.3963H64.032V19.6397H74.0548V16.7841Z" fill="url(#paint1_linear)"/>
<path d="M77.8387 11.2452C78.2698 11.6865 78.7872 12.0314 79.3604 12.2596C79.9893 12.5183 80.669 12.6502 81.3487 12.64C81.9523 12.6451 82.5508 12.5284 83.1088 12.3002C83.5754 12.1176 84.0167 11.8792 84.4275 11.5901V18.1028C84.4275 18.2449 84.4072 18.3818 84.3768 18.5188C84.3464 18.6659 84.2906 18.8028 84.2196 18.9347C84.1536 19.0564 84.0623 19.168 83.9609 19.2644C83.8747 19.3506 83.7631 19.3963 83.6413 19.3963H83.5196V19.6397H87.0144V19.3963H86.8166C86.6948 19.376 86.5832 19.3151 86.497 19.2238C86.4006 19.1274 86.3195 19.0158 86.2535 18.8941C86.1876 18.7673 86.1369 18.6354 86.1064 18.4934C86.076 18.3666 86.0608 18.2347 86.0557 18.1028V5.04181C86.0557 4.915 86.076 4.7882 86.1064 4.66139C86.1369 4.52444 86.1876 4.39256 86.2535 4.27083C86.3195 4.14909 86.4006 4.0375 86.497 3.94113C86.5832 3.84983 86.6948 3.78896 86.8166 3.76867H87.0144V3.55057H83.545V3.79404H83.7428C83.8594 3.80925 83.966 3.87519 84.037 3.96649C84.1181 4.06794 84.1891 4.17953 84.2449 4.29619C84.3007 4.42299 84.3464 4.55487 84.3768 4.68675C84.4072 4.81356 84.4275 4.94036 84.4275 5.06717V10.5604C84.0268 10.8394 83.6058 11.0879 83.1595 11.2908C82.7385 11.4937 82.282 11.6053 81.8153 11.6104C81.369 11.6104 80.9226 11.5191 80.5067 11.3517C80.0755 11.1843 79.685 10.9358 79.3451 10.6213C79.0002 10.2967 78.7162 9.91116 78.5133 9.4851C78.2952 9.02859 78.1887 8.52644 78.1937 8.01922V5.04181C78.1988 4.90993 78.2191 4.77805 78.2546 4.65125C78.2952 4.50415 78.351 4.3672 78.4271 4.23532C78.493 4.11359 78.5843 4.002 78.6858 3.90562C78.7771 3.8194 78.8988 3.77375 79.0256 3.77375H79.127V3.55057H75.7337V3.79404H75.8554C75.962 3.79911 76.0634 3.84476 76.1344 3.92591C76.2257 4.02229 76.3018 4.13388 76.3525 4.25561C76.4083 4.38749 76.454 4.52951 76.4844 4.67153C76.5148 4.79834 76.53 4.93022 76.5351 5.0621V7.89748C76.53 8.52644 76.6416 9.15033 76.8648 9.73871C77.088 10.3017 77.4177 10.814 77.8387 11.2452Z" fill="url(#paint2_linear)"/>
<path d="M99.2689 18.4478C99.3146 18.5796 99.3399 18.7217 99.3399 18.8637C99.3399 19.2238 99.1421 19.4013 98.7516 19.4013H98.6298V19.6448H102.246V19.4013H102.125C101.795 19.4013 101.496 19.2238 101.333 18.9398C101.136 18.6405 100.973 18.3209 100.857 17.9862L95.3887 3.23102L89.7788 18.1282C89.657 18.4528 89.4846 18.7521 89.2715 19.0209C89.1346 19.239 88.9013 19.376 88.6476 19.4013H88.5259V19.6448H91.2345V19.4013H91.1128C90.9707 19.3963 90.8389 19.3303 90.7476 19.2187C90.6258 19.0767 90.565 18.8992 90.5751 18.7115C90.5751 18.5847 90.6005 18.463 90.6461 18.3463L92.8221 12.5132H97.098L99.2689 18.4478ZM93.0402 11.6662L94.922 6.59392L96.8038 11.6662H93.0402Z" fill="url(#paint3_linear)"/>
<path d="M113.725 16.7841H113.481C113.471 16.9869 113.436 17.1898 113.37 17.3826C113.294 17.621 113.182 17.8442 113.03 18.042C112.868 18.2449 112.675 18.4122 112.457 18.5492C112.213 18.7014 111.934 18.7775 111.65 18.7673H106.304V11.3872H110.362C110.707 11.372 111.047 11.4886 111.316 11.7067C111.544 11.8893 111.681 12.1683 111.681 12.4625H111.924V9.41916H111.681C111.681 9.72856 111.539 10.0278 111.3 10.2256C111.042 10.4539 110.707 10.5756 110.362 10.5655H106.304V4.38242H111.214C111.665 4.34184 112.107 4.49908 112.436 4.80848C112.69 5.07731 112.847 5.4273 112.878 5.79757H113.111V3.55057H103.712V3.79404H103.834C103.961 3.79404 104.082 3.83969 104.174 3.92591C104.275 4.02229 104.367 4.13388 104.432 4.25561C104.509 4.38749 104.564 4.52444 104.605 4.67153C104.64 4.79834 104.661 4.93022 104.666 5.0621V18.1028C104.666 18.2449 104.646 18.3818 104.605 18.5188C104.564 18.6659 104.509 18.8028 104.432 18.9347C104.367 19.0564 104.275 19.168 104.174 19.2644C104.082 19.3506 103.961 19.3963 103.834 19.3963H103.712V19.6397H113.725V16.7841Z" fill="url(#paint4_linear)"/>
<path d="M125.234 13.6951C125.122 13.2335 124.919 12.7973 124.645 12.4118C124.346 11.9959 123.971 11.6357 123.545 11.3517C123.027 11.0169 122.444 10.7938 121.835 10.6923C122.124 10.5452 122.403 10.3728 122.667 10.1851C122.972 9.97205 123.245 9.72351 123.484 9.43946C123.743 9.13513 123.95 8.79529 124.108 8.42501C124.275 8.02431 124.356 7.59316 124.351 7.15695C124.382 6.11207 123.905 5.11791 123.068 4.49402C122.033 3.76869 120.78 3.40856 119.517 3.47957H115.51V3.72304H115.647C115.779 3.72304 115.906 3.76869 116.002 3.85492C116.114 3.95129 116.205 4.06795 116.271 4.19476C116.342 4.33171 116.393 4.47373 116.428 4.62083C116.459 4.74763 116.474 4.87951 116.479 5.01139V18.0572C116.479 18.1992 116.459 18.3413 116.428 18.4833C116.398 18.6304 116.342 18.7775 116.271 18.9093C116.2 19.0361 116.114 19.1477 116.012 19.2492C115.931 19.3405 115.815 19.3912 115.693 19.3963H115.571V19.6397H119.933C120.618 19.6397 121.298 19.5586 121.962 19.3963C122.591 19.2492 123.19 18.9804 123.717 18.605C124.229 18.2347 124.65 17.7529 124.945 17.1899C125.274 16.5254 125.432 15.795 125.406 15.0544C125.406 14.5979 125.345 14.1414 125.234 13.6951ZM118.097 4.30635H119.32C120.212 4.2607 121.095 4.55489 121.774 5.1382C122.393 5.72658 122.743 6.54321 122.748 7.39535V7.5678C122.748 7.91272 122.698 8.25256 122.601 8.58225C122.5 8.93224 122.312 9.25686 122.064 9.52569C121.78 9.83003 121.435 10.0684 121.049 10.2257C120.511 10.4235 119.943 10.5148 119.375 10.4945H118.107L118.097 4.30635ZM123.763 15.4653C123.808 16.429 123.382 17.3522 122.627 17.9507C121.719 18.5898 120.623 18.9043 119.512 18.8434H118.097V11.235H119.467C120.577 11.159 121.668 11.5242 122.51 12.2495C123.276 13.0509 123.722 14.1059 123.763 15.2168V15.4653Z" fill="url(#paint5_linear)"/>
<path d="M49.8957 39.2541C49.8652 39.4012 49.8196 39.5483 49.7537 39.6852C49.6979 39.812 49.6167 39.9236 49.5153 40.02C49.424 40.1012 49.3022 40.1519 49.1805 40.1519H49.0588V40.3903H52.4166V40.1519H52.2949C52.168 40.1519 52.0463 40.1012 51.9601 40.0099C51.8637 39.9135 51.7876 39.8019 51.7318 39.6751C51.671 39.5381 51.6304 39.3961 51.6 39.2541C51.5695 39.1172 51.5543 38.9751 51.5543 38.8331V25.4018H58.8685V38.8382C58.8685 38.9802 58.8533 39.1222 58.833 39.2592C58.8127 39.4063 58.7721 39.5432 58.7112 39.6802C58.6555 39.8019 58.5844 39.9186 58.4931 40.0149C58.4171 40.1012 58.3105 40.157 58.1939 40.157H57.9758V40.3954H61.3336V40.157H61.1409C61.0242 40.157 60.9177 40.1012 60.8416 40.0149C60.7503 39.9135 60.6742 39.7918 60.6235 39.665C60.5677 39.528 60.5271 39.386 60.5017 39.244C60.4764 39.1121 60.4662 38.9751 60.4662 38.8382V26.051C60.4662 25.9293 60.4815 25.8076 60.5119 25.6909C60.5423 25.5489 60.588 25.4069 60.6438 25.2699C60.6894 25.1482 60.7604 25.0366 60.8467 24.9352C60.9177 24.8489 61.0242 24.8033 61.1358 24.8033H61.3285V24.5649H49.0588V24.8033H49.2008C49.3174 24.8083 49.429 24.854 49.5102 24.9352C49.6066 25.0265 49.6877 25.138 49.7486 25.2598C49.8145 25.3917 49.8652 25.5235 49.9058 25.6656C49.9413 25.7924 49.9616 25.9192 49.9667 26.051V38.8331C49.9565 38.9751 49.9363 39.1172 49.8957 39.2541Z" fill="url(#paint6_linear)"/>
<path d="M72.8983 40.157H72.7766V40.3954H76.3272V40.157H76.2054C75.8808 40.157 75.5866 39.9794 75.4243 39.7005C75.2316 39.4113 75.0743 39.0969 74.9577 38.7672L69.5861 24.2758L64.098 38.9092C63.9762 39.2287 63.8038 39.5229 63.5908 39.7867C63.4538 39.9997 63.2255 40.1316 62.977 40.157H62.8959V40.3954H65.5588V40.157H65.432C65.29 40.1468 65.1631 40.0809 65.0718 39.9744C64.9501 39.8323 64.8892 39.6497 64.9045 39.4671C64.9045 39.3454 64.9298 39.2237 64.9755 39.107L67.0602 33.3754H71.26L73.4208 39.2034C73.4664 39.3353 73.4918 39.4722 73.4918 39.6092C73.4766 39.9744 73.2787 40.157 72.8983 40.157ZM67.2833 32.574L69.1296 27.5626L70.9759 32.574H67.2833Z" fill="url(#paint7_linear)"/>
<path d="M81.1306 32.721C81.7849 32.716 82.4392 32.6196 83.0682 32.4319C83.6921 32.2493 84.2855 31.9704 84.8232 31.6052C85.3355 31.2552 85.7666 30.8037 86.0862 30.2762C86.989 28.7089 86.6187 26.7206 85.2137 25.5844C84.2957 24.9098 82.9414 24.5699 81.1559 24.5699H77.7525V24.8083H77.8742C78.1329 24.854 78.3459 25.0417 78.4271 25.2902C78.5437 25.5286 78.6097 25.7924 78.6198 26.0561V38.8382C78.6198 38.9802 78.6046 39.1222 78.5742 39.2592C78.5437 39.4063 78.4981 39.5483 78.4321 39.6802C78.3713 39.8019 78.2901 39.9186 78.1937 40.0149C78.1126 40.1012 78.001 40.1519 77.8843 40.157H77.7626V40.3954H81.1204V40.157H80.9987C80.877 40.162 80.7552 40.1062 80.6741 40.0149C80.5828 39.9135 80.5016 39.8019 80.4357 39.6802C80.3596 39.5483 80.3089 39.4063 80.2784 39.2592C80.248 39.1222 80.2328 38.9802 80.2328 38.8382V32.721H81.1306ZM80.2176 25.4069H80.5574C81.2574 25.3917 81.9574 25.483 82.632 25.6808C83.1341 25.8329 83.6008 26.0865 83.9964 26.4264C84.3312 26.7206 84.5848 27.0909 84.742 27.5068C84.8942 27.9278 84.9753 28.3691 84.9703 28.8154C84.9652 29.2009 84.879 29.5813 84.7065 29.9262C84.5239 30.3168 84.2551 30.6617 83.9254 30.9407C83.55 31.2501 83.1189 31.4834 82.6573 31.6356C82.0994 31.8182 81.5161 31.9095 80.9328 31.8993H80.2074L80.2176 25.4069Z" fill="url(#paint8_linear)"/>
<path d="M96.7379 25.4525C96.9712 25.4475 97.2045 25.5032 97.4074 25.6199C97.5951 25.7264 97.7574 25.8684 97.8893 26.0409C98.0161 26.2083 98.1125 26.396 98.1784 26.5938C98.2393 26.7815 98.2748 26.9843 98.2748 27.1822H98.5132V24.5649H87.7499V27.1771H87.9883C87.9883 26.9793 88.0238 26.7764 88.0846 26.5887C88.1506 26.3909 88.2469 26.2032 88.3737 26.0358C88.5056 25.8634 88.6679 25.7214 88.8556 25.6148C89.0585 25.4982 89.2918 25.4424 89.5251 25.4475H92.3149V38.8382C92.3149 38.9802 92.2997 39.1222 92.2692 39.2592C92.2388 39.4063 92.1881 39.5483 92.112 39.6802C92.041 39.8019 91.9598 39.9135 91.8584 40.0149C91.7721 40.1062 91.6504 40.157 91.5236 40.157H91.4019V40.3954H94.8054V40.157H94.6836C94.5619 40.162 94.4401 40.1062 94.359 40.0149C94.2677 39.9135 94.1865 39.8019 94.1206 39.6802C94.0445 39.5483 93.9938 39.4063 93.9634 39.2592C93.9329 39.1222 93.9177 38.9802 93.9177 38.8382V25.4525H96.7379Z" fill="url(#paint9_linear)"/>
<path d="M111.944 25.6656C111.975 25.5286 112.021 25.3917 112.076 25.2598C112.127 25.138 112.208 25.0265 112.305 24.9352C112.396 24.854 112.518 24.8033 112.639 24.8033H112.761V24.5649H109.403V24.8033H109.525C109.647 24.8033 109.768 24.854 109.86 24.9352C109.956 25.0265 110.037 25.138 110.098 25.2598C110.159 25.3866 110.21 25.5235 110.24 25.6656C110.271 25.7924 110.286 25.9192 110.286 26.051V31.4479H102.617V26.051C102.617 25.9192 102.632 25.7924 102.662 25.6656C102.693 25.5286 102.738 25.3917 102.794 25.2598C102.845 25.138 102.926 25.0265 103.022 24.9352C103.114 24.854 103.235 24.8033 103.357 24.8033H103.474V24.5649H100.116V24.8033H100.238C100.359 24.8033 100.481 24.854 100.572 24.9352C100.669 25.0265 100.75 25.138 100.811 25.2598C100.933 25.5083 100.999 25.7771 101.004 26.051V38.8331C101.004 38.9751 100.988 39.1172 100.958 39.2541C100.928 39.4063 100.872 39.5483 100.801 39.6852C100.735 39.812 100.649 39.9236 100.547 40.02C100.466 40.1012 100.354 40.1519 100.238 40.1519H100.116V40.3903H103.474V40.1519H103.352C103.23 40.157 103.109 40.1012 103.027 40.0099C102.936 39.9084 102.86 39.7968 102.799 39.6751C102.733 39.5432 102.688 39.4012 102.657 39.2541C102.627 39.1172 102.612 38.9751 102.612 38.8331V32.3102H110.286V38.8382C110.286 38.9802 110.271 39.1222 110.24 39.2592C110.21 39.4113 110.154 39.5534 110.083 39.6903C110.017 39.8171 109.931 39.9287 109.829 40.0251C109.743 40.1062 109.632 40.157 109.515 40.157H109.393V40.3954H112.751V40.157H112.629C112.513 40.157 112.406 40.1062 112.33 40.0149C112.239 39.9135 112.163 39.8019 112.102 39.6802C112.036 39.5432 111.98 39.4063 111.944 39.2592C111.904 39.1222 111.884 38.9802 111.884 38.8382V26.051C111.889 25.9192 111.909 25.7924 111.944 25.6656Z" fill="url(#paint10_linear)"/>
<path d="M124.585 37.5904H124.346C124.341 37.7882 124.306 37.9911 124.24 38.1788C124.169 38.4121 124.052 38.6353 123.905 38.8281C123.748 39.0309 123.56 39.1983 123.342 39.3353C123.103 39.4824 122.83 39.5585 122.551 39.5534H117.296V32.2899H121.277C121.617 32.2747 121.947 32.3863 122.211 32.5993C122.439 32.7819 122.571 33.0558 122.571 33.345H122.809V30.3473H122.571C122.571 30.6516 122.439 30.9458 122.201 31.1385C121.947 31.3617 121.617 31.4834 121.277 31.4733H117.296V25.3866H122.114C122.556 25.3511 122.992 25.5033 123.311 25.8076C123.56 26.0764 123.712 26.4163 123.743 26.7815H123.981V24.5497H114.749V24.7881H114.871C114.993 24.7881 115.115 24.8388 115.206 24.92C115.307 25.0163 115.394 25.1228 115.46 25.2446C115.531 25.3714 115.586 25.5083 115.627 25.6504C115.662 25.7772 115.683 25.904 115.688 26.0359V38.8686C115.688 39.0056 115.668 39.1425 115.627 39.2744C115.586 39.4164 115.531 39.5534 115.46 39.6802C115.394 39.8019 115.307 39.9135 115.206 40.0048C115.115 40.086 114.993 40.1367 114.871 40.1367H114.749V40.3751H124.585V37.5904Z" fill="url(#paint11_linear)"/>
<path d="M129.743 32.721C130.397 32.716 131.052 32.6196 131.681 32.4319C132.304 32.2493 132.898 31.9704 133.436 31.6052C133.948 31.2552 134.379 30.8037 134.699 30.2762C135.596 28.7038 135.211 26.7155 133.801 25.5844C132.883 24.9098 131.528 24.5699 129.743 24.5699H126.34V24.8083H126.461C126.72 24.854 126.933 25.0417 127.014 25.2902C127.131 25.5286 127.197 25.7924 127.207 26.0561V38.8382C127.207 38.9802 127.192 39.1222 127.161 39.2592C127.131 39.4063 127.085 39.5483 127.019 39.6802C126.958 39.8019 126.877 39.9186 126.781 40.0149C126.7 40.1012 126.588 40.157 126.466 40.157H126.345V40.3954H129.702V40.157H129.581C129.459 40.162 129.337 40.1062 129.256 40.0149C129.165 39.9135 129.084 39.8019 129.018 39.6802C128.942 39.5483 128.891 39.4063 128.86 39.2592C128.83 39.1222 128.815 38.9802 128.815 38.8382V32.721H129.743ZM128.835 25.4018H129.175C129.875 25.3866 130.575 25.4779 131.249 25.6757C131.752 25.8279 132.218 26.0815 132.614 26.4213C132.949 26.7155 133.202 27.0858 133.359 27.5017C133.512 27.9227 133.593 28.364 133.588 28.8103C133.588 29.2009 133.496 29.5864 133.324 29.9364C133.136 30.3219 132.873 30.6668 132.543 30.9407C132.168 31.2501 131.736 31.4834 131.275 31.6356C130.717 31.8182 130.134 31.9095 129.55 31.8993H128.835V25.4018Z" fill="url(#paint12_linear)"/>
<path d="M151.153 25.6808C151.183 25.5489 151.229 25.417 151.285 25.2953C151.341 25.1786 151.412 25.067 151.503 24.9707C151.579 24.8794 151.686 24.8236 151.802 24.8033H151.995V24.5649H148.617V24.8033H148.739C148.86 24.8033 148.982 24.854 149.073 24.9352C149.17 25.0265 149.251 25.138 149.312 25.2598C149.378 25.3866 149.423 25.5235 149.454 25.6656C149.484 25.7924 149.499 25.9192 149.504 26.051V38.8331C149.504 38.9751 149.484 39.1172 149.454 39.2541C149.423 39.4012 149.378 39.5483 149.312 39.6852C149.256 39.8121 149.175 39.9236 149.073 40.02C148.982 40.1012 148.86 40.1519 148.739 40.1519H148.617V40.3903H152V40.1519H151.833C151.716 40.1367 151.615 40.0809 151.533 39.9947C151.437 39.8983 151.361 39.7816 151.305 39.6599C151.244 39.5229 151.194 39.386 151.163 39.2389C151.133 39.107 151.117 38.9701 151.117 38.8331V26.051C151.117 25.9242 151.128 25.8025 151.153 25.6808Z" fill="url(#paint13_linear)"/>
<path d="M138.102 39.2896C138.061 39.4317 138.011 39.5635 137.945 39.6954C137.884 39.8171 137.803 39.9287 137.706 40.02C137.625 40.1012 137.514 40.1519 137.397 40.1519H137.275V40.3903H141.45C142.195 40.3954 142.936 40.2889 143.646 40.0758C144.285 39.8882 144.884 39.5838 145.411 39.178C145.903 38.7925 146.304 38.3107 146.588 37.7578C146.882 37.1694 147.029 36.5202 147.019 35.8608C147.044 35.105 146.867 34.3543 146.512 33.6899C146.187 33.1167 145.731 32.6348 145.183 32.2747C144.605 31.9044 143.96 31.6458 143.286 31.5088C142.571 31.3566 141.845 31.2806 141.115 31.2806H139.771V26.1221C139.786 25.8431 139.847 25.5743 139.964 25.3207C140.09 25.0113 140.263 24.8388 140.471 24.8134H140.638V24.575H137.255V24.8134H137.377C137.493 24.8185 137.605 24.8692 137.686 24.9555C137.788 25.0569 137.869 25.1685 137.94 25.2902C138.016 25.4272 138.067 25.5692 138.097 25.7214C138.127 25.8532 138.143 25.9902 138.143 26.1271V38.9092C138.148 39.036 138.132 39.1628 138.102 39.2896ZM139.771 32.0921H140.562C142.129 32.0921 143.311 32.4522 144.113 33.1725C144.914 33.8725 145.36 34.892 145.325 35.9572C145.371 36.9818 144.919 37.9607 144.113 38.5947C143.311 39.2389 141.982 39.5635 140.126 39.5635H139.766L139.771 32.0921Z" fill="url(#paint14_linear)"/>
<path d="M31.4885 20.1977C32.6298 19.8223 33.6899 19.2339 34.6181 18.4731C35.4246 17.7985 36.084 16.9565 36.5455 16.0131C36.9767 15.1356 37.2049 14.1668 37.2151 13.1878C37.2201 12.0821 37.0274 10.9865 36.647 9.94666C36.2513 8.90177 35.6072 7.97355 34.7702 7.23301C33.7862 6.38594 32.6399 5.75698 31.3972 5.37656C29.7538 4.88963 28.0394 4.66138 26.325 4.70196H25.1583V20.8469H27.243C28.6836 20.8723 30.119 20.6491 31.4885 20.1977Z" fill="url(#paint15_linear)"/>
<path d="M33.5833 30.7023C33.5022 30.4537 33.3805 30.2255 33.2232 30.0175C33.0609 29.8096 32.858 29.6371 32.6247 29.5103C32.087 29.2466 31.4479 29.348 31.0168 29.7639C30.8038 30.0429 30.6769 30.3726 30.6516 30.7226V30.9407C30.6414 30.9813 30.6414 31.0218 30.6516 31.0624C30.7581 31.4936 30.9813 31.8892 31.2958 32.1986C31.666 32.579 32.0515 32.9391 32.4624 33.2739C32.8326 33.1167 33.1471 32.8478 33.3703 32.5131C33.5783 32.2138 33.7 31.8638 33.7152 31.4986C33.7152 31.2298 33.6696 30.961 33.5833 30.7023Z" fill="url(#paint16_linear)"/>
<path d="M29.9871 38.0418C30.1241 38.3309 30.3067 38.5947 30.5349 38.823C30.7784 39.0613 31.0574 39.2541 31.3668 39.3961C31.6863 39.5432 32.0312 39.6244 32.3812 39.6345C32.9747 39.6193 33.5478 39.4164 34.0196 39.0563C34.5674 38.6657 35.0492 38.194 35.455 37.6563L33.5986 36.1093L31.7117 34.5521C31.1385 34.8108 30.6465 35.2166 30.2762 35.7238C29.9668 36.1397 29.7893 36.6419 29.769 37.1643C29.7741 37.4687 29.8502 37.7679 29.9871 38.0418Z" fill="url(#paint17_linear)"/>
<path d="M45.3712 0H0V43.1496H45.3712V0ZM25.3054 38.1078C25.3866 38.4933 25.5235 38.8636 25.7163 39.2085C25.8837 39.5179 26.0916 39.807 26.33 40.0707C26.4416 40.1925 26.5684 40.2939 26.7104 40.37H21.9628L9.03874 8.08009L9.13004 37.0274C9.13004 37.3875 9.17569 37.7477 9.25178 38.1027C9.32279 38.4882 9.45467 38.8635 9.63727 39.2135C9.8148 39.5382 10.038 39.8324 10.2967 40.0961C10.4133 40.2128 10.5452 40.3091 10.6872 40.3852H4.39764C4.53966 40.3091 4.67154 40.2178 4.7882 40.1063C5.06717 39.8476 5.3005 39.5432 5.46788 39.2034C5.63527 38.8636 5.76714 38.5034 5.86352 38.1331C5.95989 37.7781 6.01061 37.4129 6.01568 37.0426V6.59392C6.01061 6.2693 5.98018 5.9396 5.92438 5.62005C5.86352 5.25485 5.74685 4.89979 5.57947 4.56502C5.40701 4.20996 5.15847 3.90056 4.84907 3.65709C4.73241 3.56579 4.60053 3.48463 4.46358 3.42377H8.99309L22.0592 36.1854L22.0896 6.59392C22.0592 5.90917 21.8867 5.23456 21.5824 4.62082C21.3846 4.10852 21.0092 3.68245 20.5223 3.42377H27.7705C31.8943 3.42377 35.0594 4.21504 37.1745 5.77729C39.2896 7.33954 40.3091 9.53075 40.3091 12.3712C40.3294 13.8067 39.9541 15.2218 39.2186 16.4594C38.4781 17.6666 37.489 18.7064 36.3173 19.5028C35.0746 20.3499 33.7051 20.9991 32.2595 21.4201C30.7987 21.8563 29.277 22.0846 27.7503 22.0896H25.2141V37.0274C25.204 37.3875 25.2344 37.7527 25.3054 38.1078ZM41.0294 40.37H39.9135C39.4874 40.3801 39.0664 40.2838 38.681 40.1012C38.336 39.9287 38.0063 39.7208 37.6969 39.4824L36.0789 38.2092C35.5717 38.9193 34.9224 39.5128 34.1717 39.9592C33.4667 40.3396 32.6805 40.5374 31.8791 40.5272C31.3871 40.5323 30.8951 40.4461 30.4335 40.2787C30.0328 40.1316 29.6625 39.9084 29.3429 39.6244C28.7546 39.0918 28.4097 38.331 28.4046 37.5346C28.3843 36.7738 28.6075 36.0231 29.0437 35.3992C29.5509 34.7601 30.2002 34.2478 30.9407 33.908C30.4994 33.5377 30.1139 33.1065 29.7842 32.6348C29.4799 32.1986 29.3125 31.6762 29.3074 31.1436C29.3074 30.7936 29.3734 30.4487 29.5103 30.1291C29.6422 29.8147 29.835 29.5255 30.0835 29.2871C30.332 29.0488 30.6212 28.856 30.9407 28.7241C31.2805 28.5821 31.6457 28.506 32.016 28.5111C32.437 28.501 32.858 28.5821 33.2435 28.7495C33.5783 28.8966 33.8877 29.1096 34.1413 29.3734C34.3848 29.6321 34.5724 29.9313 34.6942 30.2661C34.8159 30.5907 34.8768 30.9356 34.8768 31.2805C34.8768 31.7776 34.7398 32.2696 34.4913 32.7008C34.1717 33.208 33.7304 33.6239 33.2131 33.9232L34.7347 35.176C35.242 35.6072 35.7746 36.0383 36.2919 36.4441C36.4897 36.0485 36.6571 35.6427 36.7991 35.2217C36.9412 34.7601 37.0578 34.334 37.1441 33.9485C37.2201 33.6138 37.281 33.2739 37.3165 32.9341C37.3469 32.6399 37.3571 32.4269 37.3571 32.3204C37.3571 32.2037 37.3064 32.087 37.2201 32.0059C37.1491 31.9196 37.0477 31.8689 36.9361 31.8638H36.7991V31.4479H38.8737V31.8994H38.7367C38.6353 31.9095 38.544 31.9552 38.473 32.0312C38.3766 32.1175 38.3158 32.2341 38.3005 32.3609C38.2346 32.9595 38.1331 33.5478 38.0013 34.1362C37.8694 34.6536 37.7172 35.1608 37.5346 35.663C37.3875 36.1296 37.1846 36.576 36.9361 36.9919C37.1441 37.1846 37.3622 37.3774 37.5955 37.5701L38.3817 38.2143L39.1324 38.823C39.3809 39.036 39.6142 39.2186 39.8273 39.3758C40.02 39.5128 40.2178 39.6345 40.4258 39.7512C40.578 39.8476 40.7555 39.8983 40.933 39.9084H41.07L41.0294 40.37Z" fill="url(#paint18_linear)"/>
<path d="M27.3343 48.8762C27.1264 48.6581 26.8778 48.4856 26.5989 48.3689C26.2793 48.2269 25.9344 48.161 25.5844 48.1711C24.9707 48.1559 24.3772 48.3943 23.9461 48.8305C23.7381 49.0283 23.5707 49.2617 23.4388 49.5153C23.3171 49.7638 23.2309 50.0326 23.1852 50.3065H22.7135V48.6834C22.7084 48.6479 22.7084 48.6175 22.7135 48.582C22.744 48.5262 22.7795 48.4805 22.8251 48.4399C22.8403 48.4044 22.8657 48.3689 22.891 48.3385C22.9164 48.3131 22.9468 48.2929 22.9823 48.2878H23.0381V48.2168H22.0237V48.2878H22.0592C22.0947 48.2878 22.1251 48.303 22.1505 48.3284C22.1759 48.3588 22.2012 48.3892 22.2164 48.4247C22.2367 48.4653 22.2519 48.5059 22.2621 48.5465C22.2672 48.587 22.2672 48.6225 22.2621 48.6631V52.4876C22.2672 52.5282 22.2672 52.5738 22.2621 52.6144C22.2519 52.6601 22.2418 52.7006 22.2215 52.7412C22.2063 52.7767 22.1809 52.8122 22.1556 52.8427C22.1302 52.868 22.0998 52.8832 22.0643 52.8832H22.0135V52.9542H23.028V52.8832H22.9773C22.9418 52.8832 22.9113 52.868 22.886 52.8427C22.8606 52.8173 22.8403 52.7869 22.8251 52.7514C22.8048 52.7108 22.7896 52.6702 22.7795 52.6246C22.7744 52.584 22.7744 52.5434 22.7795 52.5028V50.5297H23.2309V50.6362C23.2309 50.9406 23.2816 51.2449 23.3831 51.534C23.4794 51.813 23.6316 52.0717 23.8294 52.2949C24.0323 52.5079 24.2758 52.6854 24.5497 52.8021C24.8591 52.939 25.1888 53.01 25.5286 53.005C25.8583 53.01 26.188 52.9441 26.4923 52.8224C26.7815 52.7057 27.0452 52.5332 27.2684 52.3151C27.4865 52.092 27.659 51.8282 27.7756 51.5391C27.9075 51.2195 27.9684 50.8696 27.9633 50.5246C27.9633 50.2102 27.9126 49.9008 27.8111 49.6015C27.6995 49.3327 27.5372 49.0841 27.3343 48.8762ZM27.3343 51.3819C27.2633 51.6253 27.1467 51.8485 26.9945 52.0514C26.8373 52.2594 26.6394 52.4318 26.4112 52.5586C26.1525 52.6956 25.8685 52.7716 25.5743 52.7767C25.3004 52.7818 25.0315 52.7108 24.7931 52.5738C24.5598 52.447 24.3569 52.2746 24.1895 52.0666C24.0171 51.8485 23.8852 51.605 23.7939 51.3463C23.7026 51.0927 23.6519 50.8239 23.6519 50.5551C23.6519 50.3015 23.6925 50.0478 23.7736 49.8095C23.8497 49.5609 23.9714 49.3276 24.1287 49.1196C24.2859 48.9117 24.4787 48.7392 24.7018 48.6124C24.9402 48.4755 25.2141 48.4095 25.488 48.4146C25.7772 48.4095 26.0561 48.4805 26.3097 48.6175C26.5481 48.7443 26.7561 48.9167 26.9235 49.1247C27.0909 49.3479 27.2227 49.5913 27.309 49.8551C27.4713 50.3471 27.4713 50.8848 27.309 51.3768L27.3343 51.3819Z" fill="#2E4C7F" stroke="url(#paint19_linear)" stroke-width="0.25" stroke-miterlimit="10"/>
<path d="M33.1928 48.5211C32.8327 48.2979 32.4117 48.1914 31.9856 48.2167H30.9407V48.2878H30.9762C31.0523 48.303 31.1182 48.3537 31.1436 48.4298C31.1791 48.5008 31.1943 48.5769 31.1994 48.658V52.4825C31.2045 52.5231 31.2045 52.5687 31.1994 52.6093C31.1892 52.655 31.174 52.6955 31.1537 52.7361C31.1334 52.7716 31.1132 52.8071 31.0827 52.8376C31.0574 52.8629 31.0269 52.8781 30.9914 52.8781H30.9407V52.9492H31.9552V52.8781C31.9196 52.8781 31.8841 52.8629 31.8588 52.8376C31.8334 52.8071 31.8081 52.7716 31.7878 52.7361C31.7675 52.6955 31.7523 52.655 31.7421 52.6093C31.737 52.5687 31.737 52.5231 31.7421 52.4825V50.6565H31.9552C32.153 50.6565 32.3457 50.6261 32.5334 50.5703C32.716 50.5145 32.8834 50.4282 33.0406 50.3217C33.1928 50.2152 33.3247 50.0783 33.421 49.921C33.6899 49.4493 33.5732 48.8559 33.1522 48.516L33.1928 48.5211ZM33.0457 49.8247C32.9899 49.9362 32.9138 50.0377 32.8174 50.1188C32.7058 50.2101 32.574 50.2812 32.437 50.3268C32.2747 50.3826 32.1022 50.408 31.9298 50.408H31.7015V48.4704H31.803C32.0109 48.4653 32.2189 48.4906 32.4218 48.5515C32.5689 48.5972 32.7109 48.6733 32.8276 48.7747C32.929 48.8609 33.0051 48.9725 33.0508 49.0993C33.0964 49.2261 33.1167 49.358 33.1167 49.4899C33.1167 49.6065 33.0913 49.7181 33.0457 49.8247Z" fill="#2E4C7F" stroke="url(#paint20_linear)" stroke-width="0.25" stroke-miterlimit="10"/>
<path d="M39.6142 48.2877H39.6497C39.6852 48.2877 39.7258 48.303 39.7512 48.3283C39.7816 48.3537 39.807 48.3892 39.8273 48.4247C39.8476 48.4653 39.8628 48.5059 39.8729 48.5464C39.878 48.587 39.878 48.6225 39.8729 48.6631V48.7544L37.489 51.9753V48.6631C37.489 48.5819 37.5093 48.5059 37.5448 48.4348C37.565 48.3993 37.5853 48.3689 37.6107 48.3385C37.6361 48.3131 37.6665 48.2928 37.702 48.2877H37.7578V48.2167H36.7433V48.2877H36.7789C36.8144 48.2877 36.8549 48.303 36.8803 48.3283C36.9107 48.3588 36.9361 48.3892 36.9564 48.4247C36.9767 48.4653 36.9919 48.5059 37.002 48.5464C37.0071 48.587 37.0071 48.6225 37.002 48.6631V52.4876C37.0071 52.5281 37.0071 52.5738 37.002 52.6144C36.9919 52.66 36.9767 52.7006 36.9564 52.7412C36.9361 52.7767 36.9107 52.8122 36.8803 52.8426C36.8549 52.868 36.8144 52.8832 36.7789 52.8832H36.7433V52.9542H37.7578V52.8832H37.7223C37.6868 52.8832 37.6462 52.868 37.6208 52.8426C37.5904 52.8122 37.5701 52.7767 37.5498 52.7412C37.5295 52.7006 37.5143 52.66 37.5042 52.6144C37.4991 52.5738 37.4991 52.5281 37.5042 52.4876V52.4216L39.8881 49.2008V52.4876C39.8932 52.5281 39.8932 52.5738 39.8881 52.6144C39.878 52.66 39.8628 52.7006 39.8425 52.7412C39.8222 52.7767 39.7968 52.8122 39.7664 52.8426C39.741 52.868 39.7005 52.8832 39.665 52.8832H39.6142V52.9542H40.6287V52.8832H40.578C40.5425 52.8832 40.5019 52.868 40.4765 52.8426C40.4461 52.8122 40.4207 52.7767 40.4055 52.7361C40.3852 52.6955 40.37 52.655 40.3599 52.6093C40.3548 52.5687 40.3548 52.5281 40.3599 52.4876V48.6631C40.3548 48.6225 40.3548 48.587 40.3599 48.5464C40.37 48.5059 40.3852 48.4653 40.4055 48.4247C40.4207 48.3892 40.4461 48.3537 40.4765 48.3283C40.5019 48.303 40.5425 48.2877 40.578 48.2877H40.6135V48.2167H39.599L39.6142 48.2877Z" fill="#2E4C7F" stroke="url(#paint21_linear)" stroke-width="0.25" stroke-miterlimit="10"/>
<path d="M47.7755 52.6144C47.7197 52.5586 47.674 52.4876 47.6385 52.4166L45.9748 48.1102L44.3264 52.4369C44.2909 52.589 44.159 52.7006 44.0017 52.7006H43.6873V53.5984H43.7583C43.7684 53.5274 43.7836 53.4614 43.8141 53.3955C43.8445 53.3194 43.8851 53.2484 43.9358 53.1825C43.9865 53.1165 44.0474 53.0607 44.1133 53.0151C44.1793 52.9694 44.2554 52.9492 44.3365 52.9492H47.6436C47.7248 52.9492 47.8009 52.9694 47.8668 53.0151C47.9327 53.0607 47.9936 53.1115 48.0443 53.1774C48.095 53.2433 48.1305 53.3144 48.161 53.3904C48.1863 53.4564 48.2066 53.5274 48.2117 53.5984H48.2827V52.7006H47.9834C47.9074 52.7057 47.8313 52.6702 47.7755 52.6144ZM44.4836 52.7057L45.8633 49.1551L47.248 52.7057H44.4836Z" fill="#2E4C7F" stroke="url(#paint22_linear)" stroke-width="0.25" stroke-miterlimit="10"/>
<path d="M54.273 48.2877C54.3085 48.2877 54.3491 48.303 54.3745 48.3283C54.4049 48.3537 54.4303 48.3892 54.4505 48.4247C54.4708 48.4653 54.4861 48.5059 54.4962 48.5464C54.5013 48.587 54.5013 48.6225 54.4962 48.6631V48.7544L52.1122 51.9753V48.6631C52.1072 48.6276 52.1072 48.587 52.1122 48.5515C52.1224 48.5109 52.1376 48.4703 52.1579 48.4348C52.1731 48.3993 52.1985 48.3689 52.2238 48.3385C52.2492 48.3131 52.2796 48.2928 52.3151 48.2877H52.3709V48.2167H51.3565V48.2877H51.392C51.4275 48.2877 51.4681 48.303 51.4934 48.3283C51.5239 48.3537 51.5492 48.3892 51.5695 48.4247C51.5898 48.4653 51.605 48.5059 51.6152 48.5464C51.6202 48.587 51.6202 48.6225 51.6152 48.6631V52.4876C51.6202 52.5281 51.6202 52.5738 51.6152 52.6144C51.605 52.66 51.5898 52.7006 51.5695 52.7412C51.5492 52.7767 51.5239 52.8122 51.4934 52.8426C51.4681 52.868 51.4275 52.8832 51.392 52.8832H51.3565V52.9542H52.3709V52.8832H52.3354C52.2999 52.8832 52.2593 52.868 52.234 52.8426C52.2035 52.8122 52.1833 52.7767 52.163 52.7412C52.1427 52.7006 52.1275 52.66 52.1173 52.6144C52.1122 52.5738 52.1122 52.5281 52.1173 52.4876V52.4216L54.5013 49.2008V52.4876C54.5063 52.5281 54.5063 52.5738 54.5013 52.6144C54.4911 52.66 54.4759 52.7006 54.4556 52.7412C54.4353 52.7767 54.41 52.8122 54.3795 52.8426C54.3542 52.868 54.3136 52.8832 54.2781 52.8832H54.273V52.9542H55.2875V52.8832H55.252C55.2165 52.8832 55.1759 52.868 55.1505 52.8426C55.1201 52.8122 55.0947 52.7767 55.0795 52.7361C55.0592 52.6955 55.044 52.655 55.0339 52.6093C55.0288 52.5687 55.0288 52.5281 55.0339 52.4876V48.6631C55.0288 48.6225 55.0288 48.587 55.0339 48.5464C55.044 48.5059 55.0592 48.4653 55.0795 48.4247C55.0947 48.3892 55.1201 48.3537 55.1505 48.3283C55.1759 48.303 55.2165 48.2877 55.252 48.2877H55.2875V48.2167H54.273V48.2877Z" fill="#2E4C7F" stroke="url(#paint23_linear)" stroke-width="0.25" stroke-miterlimit="10"/>
<path d="M60.7655 48.2877H60.8213C60.8568 48.2928 60.8872 48.3131 60.9075 48.3385C60.9329 48.3689 60.9532 48.3993 60.9684 48.4348C60.9836 48.4703 60.9988 48.5109 61.009 48.5515C61.014 48.587 61.014 48.6276 61.009 48.6631V50.2862C60.8923 50.3724 60.7655 50.4435 60.6336 50.5043C60.5119 50.5652 60.3749 50.5956 60.238 50.5956C60.1061 50.5956 59.9742 50.5703 59.8525 50.5195C59.7257 50.4688 59.6141 50.3978 59.5126 50.3065C59.4112 50.2101 59.33 50.0985 59.2692 49.9717C59.2083 49.8348 59.1728 49.6877 59.1779 49.5406V48.6631C59.1728 48.6225 59.1728 48.587 59.1779 48.5464C59.188 48.5059 59.2083 48.4653 59.2286 48.4247C59.2489 48.3892 59.2742 48.3537 59.3047 48.3283C59.33 48.303 59.3706 48.2877 59.4061 48.2877H59.4416V48.2167H58.4272V48.2877H58.4627C58.4931 48.2877 58.5236 48.303 58.5438 48.3283C58.5692 48.3537 58.5946 48.3892 58.6098 48.4247C58.625 48.4653 58.6402 48.5059 58.6504 48.5464C58.6554 48.587 58.6554 48.6225 58.6504 48.6631V49.4949C58.6504 49.6826 58.6808 49.8652 58.7467 50.0377C58.8076 50.2051 58.904 50.3572 59.0257 50.484C59.1525 50.6159 59.3047 50.7174 59.4721 50.7884C59.6547 50.8644 59.8576 50.905 60.0554 50.9C60.2278 50.9 60.4003 50.8644 60.5626 50.7985C60.6996 50.7427 60.8264 50.6768 60.9481 50.5905V52.4977C60.9532 52.5383 60.9532 52.5789 60.9481 52.6194C60.9379 52.66 60.9227 52.7006 60.9024 52.7412C60.8822 52.7767 60.8568 52.8071 60.8264 52.8376C60.801 52.8629 60.7706 52.8781 60.7351 52.8781H60.6995V52.9491H61.714V52.8781H61.6582C61.6227 52.8731 61.5923 52.8528 61.5669 52.8274C61.5365 52.797 61.5162 52.7665 61.4959 52.731C61.4756 52.6955 61.4604 52.655 61.4502 52.6144C61.4452 52.5738 61.4452 52.5383 61.4502 52.4977V48.6631C61.4502 48.5819 61.4705 48.5059 61.506 48.4348C61.5263 48.3993 61.5466 48.3689 61.577 48.3385C61.6024 48.3131 61.6328 48.2928 61.6683 48.2877H61.7241V48.2167H60.7097L60.7655 48.2877Z" fill="#2E4C7F" stroke="url(#paint24_linear)" stroke-width="0.25" stroke-miterlimit="10"/>
<path d="M67.8413 52.2897C67.821 52.3608 67.7855 52.4267 67.7398 52.4825C67.6942 52.5434 67.6384 52.5941 67.5725 52.6347C67.5014 52.6803 67.4203 52.7006 67.3341 52.7006H65.7617V50.5297H66.9536C67.0551 50.5246 67.1515 50.5601 67.2326 50.621C67.2986 50.6768 67.3391 50.7579 67.3391 50.8442H67.4101V49.9464H67.3391C67.3391 50.0377 67.2986 50.1239 67.2275 50.1848C67.1515 50.2558 67.05 50.2913 66.9486 50.2862H65.7566V48.4703H67.1971C67.329 48.4602 67.4609 48.5059 67.5572 48.5972C67.6333 48.6783 67.679 48.7798 67.6891 48.8863H67.7601V48.2167H64.9958V48.2877H65.0313C65.0668 48.2877 65.1073 48.303 65.1327 48.3283C65.1631 48.3537 65.1885 48.3892 65.2088 48.4247C65.2291 48.4653 65.2494 48.5059 65.2595 48.5464C65.2646 48.587 65.2646 48.6225 65.2595 48.6631V52.5028C65.2646 52.5434 65.2646 52.5839 65.2595 52.6245C65.2494 52.6651 65.2291 52.7057 65.2088 52.7463C65.1885 52.7818 65.1631 52.8122 65.1327 52.8426C65.1073 52.868 65.0668 52.8832 65.0313 52.8832H64.9958V52.9542H67.9681V52.1122H67.8971C67.8869 52.1731 67.8666 52.234 67.8413 52.2897Z" fill="#2E4C7F" stroke="url(#paint25_linear)" stroke-width="0.25" stroke-miterlimit="10"/>
<path d="M74.562 52.3963C74.4707 52.4926 74.3642 52.5738 74.2425 52.6296C74.1309 52.6854 74.0142 52.7209 73.8925 52.7412C73.791 52.7615 73.6896 52.7716 73.5881 52.7716C73.299 52.7767 73.0099 52.7108 72.7462 52.5839C72.4925 52.4571 72.2592 52.2847 72.0665 52.0767C71.8737 51.8688 71.7165 51.6253 71.61 51.3615C71.4984 51.0978 71.4426 50.8188 71.4426 50.5348C71.4426 50.2761 71.4882 50.0225 71.5694 49.779C71.6506 49.5254 71.7824 49.2971 71.9549 49.0942C72.1324 48.8812 72.3556 48.7088 72.6041 48.587C72.8932 48.4551 73.2077 48.3892 73.5273 48.3993C73.6389 48.3993 73.7555 48.4095 73.8671 48.4298C73.9838 48.4501 74.0954 48.4906 74.1968 48.5414C74.3033 48.5972 74.3946 48.6732 74.4656 48.7696C74.5468 48.8812 74.6026 49.008 74.6229 49.1399H74.6939V48.3486C74.633 48.3537 74.5772 48.3537 74.5164 48.3486L74.3186 48.2928L74.0041 48.1863C73.862 48.1559 73.72 48.1407 73.578 48.1407C73.1874 48.1305 72.7969 48.2015 72.4317 48.3537C72.1273 48.4856 71.8484 48.6732 71.6201 48.9167C71.4071 49.145 71.2448 49.4087 71.1433 49.7029C71.0419 49.987 70.9861 50.2862 70.9861 50.5855C70.9861 50.8847 71.0419 51.184 71.1433 51.463C71.2448 51.7521 71.4071 52.0159 71.615 52.2441C71.8382 52.4825 72.102 52.6702 72.4012 52.8021C72.7462 52.9542 73.1215 53.0252 73.4968 53.0202C73.6592 53.0202 73.8164 53.0049 73.9736 52.9745C74.1258 52.9441 74.2628 52.9136 74.3845 52.8832L74.6482 52.8173C74.7243 52.797 74.8004 52.7868 74.8765 52.7868V51.9905H74.8055C74.7598 52.1427 74.6736 52.2796 74.562 52.3963Z" fill="#2E4C7F" stroke="url(#paint26_linear)" stroke-width="0.25" stroke-miterlimit="10"/>
<path d="M81.1559 52.6194C81.0849 52.5434 81.0241 52.4673 80.9683 52.381C80.9175 52.305 80.8719 52.2289 80.8364 52.1477L80.2683 51.0014C80.1668 50.7934 80.0096 50.621 79.8169 50.4942C79.5886 50.3623 79.3248 50.2913 79.0611 50.2964L80.7603 48.5921C80.8364 48.516 80.9125 48.445 80.9987 48.3841C81.0748 48.3334 81.161 48.303 81.2523 48.2979V48.2269H80.4763V48.2979C80.5168 48.2979 80.532 48.2979 80.532 48.3638C80.532 48.4146 80.5118 48.4653 80.4763 48.5008L78.8126 50.1594V48.6631C78.8075 48.6225 78.8075 48.587 78.8126 48.5464C78.8227 48.5059 78.843 48.4653 78.8633 48.4247C78.8836 48.3892 78.9089 48.3537 78.9394 48.3283C78.9647 48.303 79.0053 48.2877 79.0408 48.2877H79.0763V48.2167H78.0619V48.2877H78.1126C78.1481 48.2877 78.1785 48.303 78.2039 48.3283C78.2343 48.3588 78.2597 48.3892 78.28 48.4247C78.3003 48.4653 78.3155 48.5059 78.3256 48.5464C78.3307 48.587 78.3307 48.6225 78.3256 48.6631V52.4876C78.3307 52.5281 78.3307 52.5738 78.3256 52.6144C78.3155 52.66 78.3003 52.7006 78.28 52.7412C78.2597 52.7767 78.2343 52.8122 78.2039 52.8426C78.1785 52.868 78.1379 52.8832 78.1024 52.8832H78.0669V52.9542H79.0814V52.8832H79.0307C78.9952 52.8781 78.9647 52.8629 78.9394 52.8376C78.9089 52.8071 78.8836 52.7767 78.8684 52.7361C78.8481 52.6955 78.8379 52.655 78.8278 52.6093C78.8227 52.5687 78.8227 52.5281 78.8278 52.4876V50.5195C79.0256 50.5246 79.2183 50.5753 79.3908 50.6717C79.5531 50.7681 79.685 50.9101 79.7661 51.0775L80.3494 52.234C80.3951 52.3253 80.4407 52.4115 80.4965 52.4926C80.5523 52.5789 80.6132 52.655 80.6893 52.726C80.7654 52.797 80.8567 52.8528 80.953 52.8933C81.0697 52.939 81.1914 52.9593 81.3132 52.9542H81.6733V52.8832C81.5769 52.8832 81.4806 52.8578 81.3994 52.8071C81.3081 52.7564 81.2269 52.6955 81.1559 52.6194Z" fill="#2E4C7F" stroke="url(#paint27_linear)" stroke-width="0.25" stroke-miterlimit="10"/>
<path d="M88.1506 52.7514C88.0897 52.6651 88.044 52.5688 88.0085 52.4724L86.4006 48.1407L84.7572 52.518C84.7217 52.6144 84.671 52.7006 84.6101 52.7818C84.5696 52.8427 84.5036 52.8883 84.4275 52.8934H84.392V52.9644H85.2137V52.8934H85.1782C85.1376 52.8883 85.0971 52.868 85.0717 52.8376C85.0362 52.797 85.0159 52.7463 85.021 52.6905C85.0159 52.655 85.0159 52.6195 85.021 52.584L85.6449 50.8696H86.9028L87.547 52.6144C87.552 52.655 87.552 52.6956 87.547 52.7361C87.547 52.8427 87.4912 52.8934 87.3745 52.8934H87.339V52.9644H88.3991V52.8934H88.3636C88.2723 52.8832 88.1911 52.8325 88.1506 52.7514ZM85.7159 50.621L86.2688 49.0993L86.8216 50.621H85.7159Z" fill="#2E4C7F" stroke="url(#paint28_linear)" stroke-width="0.25" stroke-miterlimit="10"/>
<path d="M92.9793 48.308C92.7866 48.3588 92.5989 48.445 92.4366 48.5617C92.2946 48.6631 92.1779 48.795 92.0917 48.9472C92.0055 49.1044 91.9649 49.2768 91.97 49.4544C91.97 49.5913 92.0004 49.7283 92.0562 49.85C92.1171 49.9819 92.2033 50.0935 92.3098 50.1898C92.4265 50.2964 92.5634 50.3775 92.7105 50.4333C92.883 50.4993 93.0656 50.5398 93.2482 50.55C93.1061 50.6007 92.9793 50.692 92.888 50.8137C92.8069 50.9203 92.7359 51.0318 92.6699 51.1485L92.1018 52.163C92.0511 52.2492 92.0004 52.3303 91.9395 52.4064C91.8736 52.4927 91.8026 52.5738 91.7214 52.6448C91.6403 52.7158 91.549 52.7767 91.4526 52.8223C91.3562 52.868 91.2497 52.8934 91.1432 52.8934V52.9644H91.5236C91.7569 52.9694 91.9852 52.8934 92.1678 52.7463C92.3555 52.6042 92.5076 52.4216 92.6192 52.2137L92.8069 51.8891L92.9793 51.5847C93.0453 51.4579 93.1163 51.3311 93.1924 51.2094C93.2634 51.0927 93.3445 50.9862 93.4308 50.8847C93.5069 50.7934 93.5982 50.7174 93.6945 50.6565C93.7858 50.6007 93.8873 50.5652 93.9938 50.5551V52.4977C93.9989 52.5383 93.9989 52.584 93.9938 52.6245C93.9836 52.6702 93.9684 52.7108 93.9481 52.7513C93.9279 52.7919 93.9025 52.8223 93.8721 52.8528C93.8467 52.8781 93.8112 52.8934 93.7757 52.8934H93.7402V52.9644H94.7546V52.8934H94.7191C94.6836 52.8934 94.6532 52.8781 94.6278 52.8528C94.5974 52.8223 94.5771 52.7868 94.5568 52.7513C94.5365 52.7108 94.5264 52.6702 94.5162 52.6245C94.5112 52.584 94.5112 52.5383 94.5162 52.4977V48.6631C94.5162 48.582 94.5365 48.5008 94.572 48.4247C94.5872 48.3892 94.6126 48.3537 94.643 48.3283C94.6684 48.303 94.6988 48.2878 94.7343 48.2878H94.7698V48.2167H93.7554C93.4916 48.2066 93.233 48.237 92.9793 48.308ZM93.9938 48.4602V50.2913H93.5424C93.3953 50.2913 93.2482 50.271 93.1061 50.2203C92.9793 50.1746 92.8576 50.1036 92.7562 50.0174C92.6598 49.9312 92.5786 49.8297 92.5228 49.7131C92.462 49.5913 92.4366 49.4594 92.4366 49.3276C92.4366 49.0587 92.5837 48.8153 92.8221 48.6935C93.1518 48.5211 93.5221 48.445 93.8923 48.4653L93.9938 48.4602Z" fill="#2E4C7F" stroke="url(#paint29_linear)" stroke-width="0.25" stroke-miterlimit="10"/>
<path d="M106.603 49.282C106.395 49.1095 106.157 48.9725 105.903 48.8812C105.614 48.7798 105.31 48.724 105.006 48.7189V48.6936C105.001 48.653 105.001 48.6175 105.006 48.5769C105.016 48.5313 105.026 48.4907 105.046 48.4501C105.061 48.4146 105.087 48.3791 105.112 48.3487C105.137 48.3233 105.168 48.303 105.203 48.2979H105.259V48.2269H104.245V48.2979H104.285C104.321 48.303 104.351 48.3233 104.377 48.3487C104.407 48.3791 104.427 48.4146 104.448 48.4501C104.468 48.4907 104.483 48.5313 104.493 48.5769C104.498 48.6175 104.498 48.6581 104.493 48.6986V48.7342C104.199 48.7443 103.91 48.795 103.631 48.8863C103.377 48.9675 103.139 49.0943 102.926 49.2617C102.728 49.4189 102.566 49.6167 102.449 49.8399C102.327 50.0732 102.267 50.3319 102.272 50.5957C102.272 50.8493 102.327 51.0978 102.434 51.3261C102.541 51.5543 102.698 51.7521 102.885 51.9195C103.093 52.0971 103.327 52.234 103.585 52.3202C103.88 52.4217 104.189 52.4775 104.498 52.4825V52.518C104.503 52.5586 104.503 52.5941 104.498 52.6347C104.488 52.6753 104.473 52.7159 104.453 52.7564C104.432 52.792 104.407 52.8275 104.377 52.8528C104.351 52.8782 104.316 52.8934 104.28 52.8934H104.245V52.9644H105.259V52.8934H105.224C105.188 52.8934 105.148 52.8782 105.122 52.8528C105.092 52.8224 105.066 52.792 105.046 52.7564C105.026 52.7159 105.011 52.6753 105.001 52.6347C104.995 52.5941 104.995 52.5586 105.001 52.518V52.4825C105.285 52.4775 105.569 52.4318 105.837 52.3354C106.091 52.2492 106.329 52.1173 106.543 51.95C106.75 51.7927 106.923 51.5898 107.05 51.3616C107.171 51.1232 107.237 50.8645 107.232 50.5957C107.232 50.3471 107.177 50.0986 107.07 49.8754C106.958 49.6472 106.801 49.4443 106.603 49.282ZM104.534 52.2441C104.306 52.234 104.082 52.1782 103.875 52.0768C103.667 51.9804 103.479 51.8485 103.317 51.6862C103.154 51.529 103.022 51.3413 102.926 51.1384C102.83 50.9457 102.779 50.7326 102.779 50.5196C102.784 50.1239 102.946 49.7486 103.225 49.4747C103.388 49.3225 103.575 49.2008 103.778 49.1146C104.022 49.0131 104.28 48.9624 104.539 48.9624L104.534 52.2441ZM106.624 51.2297C106.543 51.4224 106.421 51.5949 106.274 51.7369C106.116 51.8891 105.929 52.0108 105.726 52.0971C105.498 52.1934 105.249 52.2441 105.001 52.2492V48.9624C105.234 48.9725 105.467 49.0233 105.68 49.1247C105.888 49.2211 106.071 49.3479 106.233 49.5102C106.39 49.6674 106.517 49.845 106.608 50.0479C106.7 50.2406 106.745 50.4536 106.745 50.6667C106.745 50.8594 106.705 51.0522 106.624 51.2297Z" fill="#2E4C7F" stroke="url(#paint30_linear)" stroke-width="0.25" stroke-miterlimit="10"/>
<path d="M113.253 48.2877H113.289C113.324 48.2877 113.365 48.303 113.39 48.3283C113.42 48.3537 113.446 48.3892 113.466 48.4247C113.486 48.4653 113.502 48.5059 113.512 48.5464C113.517 48.587 113.517 48.6225 113.512 48.6631V48.7544L111.128 51.9753V48.6631C111.128 48.5819 111.148 48.5059 111.184 48.4348C111.199 48.3993 111.224 48.3689 111.25 48.3385C111.275 48.3131 111.305 48.2928 111.341 48.2877H111.397V48.2167H110.382V48.2877H110.418C110.453 48.2877 110.494 48.303 110.519 48.3283C110.55 48.3588 110.575 48.3892 110.595 48.4247C110.616 48.4653 110.631 48.5059 110.641 48.5464C110.646 48.587 110.646 48.6225 110.641 48.6631V52.4876C110.646 52.5281 110.646 52.5738 110.641 52.6144C110.631 52.66 110.616 52.7006 110.595 52.7412C110.575 52.7767 110.55 52.8122 110.519 52.8426C110.494 52.868 110.453 52.8832 110.418 52.8832H110.382V52.9542H111.397V52.8832H111.361C111.326 52.8832 111.285 52.868 111.26 52.8426C111.229 52.8122 111.209 52.7767 111.189 52.7412C111.168 52.7006 111.153 52.66 111.143 52.6144C111.138 52.5738 111.138 52.5281 111.143 52.4876V52.4216L113.527 49.2008V52.4876C113.532 52.5281 113.532 52.5738 113.527 52.6144C113.517 52.66 113.502 52.7006 113.481 52.7412C113.461 52.7767 113.436 52.8122 113.405 52.8426C113.38 52.868 113.339 52.8832 113.304 52.8832H113.268V52.9542H114.283V52.8832H114.247C114.212 52.8832 114.171 52.868 114.146 52.8426C114.115 52.8122 114.09 52.7767 114.075 52.7361C114.055 52.6955 114.039 52.655 114.029 52.6093C114.024 52.5687 114.024 52.5281 114.029 52.4876V48.6631C114.024 48.6225 114.024 48.587 114.029 48.5464C114.039 48.5059 114.055 48.4653 114.075 48.4247C114.09 48.3892 114.115 48.3537 114.146 48.3283C114.171 48.303 114.212 48.2877 114.247 48.2877H114.283V48.2167H113.268L113.253 48.2877Z" fill="#2E4C7F" stroke="url(#paint31_linear)" stroke-width="0.25" stroke-miterlimit="10"/>
<path d="M119.705 48.5211C119.345 48.2979 118.924 48.1914 118.498 48.2167H117.483V48.2878H117.519C117.595 48.303 117.661 48.3537 117.686 48.4298C117.722 48.5008 117.737 48.5769 117.742 48.658V52.4825C117.747 52.5231 117.747 52.5687 117.742 52.6093C117.732 52.655 117.722 52.6955 117.701 52.7361C117.681 52.7716 117.661 52.8071 117.63 52.8376C117.605 52.8629 117.575 52.8781 117.539 52.8781H117.504V52.9492H118.518V52.8781H118.483C118.447 52.8781 118.412 52.8629 118.386 52.8376C118.361 52.8071 118.336 52.7716 118.315 52.7361C118.295 52.6955 118.28 52.655 118.27 52.6093C118.264 52.5687 118.264 52.5231 118.27 52.4825V50.6565H118.543C118.741 50.6565 118.934 50.6261 119.122 50.5703C119.304 50.5145 119.472 50.4282 119.629 50.3217C119.781 50.2152 119.913 50.0783 120.009 49.921C120.278 49.4493 120.162 48.8559 119.741 48.516L119.705 48.5211ZM119.558 49.8247C119.502 49.9362 119.426 50.0377 119.33 50.1188C119.218 50.2101 119.086 50.2812 118.949 50.3268C118.787 50.3826 118.614 50.408 118.442 50.408H118.224V48.4704H118.325C118.533 48.4653 118.741 48.4906 118.944 48.5515C119.091 48.5972 119.233 48.6733 119.35 48.7747C119.451 48.8609 119.527 48.9725 119.573 49.0993C119.619 49.2261 119.644 49.358 119.644 49.4899C119.644 49.6065 119.624 49.7181 119.573 49.8247H119.558Z" fill="#2E4C7F" stroke="url(#paint32_linear)" stroke-width="0.25" stroke-miterlimit="10"/>
<path d="M125.695 52.1427L124.032 48.2167H123.301V48.2877H123.337C123.372 48.2877 123.403 48.303 123.428 48.3283C123.458 48.3537 123.484 48.3892 123.499 48.4247C123.535 48.5008 123.555 48.5819 123.555 48.6631V52.4876C123.56 52.5281 123.56 52.5738 123.555 52.6144C123.545 52.66 123.535 52.7006 123.514 52.7412C123.494 52.7767 123.474 52.8122 123.443 52.8426C123.418 52.868 123.387 52.8832 123.352 52.8832H123.316V52.9542H124.098V52.8832H124.062C124.027 52.8832 123.986 52.868 123.961 52.8426C123.93 52.8122 123.905 52.7767 123.885 52.7412C123.864 52.7006 123.849 52.66 123.839 52.6144C123.834 52.5738 123.834 52.5281 123.839 52.4876V48.937L125.599 53.0354L127.42 48.6935V52.4673C127.425 52.5079 127.425 52.5535 127.42 52.5941C127.41 52.6397 127.395 52.6803 127.374 52.7209C127.354 52.7564 127.329 52.7919 127.298 52.8223C127.273 52.8477 127.242 52.8629 127.207 52.8629H127.171V52.9339H128.186V52.8629H128.15C128.115 52.8629 128.074 52.8477 128.049 52.8223C128.018 52.7919 127.993 52.7564 127.973 52.7209C127.952 52.6803 127.937 52.6397 127.927 52.5941C127.922 52.5535 127.922 52.5079 127.927 52.4673V48.6631C127.922 48.6225 127.922 48.587 127.927 48.5464C127.937 48.5059 127.952 48.4653 127.973 48.4247C127.993 48.3892 128.018 48.3537 128.049 48.3283C128.074 48.303 128.115 48.2877 128.15 48.2877H128.186V48.2167H127.374L125.695 52.1427Z" fill="#2E4C7F" stroke="url(#paint33_linear)" stroke-width="0.25" stroke-miterlimit="10"/>
<path d="M135.18 52.8832C135.084 52.8832 134.993 52.8325 134.947 52.7463C134.886 52.6601 134.841 52.5637 134.805 52.4673L133.197 48.1356L131.554 52.513C131.518 52.6093 131.468 52.6956 131.407 52.7767C131.366 52.8376 131.3 52.8832 131.224 52.8883H131.189V52.9593H131.985V52.8883H131.949C131.909 52.8832 131.868 52.863 131.843 52.8325C131.807 52.7919 131.787 52.7412 131.792 52.6854C131.787 52.6499 131.787 52.6144 131.792 52.5789L132.416 50.8645H133.674L134.318 52.6093C134.323 52.6499 134.323 52.6905 134.318 52.7311C134.318 52.8376 134.262 52.8883 134.146 52.8883H134.11V52.9593H135.17V52.8883L135.18 52.8832ZM132.512 50.6159L133.065 49.0943L133.618 50.6159H132.512Z" fill="#2E4C7F" stroke="url(#paint34_linear)" stroke-width="0.25" stroke-miterlimit="10"/>
<defs>
<linearGradient id="paint0_linear" x1="49.1298" y1="11.5952" x2="62.0031" y2="11.5952" gradientUnits="userSpaceOnUse">
<stop stop-color="#213864"/>
<stop offset="0.23" stop-color="#325289"/>
<stop offset="0.48" stop-color="#436AAD"/>
<stop offset="0.79" stop-color="#304B91"/>
<stop offset="1" stop-color="#273C83"/>
</linearGradient>
<linearGradient id="paint1_linear" x1="64.032" y1="11.5951" x2="74.0446" y2="11.5951" gradientUnits="userSpaceOnUse">
<stop stop-color="#213864"/>
<stop offset="0.23" stop-color="#325289"/>
<stop offset="0.48" stop-color="#436AAD"/>
<stop offset="0.79" stop-color="#304B91"/>
<stop offset="1" stop-color="#273C83"/>
</linearGradient>
<linearGradient id="paint2_linear" x1="75.754" y1="11.5951" x2="87.0093" y2="11.5951" gradientUnits="userSpaceOnUse">
<stop stop-color="#213864"/>
<stop offset="0.23" stop-color="#325289"/>
<stop offset="0.48" stop-color="#436AAD"/>
<stop offset="0.79" stop-color="#304B91"/>
<stop offset="1" stop-color="#273C83"/>
</linearGradient>
<linearGradient id="paint3_linear" x1="88.5513" y1="11.4379" x2="102.251" y2="11.4379" gradientUnits="userSpaceOnUse">
<stop stop-color="#213864"/>
<stop offset="0.23" stop-color="#325289"/>
<stop offset="0.48" stop-color="#436AAD"/>
<stop offset="0.79" stop-color="#304B91"/>
<stop offset="1" stop-color="#273C83"/>
</linearGradient>
<linearGradient id="paint4_linear" x1="103.712" y1="11.5951" x2="113.725" y2="11.5951" gradientUnits="userSpaceOnUse">
<stop stop-color="#213864"/>
<stop offset="0.23" stop-color="#325289"/>
<stop offset="0.48" stop-color="#436AAD"/>
<stop offset="0.79" stop-color="#304B91"/>
<stop offset="1" stop-color="#273C83"/>
</linearGradient>
<linearGradient id="paint5_linear" x1="115.51" y1="11.5554" x2="125.409" y2="11.5554" gradientUnits="userSpaceOnUse">
<stop stop-color="#213864"/>
<stop offset="0.23" stop-color="#325289"/>
<stop offset="0.48" stop-color="#436AAD"/>
<stop offset="0.79" stop-color="#304B91"/>
<stop offset="1" stop-color="#273C83"/>
</linearGradient>
<linearGradient id="paint6_linear" x1="49.0588" y1="32.4801" x2="61.3336" y2="32.4801" gradientUnits="userSpaceOnUse">
<stop stop-color="#213864"/>
<stop offset="0.23" stop-color="#325289"/>
<stop offset="0.48" stop-color="#436AAD"/>
<stop offset="0.79" stop-color="#304B91"/>
<stop offset="1" stop-color="#273C83"/>
</linearGradient>
<linearGradient id="paint7_linear" x1="62.8705" y1="32.3356" x2="76.3272" y2="32.3356" gradientUnits="userSpaceOnUse">
<stop stop-color="#213864"/>
<stop offset="0.23" stop-color="#325289"/>
<stop offset="0.48" stop-color="#436AAD"/>
<stop offset="0.79" stop-color="#304B91"/>
<stop offset="1" stop-color="#273C83"/>
</linearGradient>
<linearGradient id="paint8_linear" x1="77.7423" y1="32.4827" x2="86.5665" y2="32.4827" gradientUnits="userSpaceOnUse">
<stop stop-color="#213864"/>
<stop offset="0.23" stop-color="#325289"/>
<stop offset="0.48" stop-color="#436AAD"/>
<stop offset="0.79" stop-color="#304B91"/>
<stop offset="1" stop-color="#273C83"/>
</linearGradient>
<linearGradient id="paint9_linear" x1="87.7499" y1="32.4801" x2="98.5132" y2="32.4801" gradientUnits="userSpaceOnUse">
<stop stop-color="#213864"/>
<stop offset="0.23" stop-color="#325289"/>
<stop offset="0.48" stop-color="#436AAD"/>
<stop offset="0.79" stop-color="#304B91"/>
<stop offset="1" stop-color="#273C83"/>
</linearGradient>
<linearGradient id="paint10_linear" x1="100.116" y1="32.4801" x2="112.761" y2="32.4801" gradientUnits="userSpaceOnUse">
<stop stop-color="#213864"/>
<stop offset="0.23" stop-color="#325289"/>
<stop offset="0.48" stop-color="#436AAD"/>
<stop offset="0.79" stop-color="#304B91"/>
<stop offset="1" stop-color="#273C83"/>
</linearGradient>
<linearGradient id="paint11_linear" x1="114.749" y1="32.4624" x2="124.585" y2="32.4624" gradientUnits="userSpaceOnUse">
<stop stop-color="#213864"/>
<stop offset="0.23" stop-color="#325289"/>
<stop offset="0.48" stop-color="#436AAD"/>
<stop offset="0.79" stop-color="#304B91"/>
<stop offset="1" stop-color="#273C83"/>
</linearGradient>
<linearGradient id="paint12_linear" x1="126.36" y1="32.4827" x2="135.185" y2="32.4827" gradientUnits="userSpaceOnUse">
<stop stop-color="#213864"/>
<stop offset="0.23" stop-color="#325289"/>
<stop offset="0.48" stop-color="#436AAD"/>
<stop offset="0.79" stop-color="#304B91"/>
<stop offset="1" stop-color="#273C83"/>
</linearGradient>
<linearGradient id="paint13_linear" x1="148.617" y1="32.4776" x2="152" y2="32.4776" gradientUnits="userSpaceOnUse">
<stop stop-color="#213864"/>
<stop offset="0.23" stop-color="#325289"/>
<stop offset="0.48" stop-color="#436AAD"/>
<stop offset="0.79" stop-color="#304B91"/>
<stop offset="1" stop-color="#273C83"/>
</linearGradient>
<linearGradient id="paint14_linear" x1="137.27" y1="32.4828" x2="147.009" y2="32.4828" gradientUnits="userSpaceOnUse">
<stop stop-color="#213864"/>
<stop offset="0.23" stop-color="#325289"/>
<stop offset="0.48" stop-color="#436AAD"/>
<stop offset="0.79" stop-color="#304B91"/>
<stop offset="1" stop-color="#273C83"/>
</linearGradient>
<linearGradient id="paint15_linear" x1="22.3743" y1="9.56385" x2="35.8274" y2="17.3311" gradientUnits="userSpaceOnUse">
<stop offset="0.48" stop-color="#436AAD"/>
<stop offset="0.56" stop-color="#4065A8"/>
<stop offset="1" stop-color="#2E4A8F"/>
</linearGradient>
<linearGradient id="paint16_linear" x1="30.6892" y1="30.3197" x2="33.6462" y2="32.029" gradientUnits="userSpaceOnUse">
<stop stop-color="#304D92"/>
<stop offset="1" stop-color="#2D498E"/>
</linearGradient>
<linearGradient id="paint17_linear" x1="30.0436" y1="36.1183" x2="34.7709" y2="38.8472" gradientUnits="userSpaceOnUse">
<stop stop-color="#304D92"/>
<stop offset="1" stop-color="#2D498E"/>
</linearGradient>
<linearGradient id="paint18_linear" x1="-3.67104" y1="6.35882" x2="49.0422" y2="36.7908" gradientUnits="userSpaceOnUse">
<stop stop-color="#213864"/>
<stop offset="0.23" stop-color="#325289"/>
<stop offset="0.48" stop-color="#436AAD"/>
<stop offset="0.79" stop-color="#304B91"/>
<stop offset="1" stop-color="#273C83"/>
</linearGradient>
<linearGradient id="paint19_linear" x1="21.9425" y1="50.5878" x2="28.0039" y2="50.5878" gradientUnits="userSpaceOnUse">
<stop stop-color="#304D92"/>
<stop offset="1" stop-color="#2D498E"/>
</linearGradient>
<linearGradient id="paint20_linear" x1="30.9001" y1="50.5808" x2="33.6645" y2="50.5808" gradientUnits="userSpaceOnUse">
<stop stop-color="#304D92"/>
<stop offset="1" stop-color="#2D498E"/>
</linearGradient>
<linearGradient id="paint21_linear" x1="36.6977" y1="50.5855" x2="40.6997" y2="50.5855" gradientUnits="userSpaceOnUse">
<stop stop-color="#304D92"/>
<stop offset="1" stop-color="#2D498E"/>
</linearGradient>
<linearGradient id="paint22_linear" x1="43.6239" y1="50.7976" x2="48.341" y2="50.7976" gradientUnits="userSpaceOnUse">
<stop stop-color="#304D92"/>
<stop offset="1" stop-color="#2D498E"/>
</linearGradient>
<linearGradient id="paint23_linear" x1="51.3413" y1="50.5855" x2="55.3433" y2="50.5855" gradientUnits="userSpaceOnUse">
<stop stop-color="#304D92"/>
<stop offset="1" stop-color="#2D498E"/>
</linearGradient>
<linearGradient id="paint24_linear" x1="58.412" y1="50.5829" x2="61.8459" y2="50.5829" gradientUnits="userSpaceOnUse">
<stop stop-color="#304D92"/>
<stop offset="1" stop-color="#2D498E"/>
</linearGradient>
<linearGradient id="paint25_linear" x1="64.94" y1="50.5855" x2="68.0087" y2="50.5855" gradientUnits="userSpaceOnUse">
<stop stop-color="#304D92"/>
<stop offset="1" stop-color="#2D498E"/>
</linearGradient>
<linearGradient id="paint26_linear" x1="70.9227" y1="50.5802" x2="74.9399" y2="50.5802" gradientUnits="userSpaceOnUse">
<stop stop-color="#304D92"/>
<stop offset="1" stop-color="#2D498E"/>
</linearGradient>
<linearGradient id="paint27_linear" x1="77.9858" y1="50.5856" x2="81.6987" y2="50.5856" gradientUnits="userSpaceOnUse">
<stop stop-color="#304D92"/>
<stop offset="1" stop-color="#2D498E"/>
</linearGradient>
<linearGradient id="paint28_linear" x1="84.3286" y1="50.4936" x2="88.4777" y2="50.4936" gradientUnits="userSpaceOnUse">
<stop stop-color="#304D92"/>
<stop offset="1" stop-color="#2D498E"/>
</linearGradient>
<linearGradient id="paint29_linear" x1="91.0722" y1="50.59" x2="94.7901" y2="50.59" gradientUnits="userSpaceOnUse">
<stop stop-color="#304D92"/>
<stop offset="1" stop-color="#2D498E"/>
</linearGradient>
<linearGradient id="paint30_linear" x1="102.246" y1="50.5957" x2="107.283" y2="50.5957" gradientUnits="userSpaceOnUse">
<stop stop-color="#304D92"/>
<stop offset="1" stop-color="#2D498E"/>
</linearGradient>
<linearGradient id="paint31_linear" x1="110.331" y1="50.5855" x2="114.333" y2="50.5855" gradientUnits="userSpaceOnUse">
<stop stop-color="#304D92"/>
<stop offset="1" stop-color="#2D498E"/>
</linearGradient>
<linearGradient id="paint32_linear" x1="117.433" y1="50.5808" x2="120.197" y2="50.5808" gradientUnits="userSpaceOnUse">
<stop stop-color="#304D92"/>
<stop offset="1" stop-color="#2D498E"/>
</linearGradient>
<linearGradient id="paint33_linear" x1="123.238" y1="50.6755" x2="128.234" y2="50.6755" gradientUnits="userSpaceOnUse">
<stop stop-color="#304D92"/>
<stop offset="1" stop-color="#2D498E"/>
</linearGradient>
<linearGradient id="paint34_linear" x1="131.125" y1="50.4885" x2="135.279" y2="50.4885" gradientUnits="userSpaceOnUse">
<stop stop-color="#304D92"/>
<stop offset="1" stop-color="#2D498E"/>
</linearGradient>
</defs>
</svg>
