<svg width="171" height="61" viewBox="0 0 171 61" fill="none" xmlns="http://www.w3.org/2000/svg">
<g clip-path="url(#clip0_3369_3076)">
<path d="M51.0434 0H0V48.8839H51.0434V0Z" fill="white"/>
<path fill-rule="evenodd" clip-rule="evenodd" d="M56.2372 21.0495C56.2009 21.2235 56.1407 21.3917 56.0583 21.5492C55.9846 21.6943 55.8865 21.8258 55.7684 21.9378C55.6737 22.0338 55.5454 22.0891 55.4106 22.092H55.2749V22.3697H59.124V22.092H58.9883C58.9182 22.0929 58.8487 22.0785 58.7848 22.0497C58.7209 22.0209 58.664 21.9785 58.6182 21.9255C58.5142 21.8086 58.427 21.6778 58.3591 21.5368C58.2828 21.3822 58.2268 21.2184 58.1925 21.0495C58.1573 20.8894 58.1387 20.726 58.137 20.5621V12.9988H66.927V20.5621C66.9251 20.726 66.9065 20.8893 66.8715 21.0495C66.8354 21.2235 66.7751 21.3917 66.6926 21.5492C66.6189 21.6943 66.5208 21.8258 66.4027 21.9378C66.308 22.0338 66.1797 22.0891 66.0449 22.092H65.9092V22.3697H69.7583V22.092H69.6226C69.5564 22.091 69.4912 22.0756 69.4315 22.0468C69.3719 22.018 69.3192 21.9766 69.2771 21.9255C69.173 21.8087 69.0858 21.6779 69.0181 21.5368C68.9418 21.381 68.8819 21.2177 68.8392 21.0495C68.796 20.8905 68.7732 20.7268 68.7713 20.5621V5.73778C68.7739 5.58816 68.7925 5.43925 68.8268 5.2936C68.8628 5.13066 68.9144 4.97157 68.9811 4.81858C69.0402 4.67645 69.1285 4.54827 69.2401 4.44227C69.3427 4.34311 69.4799 4.2878 69.6226 4.28804H69.7583V4.0166H65.9092V4.31889H66.0449C66.1876 4.31864 66.3247 4.37396 66.4273 4.47311C66.5421 4.58049 66.6362 4.70805 66.7049 4.84943C66.8437 5.13646 66.9194 5.44989 66.927 5.76862V12.0241H58.137V5.73778C58.1396 5.58816 58.1582 5.43925 58.1925 5.2936C58.2264 5.13085 58.276 4.97177 58.3406 4.81858C58.4005 4.67866 58.4887 4.55264 58.5997 4.44844C58.7076 4.35673 58.8469 4.31031 58.9883 4.31889H59.124V4.0166H55.2749V4.31889H55.4106C55.5533 4.31864 55.6904 4.37396 55.793 4.47311C55.9078 4.58049 56.0019 4.70805 56.0706 4.84943C56.2094 5.13646 56.2851 5.44989 56.2927 5.76862V20.5744C56.2899 20.7342 56.2713 20.8934 56.2372 21.0495Z" fill="white"/>
<path fill-rule="evenodd" clip-rule="evenodd" d="M83.2732 19.1247H82.9956C82.9874 19.3557 82.9459 19.5842 82.8723 19.8033C82.7897 20.0746 82.6602 20.3293 82.4898 20.5559C82.3218 20.796 82.113 21.0048 81.873 21.1729C81.6022 21.3446 81.2868 21.4326 80.9662 21.4258H74.9459V12.9556H79.5043C79.895 12.9388 80.2778 13.0686 80.5776 13.3196C80.7066 13.4236 80.8106 13.5552 80.8821 13.7046C80.9536 13.854 80.9908 14.0176 80.9909 14.1833H81.2685V10.7162H80.9909C80.9891 10.8909 80.9502 11.0631 80.8768 11.2215C80.8034 11.38 80.6972 11.5211 80.5653 11.6354C80.2771 11.8964 79.8991 12.0356 79.5105 12.0241H74.9459V4.99132H80.4974C80.7482 4.96971 81.0007 5.00202 81.238 5.08608C81.4752 5.17014 81.6917 5.304 81.873 5.47868C82.1595 5.78894 82.3333 6.18658 82.3665 6.60762H82.644V4.0166H72.0344V4.31889H72.1701C72.3128 4.31864 72.45 4.37396 72.5526 4.47311C72.6685 4.58241 72.7664 4.70943 72.8425 4.84943C72.925 4.99955 72.9892 5.15903 73.0337 5.32445C73.0756 5.46891 73.0984 5.61824 73.1016 5.76862V20.6176C73.1002 20.7783 73.0774 20.938 73.0337 21.0927C72.9893 21.2581 72.9251 21.4176 72.8425 21.5677C72.7665 21.7078 72.6687 21.8348 72.5526 21.944C72.45 22.0431 72.3128 22.0985 72.1701 22.0982H72.0344V22.3758H83.2732V19.1247Z" fill="white"/>
<path fill-rule="evenodd" clip-rule="evenodd" d="M87.5912 12.8076C88.0695 13.3173 88.6495 13.7208 89.2937 13.992C90.0026 14.2877 90.7647 14.4347 91.5328 14.4239C92.2121 14.4278 92.8854 14.2956 93.5128 14.0352C94.0383 13.8265 94.5356 13.553 94.9933 13.2209V20.6238C94.992 20.7837 94.9734 20.943 94.9377 21.0988C94.9016 21.265 94.8413 21.4251 94.7589 21.5738C94.6827 21.7138 94.5849 21.8409 94.4689 21.9502C94.3743 22.0462 94.246 22.1015 94.1112 22.1044H93.9755V22.382H97.9047V22.1044H97.6827C97.5445 22.0811 97.4183 22.0115 97.3249 21.907C97.2142 21.796 97.1207 21.6692 97.0473 21.5307C96.9714 21.3867 96.9154 21.2331 96.8808 21.0741C96.8464 20.9285 96.8278 20.7796 96.8253 20.63V5.73778C96.8272 5.59219 96.8458 5.4473 96.8808 5.30594C96.917 5.15135 96.973 5.00207 97.0473 4.86177C97.1206 4.7232 97.2141 4.59636 97.3249 4.48545C97.4183 4.38091 97.5445 4.31128 97.6827 4.28804H97.9047V4.0166H94.0063V4.31889H94.2284C94.3587 4.34006 94.4759 4.41079 94.5553 4.5163C94.6493 4.63115 94.728 4.75763 94.7897 4.89261C94.8539 5.03528 94.9035 5.1841 94.9377 5.33679C94.9725 5.47817 94.9911 5.62304 94.9933 5.76862V12.0241C94.5427 12.3449 94.0637 12.6237 93.5622 12.8569C93.0917 13.0889 92.5754 13.2132 92.0509 13.2209C91.5475 13.2195 91.049 13.1211 90.5829 12.9309C90.0984 12.7382 89.6547 12.4556 89.2752 12.0981C88.886 11.7287 88.57 11.2892 88.3437 10.8026C88.101 10.2813 87.9787 9.71199 87.986 9.13695V5.73778C87.9889 5.58738 88.0118 5.43803 88.0538 5.2936C88.0983 5.12816 88.1625 4.96868 88.245 4.81858C88.3211 4.67853 88.4189 4.5515 88.535 4.44227C88.6376 4.34311 88.7747 4.2878 88.9174 4.28804H89.0531V4.0166H85.2349V4.31889H85.3706C85.4307 4.32192 85.4896 4.33715 85.5437 4.36367C85.5978 4.39018 85.6459 4.42742 85.6852 4.47311C85.7898 4.58237 85.8734 4.70992 85.9319 4.84943C85.9961 5.00274 86.0457 5.16179 86.0799 5.32445C86.114 5.47014 86.1327 5.61902 86.1355 5.76862V8.99506C86.1309 9.71086 86.2563 10.4215 86.5056 11.0926C86.7513 11.73 87.1202 12.3128 87.5912 12.8076V12.8076Z" fill="white"/>
<path fill-rule="evenodd" clip-rule="evenodd" d="M111.679 21.0055C111.73 21.1585 111.758 21.3189 111.759 21.4805C111.759 21.8918 111.539 22.0974 111.099 22.0974H110.963V22.375H115.028V22.0974H114.892C114.71 22.0963 114.53 22.0465 114.373 21.9533C114.216 21.8601 114.087 21.7267 113.998 21.5669C113.775 21.2284 113.595 20.8637 113.461 20.4811L107.33 3.70117L101.038 20.6662C100.906 21.0329 100.716 21.3765 100.477 21.6841C100.4 21.8049 100.297 21.9067 100.175 21.9815C100.053 22.0564 99.916 22.1023 99.7736 22.1159H99.6379V22.3935H102.685V22.1159H102.549C102.47 22.1124 102.391 22.0919 102.32 22.0557C102.249 22.0195 102.186 21.9685 102.136 21.9062C102.002 21.7485 101.934 21.5453 101.945 21.3386C101.947 21.1952 101.974 21.0532 102.025 20.9191L104.418 14.2688H109.18L111.648 21.0548L111.679 21.0055ZM104.671 13.3065L106.787 7.49516L108.903 13.3065H104.671Z" fill="white"/>
<path fill-rule="evenodd" clip-rule="evenodd" d="M127.945 19.1247H127.686C127.677 19.3557 127.636 19.5842 127.562 19.8033C127.48 20.0746 127.35 20.3293 127.18 20.5559C127.012 20.796 126.803 21.0048 126.563 21.1729C126.292 21.3449 125.977 21.433 125.656 21.4258H119.642V12.9556H124.2C124.591 12.9388 124.974 13.0686 125.274 13.3196C125.403 13.4236 125.507 13.5552 125.578 13.7046C125.65 13.854 125.687 14.0176 125.687 14.1833H125.965V10.7162H125.687C125.685 10.8909 125.646 11.0631 125.573 11.2215C125.499 11.38 125.393 11.5211 125.261 11.6354C124.973 11.8964 124.595 12.0356 124.207 12.0241H119.648V4.99132H125.2C125.45 4.96971 125.703 5.00202 125.94 5.08608C126.177 5.17014 126.394 5.304 126.575 5.47868C126.861 5.7892 127.035 6.1867 127.069 6.60762H127.34V4.0166H116.681V4.31889H116.817C116.96 4.31864 117.097 4.37396 117.199 4.47311C117.315 4.58255 117.413 4.70955 117.489 4.84943C117.572 4.99962 117.636 5.15908 117.68 5.32445C117.722 5.46892 117.745 5.61824 117.748 5.76862V20.6176C117.747 20.7783 117.724 20.938 117.68 21.0927C117.636 21.2581 117.572 21.4175 117.489 21.5677C117.413 21.7077 117.315 21.8347 117.199 21.944C117.097 22.0431 116.96 22.0985 116.817 22.0982H116.681V22.3758H127.945V19.1247Z" fill="white"/>
<path fill-rule="evenodd" clip-rule="evenodd" d="M140.886 15.6143C140.759 15.09 140.535 14.5941 140.226 14.1523C139.894 13.6688 139.476 13.2506 138.992 12.9184C138.409 12.5383 137.754 12.2821 137.068 12.1658C137.391 11.9992 137.703 11.8096 137.999 11.5983C138.34 11.3566 138.649 11.0726 138.918 10.7531C139.208 10.4101 139.445 10.0253 139.621 9.61181C139.811 9.15452 139.905 8.66331 139.899 8.16825C139.914 7.58534 139.791 7.00714 139.54 6.48076C139.289 5.95439 138.918 5.49472 138.455 5.13922C137.292 4.32613 135.888 3.93044 134.471 4.01645H129.968V4.31873H130.103C130.251 4.32043 130.394 4.37516 130.504 4.47296C130.629 4.5821 130.732 4.71401 130.807 4.86161C130.887 5.01557 130.947 5.17941 130.986 5.34897C131.02 5.49466 131.038 5.64354 131.041 5.79315V20.599C131.039 20.7629 131.021 20.9262 130.986 21.0863C130.951 21.2568 130.89 21.4211 130.807 21.5737C130.728 21.7158 130.631 21.8465 130.517 21.9623C130.472 22.0129 130.417 22.0538 130.355 22.0824C130.294 22.1111 130.227 22.1269 130.159 22.1289H130.023V22.4065H134.958C135.729 22.4087 136.498 22.3154 137.246 22.1289C137.956 21.9587 138.627 21.6529 139.22 21.2282C139.8 20.8042 140.273 20.2508 140.602 19.6119C140.97 18.8558 141.147 18.0216 141.12 17.1813C141.117 16.6655 141.053 16.1519 140.929 15.6514L140.886 15.6143ZM132.861 4.93564H134.236C135.245 4.88396 136.236 5.22435 137 5.88568C137.347 6.21721 137.625 6.61523 137.815 7.0561C138.006 7.49696 138.106 7.97167 138.11 8.45203V8.6371C138.108 9.02542 138.051 9.41154 137.943 9.78455C137.824 10.1855 137.613 10.5531 137.327 10.858C137.002 11.2061 136.603 11.4778 136.161 11.6538C135.56 11.8792 134.921 11.984 134.279 11.9622H132.848V4.93564H132.861ZM139.233 17.6625C139.259 18.2018 139.156 18.7396 138.934 19.2318C138.713 19.7239 138.377 20.1565 137.956 20.4941C136.94 21.2089 135.711 21.5569 134.471 21.4812H132.879V12.8444H134.415C135.032 12.806 135.65 12.8898 136.235 13.091C136.819 13.2921 137.358 13.6066 137.82 14.0165C138.679 14.9156 139.187 16.0934 139.251 17.3355L139.233 17.6625Z" fill="white"/>
<path fill-rule="evenodd" clip-rule="evenodd" d="M56.1322 44.7071C56.0978 44.8772 56.044 45.0428 55.9719 45.2006C55.9067 45.3443 55.8145 45.4741 55.7005 45.5831C55.5991 45.6796 55.4641 45.7328 55.3242 45.7312H55.1885V46.0026H58.9697V45.7312H58.834C58.7632 45.7306 58.6933 45.7155 58.6286 45.6868C58.5639 45.6582 58.5057 45.6166 58.4577 45.5646C58.3481 45.4546 58.2602 45.3248 58.1986 45.1821C58.1334 45.0292 58.0838 44.87 58.0506 44.7071C58.0154 44.5491 57.9968 44.3878 57.9951 44.2259V28.9327H66.2237V44.2321C66.2219 44.3934 66.2075 44.5542 66.1805 44.7133C66.1555 44.8767 66.1099 45.0363 66.0448 45.1883C65.986 45.328 65.9047 45.4572 65.8043 45.5708C65.7632 45.6215 65.7115 45.6626 65.653 45.6914C65.5944 45.7201 65.5302 45.7358 65.465 45.7373H65.2244V46.0088H68.9995V45.7373H68.7836C68.7183 45.7362 68.654 45.7207 68.5954 45.6919C68.5367 45.6632 68.4852 45.6218 68.4443 45.5708C68.3416 45.4543 68.2602 45.3206 68.2038 45.176C68.141 45.0232 68.0955 44.8638 68.0681 44.7009C68.0412 44.5481 68.0268 44.3934 68.0249 44.2382V29.6668C68.029 29.5295 68.0476 29.3931 68.0804 29.2597C68.116 29.0974 68.1655 28.9384 68.2284 28.7847C68.2831 28.6354 68.3646 28.4974 68.469 28.3775C68.5092 28.3302 68.5593 28.2923 68.6158 28.2667C68.6724 28.2411 68.7339 28.2284 68.7959 28.2294H69.0118V27.958H55.1885V28.2294H55.3242C55.4561 28.2317 55.582 28.2847 55.6758 28.3775C55.788 28.4834 55.8799 28.6088 55.9472 28.7477C56.0191 28.8961 56.0769 29.051 56.1199 29.2103C56.1616 29.3527 56.1845 29.5 56.1878 29.6483V44.2074C56.1871 44.3755 56.1685 44.543 56.1322 44.7071Z" fill="white"/>
<path fill-rule="evenodd" clip-rule="evenodd" d="M82.0394 45.731H81.9037V46.0025H85.8947V45.731H85.7405C85.5617 45.7298 85.3865 45.6811 85.2326 45.5901C85.0788 45.4991 84.9518 45.3689 84.8646 45.2128C84.6465 44.88 84.4704 44.5216 84.3402 44.1456L78.2952 27.6494L72.1268 44.306C71.9952 44.6661 71.8079 45.0033 71.5717 45.3054C71.4968 45.4245 71.3955 45.5248 71.2758 45.5986C71.156 45.6724 71.0209 45.7177 70.8808 45.731H70.7451V46.0025H73.743V45.731H73.6072C73.5288 45.7282 73.4518 45.7085 73.3816 45.6734C73.3114 45.6383 73.2495 45.5885 73.2001 45.5275C73.0659 45.3723 72.9973 45.1709 73.0089 44.9661C73.0115 44.8267 73.0386 44.6888 73.0891 44.5589L75.4393 38.032H80.1642L82.5946 44.6699C82.6456 44.819 82.6726 44.9751 82.6748 45.1326C82.6748 45.5439 82.4692 45.7495 82.0579 45.7495L82.0394 45.731ZM75.723 37.0943L77.8018 31.3879L79.8805 37.0943H75.723Z" fill="white"/>
<path fill-rule="evenodd" clip-rule="evenodd" d="M91.2921 37.2611C92.032 37.259 92.7677 37.1488 93.4757 36.9341C94.1799 36.727 94.8463 36.4083 95.4496 35.9902C96.0153 35.5899 96.4902 35.0749 96.8437 34.4788C97.3306 33.6116 97.4961 32.6004 97.3111 31.6232C97.1261 30.646 96.6023 29.7654 95.8321 29.1364C94.7958 28.3632 93.2804 27.9766 91.286 27.9766H87.4554V28.248H87.5911C87.7338 28.2756 87.8664 28.3412 87.9749 28.4378C88.0835 28.5344 88.164 28.6585 88.2079 28.7971C88.3391 29.0712 88.4125 29.3694 88.4238 29.6731V44.2321C88.4218 44.394 88.4032 44.5552 88.3683 44.7133C88.3349 44.8777 88.281 45.0373 88.2079 45.1883C88.1385 45.3296 88.0469 45.4587 87.9365 45.5708C87.8925 45.6212 87.8386 45.6621 87.7781 45.6907C87.7176 45.7194 87.6518 45.7353 87.5849 45.7374H87.4492V46.0088H91.2243V45.7374H91.0886C91.0194 45.7378 90.9511 45.7231 90.8882 45.6943C90.8253 45.6655 90.7695 45.6234 90.7246 45.5708C90.6197 45.4542 90.5287 45.3259 90.4532 45.1883C90.3719 45.0397 90.3137 44.8795 90.2805 44.7133C90.2454 44.5553 90.2268 44.394 90.225 44.2321V37.2611H91.2921ZM90.2435 28.9328H90.6259C91.4148 28.9145 92.2017 29.0207 92.9576 29.2474C93.5211 29.4187 94.0423 29.7067 94.4873 30.0926C94.8628 30.4298 95.1507 30.8532 95.3262 31.3264C95.5005 31.8026 95.5882 32.3061 95.5853 32.8131C95.5842 33.2577 95.483 33.6962 95.2892 34.0963C95.0813 34.5274 94.785 34.91 94.4195 35.2191C93.9981 35.5691 93.5148 35.8369 92.9946 36.0087C92.3707 36.2185 91.7158 36.3207 91.0577 36.311H90.2435V28.9328Z" fill="white"/>
<path fill-rule="evenodd" clip-rule="evenodd" d="M108.835 28.9945C109.098 28.9892 109.358 29.0553 109.587 29.1857C109.798 29.3069 109.982 29.4683 110.13 29.6607C110.273 29.8466 110.384 30.0551 110.457 30.2776C110.526 30.4951 110.562 30.7219 110.562 30.9501H110.833V27.9766H98.6941V30.9562H98.9655C98.9675 30.7277 99.005 30.5009 99.0765 30.2838C99.1478 30.0615 99.2563 29.8529 99.3973 29.6669C99.5453 29.4745 99.7298 29.3131 99.9401 29.1919C100.171 29.0604 100.433 28.9943 100.699 29.0006H103.826V44.226C103.824 44.3878 103.805 44.5491 103.771 44.7071C103.737 44.8732 103.679 45.0334 103.598 45.1822C103.521 45.322 103.426 45.4507 103.314 45.5647C103.266 45.6166 103.208 45.6582 103.143 45.6869C103.079 45.7155 103.009 45.7306 102.938 45.7312H102.802V46.0027H106.633V45.7312H106.497C106.428 45.7316 106.36 45.7169 106.297 45.6881C106.234 45.6594 106.178 45.6172 106.133 45.5647C106.028 45.448 105.937 45.3197 105.862 45.1822C105.78 45.0335 105.722 44.8733 105.689 44.7071C105.654 44.5491 105.635 44.3878 105.634 44.226V28.9945H108.835Z" fill="white"/>
<path fill-rule="evenodd" clip-rule="evenodd" d="M125.94 29.2347C125.974 29.0762 126.024 28.9212 126.088 28.7721C126.148 28.6321 126.236 28.506 126.347 28.4019C126.449 28.3059 126.584 28.2529 126.723 28.2539H126.859V27.9824H123.084V28.2539H123.22C123.36 28.2529 123.494 28.3059 123.596 28.4019C123.708 28.5078 123.8 28.6332 123.867 28.7721C123.939 28.9195 123.993 29.0748 124.028 29.2347C124.062 29.3783 124.081 29.5252 124.083 29.6728V35.8418H115.448V29.6728C115.45 29.5252 115.469 29.3783 115.503 29.2347C115.538 29.0762 115.587 28.9213 115.651 28.7721C115.71 28.6317 115.799 28.5055 115.91 28.4019C116.012 28.3054 116.147 28.2523 116.286 28.2539H116.422V27.9824H112.635V28.2539H112.77C112.91 28.2529 113.045 28.3059 113.147 28.4019C113.259 28.5078 113.351 28.6332 113.418 28.7721C113.49 28.9193 113.544 29.0747 113.579 29.2347C113.613 29.3784 113.631 29.5252 113.634 29.6728V44.2318C113.632 44.3937 113.613 44.5549 113.579 44.713C113.545 44.8849 113.486 45.051 113.406 45.2065C113.334 45.3494 113.238 45.4787 113.122 45.589C113.029 45.6824 112.903 45.7355 112.77 45.7371H112.635V46.0085H116.41V45.7371H116.274C116.205 45.7379 116.136 45.7234 116.073 45.6946C116.011 45.6658 115.955 45.6234 115.91 45.5705C115.806 45.4559 115.719 45.3271 115.651 45.188C115.578 45.037 115.524 44.8775 115.491 44.713C115.455 44.555 115.437 44.3937 115.435 44.2318V36.8289H124.071V44.2318C124.069 44.3937 124.051 44.555 124.015 44.713C123.981 44.8847 123.923 45.0507 123.843 45.2065C123.77 45.3491 123.674 45.4784 123.559 45.589C123.465 45.6818 123.339 45.7349 123.207 45.7371H123.072V46.0085H126.847V45.7371H126.711C126.646 45.736 126.581 45.7205 126.523 45.6917C126.464 45.6629 126.413 45.6215 126.372 45.5705C126.267 45.4561 126.18 45.3273 126.113 45.188C126.039 45.036 125.981 44.8768 125.94 44.713C125.897 44.5562 125.874 44.3945 125.872 44.2318V29.6666C125.879 29.5206 125.902 29.3758 125.94 29.2347Z" fill="white"/>
<path fill-rule="evenodd" clip-rule="evenodd" d="M140.158 42.8071H139.887C139.863 43.315 139.689 43.8045 139.387 44.2136C139.22 44.4543 139.011 44.6632 138.77 44.8305C138.505 44.9986 138.196 45.0845 137.882 45.0773H131.973V36.7737H136.451C136.835 36.7574 137.211 36.885 137.506 37.1315C137.632 37.2333 137.734 37.3619 137.805 37.5081C137.875 37.6543 137.912 37.8144 137.913 37.9767H138.172V34.5466H137.9C137.9 34.7182 137.862 34.8876 137.79 35.0431C137.717 35.1986 137.612 35.3365 137.481 35.4473C137.198 35.7038 136.827 35.8408 136.445 35.8298H131.966V28.9328H137.388C137.634 28.9111 137.882 28.9423 138.115 29.0242C138.348 29.1062 138.561 29.2369 138.739 29.4078C139.021 29.7111 139.192 30.0999 139.227 30.5121H139.498V27.9766H129.098V28.248H129.234C129.374 28.2471 129.508 28.3001 129.61 28.3961C129.724 28.5037 129.819 28.6286 129.894 28.7662C129.976 28.9121 130.04 29.0675 130.085 29.2289C130.127 29.3712 130.15 29.5185 130.153 29.6669V44.2815C130.151 44.438 130.128 44.5937 130.085 44.7442C130.04 44.9056 129.976 45.061 129.894 45.2068C129.82 45.3447 129.724 45.4697 129.61 45.577C129.509 45.6735 129.374 45.7266 129.234 45.725H129.098V45.9965H140.158V42.8071Z" fill="white"/>
<path fill-rule="evenodd" clip-rule="evenodd" d="M145.962 37.2611C146.7 37.2584 147.434 37.1483 148.14 36.9341C148.846 36.7275 149.515 36.4088 150.12 35.9902C150.697 35.5914 151.183 35.0741 151.545 34.4726C152.027 33.6033 152.188 32.5917 151.998 31.6157C151.809 30.6397 151.281 29.7618 150.509 29.1364C149.472 28.3632 147.957 27.9766 145.962 27.9766H142.132V28.248H142.268C142.41 28.2756 142.543 28.3412 142.651 28.4378C142.76 28.5344 142.84 28.6585 142.884 28.7971C143.016 29.0712 143.089 29.3694 143.1 29.6731V44.2321C143.098 44.394 143.08 44.5552 143.045 44.7133C143.011 44.8777 142.957 45.0373 142.884 45.1883C142.815 45.3296 142.723 45.4588 142.613 45.5708C142.569 45.6212 142.515 45.6621 142.455 45.6907C142.394 45.7194 142.328 45.7353 142.261 45.7374H142.126V46.0088H145.901V45.7374H145.765C145.696 45.7378 145.628 45.7231 145.565 45.6943C145.502 45.6655 145.446 45.6234 145.401 45.5708C145.296 45.4542 145.205 45.3259 145.13 45.1883C145.048 45.0397 144.99 44.8795 144.957 44.7133C144.922 44.5553 144.903 44.394 144.902 44.2321V37.2611H145.962ZM144.957 28.9328H145.339C146.128 28.9144 146.915 29.0206 147.671 29.2474C148.235 29.4186 148.756 29.7065 149.201 30.0926C149.577 30.429 149.865 30.8526 150.04 31.3264C150.214 31.8026 150.302 32.3061 150.299 32.8131C150.298 33.2577 150.196 33.6962 150.003 34.0963C149.795 34.5275 149.499 34.9101 149.133 35.2191C148.712 35.5691 148.228 35.8369 147.708 36.0087C147.084 36.2185 146.429 36.3207 145.771 36.311H144.957V28.9328Z" fill="white"/>
<path fill-rule="evenodd" clip-rule="evenodd" d="M170.056 29.2474C170.09 29.0967 170.14 28.9499 170.204 28.8094C170.265 28.6743 170.346 28.5494 170.445 28.4392C170.531 28.3366 170.652 28.2687 170.784 28.248H171V27.9766H167.194V28.248H167.33C167.47 28.2464 167.605 28.2995 167.706 28.3961C167.819 28.5014 167.911 28.6269 167.977 28.7662C168.049 28.9134 168.103 29.0687 168.138 29.2289C168.172 29.3725 168.191 29.5193 168.193 29.6669V44.226C168.191 44.3878 168.173 44.5491 168.138 44.7071C168.104 44.8773 168.05 45.0429 167.977 45.2007C167.912 45.3443 167.82 45.4742 167.706 45.5832C167.605 45.6797 167.47 45.7328 167.33 45.7312H167.194V46.0027H171V45.7312H170.809C170.679 45.7118 170.559 45.6487 170.47 45.5523C170.362 45.4409 170.274 45.3114 170.21 45.1698C170.14 45.0178 170.086 44.8585 170.05 44.6948C170.015 44.5431 169.996 44.3879 169.995 44.2321V29.6669C169.999 29.5252 170.02 29.3844 170.056 29.2474V29.2474Z" fill="white"/>
<path fill-rule="evenodd" clip-rule="evenodd" d="M155.363 44.7506C155.32 44.9099 155.262 45.0648 155.19 45.2133C155.124 45.3525 155.032 45.4781 154.919 45.5834C154.826 45.6768 154.699 45.7299 154.567 45.7315H154.432V46.0029H159.144C159.98 46.0086 160.812 45.888 161.612 45.6451C162.333 45.4326 163.007 45.0851 163.598 44.621C164.15 44.1816 164.6 43.6281 164.918 42.9986C165.25 42.328 165.417 41.5877 165.405 40.8394C165.434 39.9815 165.238 39.1309 164.838 38.3717C164.474 37.7232 163.96 37.1711 163.339 36.7616C162.688 36.3394 161.964 36.0423 161.205 35.8856C160.394 35.711 159.567 35.6241 158.737 35.6265H157.226V29.7535C157.24 29.4383 157.313 29.1286 157.442 28.8405C157.586 28.4868 157.791 28.2812 158.059 28.2236H158.25V27.9521H154.444V28.2236H154.58C154.647 28.2257 154.712 28.2416 154.773 28.2703C154.833 28.2989 154.887 28.3397 154.931 28.3902C155.043 28.5041 155.138 28.6328 155.215 28.7726C155.3 28.9269 155.36 29.0934 155.394 29.2662C155.427 29.4183 155.446 29.5732 155.449 29.7288V44.2879C155.446 44.4363 155.424 44.5836 155.382 44.7259L155.363 44.7506ZM157.214 36.558H158.102C159.866 36.558 161.202 36.9693 162.111 37.7918C162.557 38.1883 162.91 38.6778 163.145 39.2257C163.381 39.7736 163.493 40.3666 163.475 40.9628C163.5 41.5355 163.39 42.1062 163.153 42.6283C162.916 43.1504 162.559 43.6091 162.111 43.9671C161.219 44.6786 159.73 45.0344 157.645 45.0344H157.238L157.214 36.558Z" fill="white"/>
<path fill-rule="evenodd" clip-rule="evenodd" d="M35.4249 23.0044C36.7107 22.5751 37.9051 21.9098 38.9471 21.0426C39.8556 20.2697 40.593 19.3158 41.1122 18.2419C41.6021 17.2322 41.8593 16.1254 41.8647 15.0031C41.8806 13.7424 41.6718 12.489 41.2479 11.3016C40.802 10.1192 40.0785 9.06133 39.1383 8.21709C38.0342 7.25911 36.7421 6.54256 35.3448 6.11343C33.5027 5.56308 31.5857 5.30496 29.6637 5.34846H28.3313V23.7324H30.6815C32.2923 23.7585 33.896 23.5124 35.4249 23.0044V23.0044Z" fill="url(#paint0_linear_3369_3076)"/>
<path fill-rule="evenodd" clip-rule="evenodd" d="M37.7812 34.9668C37.6916 34.6861 37.5539 34.423 37.3741 34.1895C37.1907 33.96 36.9618 33.771 36.7018 33.6343C36.4077 33.4889 36.0757 33.4387 35.7518 33.4906C35.4279 33.5426 35.1283 33.6941 34.8944 33.9242C34.6574 34.2419 34.5162 34.6208 34.4873 35.0162V35.2136C34.4782 35.2604 34.4782 35.3086 34.4873 35.3555V35.3555C34.6047 35.8466 34.8568 36.2953 35.2152 36.651C35.6151 37.086 36.0393 37.4979 36.4859 37.8848C36.9123 37.7053 37.2754 37.4024 37.5283 37.0149C37.7684 36.6677 37.9033 36.2586 37.917 35.8366C37.9165 35.5415 37.8708 35.2481 37.7812 34.9668V34.9668Z" fill="url(#paint1_linear_3369_3076)"/>
<path fill-rule="evenodd" clip-rule="evenodd" d="M33.7349 43.3261C33.8866 43.6562 34.0955 43.957 34.3518 44.2145C34.6235 44.4858 34.9409 44.7072 35.2894 44.8684C35.6511 45.0373 36.0438 45.1297 36.4429 45.1398C37.1093 45.1346 37.7571 44.9187 38.2934 44.5229C38.9106 44.0761 39.4556 43.5372 39.9095 42.9251L37.8246 41.1608L35.678 39.3594C35.0297 39.6623 34.4724 40.1304 34.0619 40.7166C33.7211 41.1971 33.532 41.7686 33.519 42.3576C33.522 42.692 33.5956 43.0221 33.7349 43.3261V43.3261Z" fill="url(#paint2_linear_3369_3076)"/>
<path fill-rule="evenodd" clip-rule="evenodd" d="M51.0434 0H0V49.143H51.0434V0ZM28.4671 43.3996C28.5583 43.8318 28.7143 44.2478 28.9297 44.6334C29.1145 44.9986 29.3423 45.3403 29.6083 45.6513C29.7298 45.7895 29.8736 45.9063 30.0339 45.9968H24.7044L10.1717 9.20429L10.2704 42.1843C10.2721 42.5992 10.3176 43.0127 10.4061 43.4181C10.4975 43.8502 10.6535 44.2662 10.8687 44.6519C11.0676 45.0179 11.3168 45.3543 11.6089 45.6513C11.7374 45.7819 11.8851 45.8922 12.0469 45.9783H4.93471C5.09878 45.8899 5.25023 45.78 5.385 45.6513C5.7046 45.3661 5.97 45.0254 6.16839 44.6457C6.35866 44.2509 6.5075 43.8374 6.61251 43.4119C6.72196 43.0096 6.78 42.595 6.78522 42.1781V7.52013C6.78323 7.14788 6.75022 6.77645 6.68653 6.40969C6.62051 5.98104 6.48946 5.56498 6.29792 5.17587C6.09436 4.7821 5.80569 4.4386 5.45285 4.17031C5.31888 4.06341 5.17168 3.97425 5.0149 3.90504H10.1162L24.8154 41.2095L24.8524 7.52629C24.8247 6.74813 24.6379 5.9839 24.3034 5.28074C24.0828 4.69633 23.6576 4.21187 23.1068 3.91737H31.2429C35.8815 3.91737 39.4407 4.81806 41.8217 6.60093C44.2027 8.3838 45.3438 10.8761 45.3438 14.0964C45.3679 15.7328 44.9411 17.3442 44.1101 18.754C43.2794 20.1218 42.1696 21.299 40.8532 22.2087C39.4499 23.1771 37.9005 23.9144 36.2639 24.3926C34.6199 24.8926 32.9118 25.1503 31.1935 25.1576H28.3314V42.1781C28.333 42.593 28.3785 43.0066 28.4671 43.4119V43.3996ZM46.1704 45.9783H44.9367C44.4464 45.9845 43.9618 45.8724 43.5241 45.6513C43.1343 45.453 42.7645 45.2175 42.42 44.948L40.5695 43.4983C39.9999 44.3042 39.2689 44.9828 38.4229 45.4909C37.6302 45.9135 36.7425 46.1259 35.8445 46.1078C35.2872 46.1161 34.7332 46.022 34.2099 45.8302C33.7547 45.6625 33.3359 45.4091 32.9762 45.0837C32.6426 44.7766 32.3777 44.4024 32.199 43.9856C32.0234 43.5763 31.9332 43.1355 31.9337 42.6901C31.9307 41.8345 32.1961 40.9996 32.6924 40.3027C33.2628 39.58 33.9963 39.0028 34.8329 38.6185C34.3371 38.1947 33.8994 37.7073 33.5313 37.1688C33.1897 36.6683 33.0031 36.0782 32.9947 35.4723C32.9932 35.0764 33.0708 34.6842 33.2229 34.3187C33.3635 33.9624 33.5731 33.6374 33.8398 33.3625C34.122 33.0808 34.4547 32.8548 34.8205 32.6962C35.2101 32.5295 35.6306 32.4475 36.0542 32.4556C36.5289 32.4466 37 32.5391 37.4359 32.727C37.8162 32.8953 38.1598 33.1363 38.4475 33.4365C38.7208 33.7299 38.9307 34.0764 39.0644 34.4544C39.1986 34.8264 39.2674 35.2187 39.2679 35.6142C39.2522 36.183 39.0885 36.738 38.793 37.2243C38.4352 37.7997 37.9417 38.2784 37.3557 38.6185L39.0521 40.0498C39.6319 40.5433 40.224 41.0306 40.8039 41.4933C41.0111 41.0415 41.1863 40.5756 41.3282 40.0991C41.4886 39.5747 41.6243 39.0874 41.7168 38.6494C41.8145 38.2798 41.8907 37.9049 41.945 37.5266C41.9759 37.1935 41.9944 36.9652 41.9944 36.8233C41.9921 36.6884 41.9367 36.5598 41.8402 36.4655C41.801 36.4177 41.7522 36.3786 41.697 36.351C41.6417 36.3233 41.5812 36.3077 41.5194 36.3051H41.3282V35.7807H43.6722V36.2989H43.518C43.4046 36.3107 43.2993 36.3633 43.2219 36.447C43.1149 36.5435 43.045 36.6745 43.0245 36.8172C42.9478 37.5054 42.8345 38.1891 42.6852 38.8653C42.5569 39.4611 42.3984 40.05 42.2103 40.6297C42.0455 41.1598 41.8198 41.669 41.5379 42.1472C41.7723 42.3632 42.019 42.5853 42.2781 42.8073L43.1787 43.523L44.0238 44.2201C44.3013 44.4607 44.5604 44.6704 44.801 44.837C45.0174 44.9907 45.2418 45.1328 45.4733 45.2626C45.6405 45.3679 45.8314 45.4294 46.0285 45.4415H46.1827L46.1704 45.9783Z" fill="url(#paint3_linear_3369_3076)"/>
<path fill-rule="evenodd" clip-rule="evenodd" d="M148.14 60.1983C148.087 60.1981 148.035 60.1837 147.989 60.1566C147.944 60.1295 147.906 60.0906 147.881 60.044C147.817 59.946 147.765 59.8403 147.727 59.7294L145.944 54.8682L144.124 59.8034C144.087 59.9098 144.032 60.0097 143.964 60.0996C143.942 60.1342 143.912 60.1634 143.876 60.1848C143.841 60.2061 143.801 60.2192 143.76 60.2229H143.723V60.3031H144.605V60.2229H144.568C144.546 60.2216 144.523 60.2154 144.503 60.2048C144.483 60.1941 144.465 60.1793 144.451 60.1612C144.412 60.115 144.392 60.0553 144.396 59.9947C144.389 59.9559 144.389 59.9163 144.396 59.8775L145.087 57.9527H146.474L147.19 59.9083C147.197 59.9533 147.197 59.9991 147.19 60.044C147.19 60.1612 147.128 60.2229 146.999 60.2229H146.962V60.3031H148.14V60.2229V60.1983ZM145.185 57.6566L145.802 55.9786L146.419 57.6566H145.185Z" fill="white"/>
<path fill-rule="evenodd" clip-rule="evenodd" d="M28.72 55.7067C28.4946 55.4465 28.2172 55.2364 27.9057 55.0898C27.5555 54.9487 27.1787 54.8856 26.8016 54.9047C26.4498 54.8999 26.1009 54.9692 25.7777 55.1083C25.4851 55.2363 25.2193 55.4183 24.9943 55.645C24.7732 55.869 24.5899 56.1273 24.4515 56.41C24.3124 56.69 24.2167 56.9895 24.1677 57.2983H23.6434V55.4661C23.639 55.4272 23.639 55.3878 23.6434 55.3489C23.6541 55.3017 23.6706 55.2561 23.6927 55.2132C23.7121 55.1729 23.737 55.1355 23.7668 55.1021C23.7922 55.0727 23.8271 55.053 23.8655 55.0466H23.9271V54.9664H22.823V55.0466H22.86C22.8785 55.0467 22.8968 55.0506 22.9138 55.058C22.9308 55.0654 22.9461 55.0762 22.9587 55.0898C22.9892 55.1225 23.0142 55.16 23.0327 55.2008C23.0533 55.2445 23.0698 55.2899 23.0821 55.3365C23.0876 55.3796 23.0876 55.4231 23.0821 55.4661V59.7536C23.0868 59.8008 23.0868 59.8483 23.0821 59.8955C23.0715 59.9446 23.0549 59.9923 23.0327 60.0374C23.0131 60.0775 22.9882 60.1149 22.9587 60.1484C22.9466 60.1631 22.9316 60.1751 22.9146 60.1836C22.8976 60.1921 22.879 60.1969 22.86 60.1978H22.823V60.278H23.9456V60.1978H23.8901C23.8702 60.1974 23.8505 60.1928 23.8324 60.1843C23.8144 60.1758 23.7983 60.1636 23.7853 60.1484C23.7522 60.1141 23.7251 60.0745 23.7051 60.0312C23.6847 59.9854 23.6682 59.9379 23.6557 59.8893C23.6498 59.8443 23.6498 59.7987 23.6557 59.7536V57.5574H24.1554V57.6808C24.155 58.0234 24.2134 58.3635 24.3281 58.6864C24.4364 58.9992 24.6039 59.2882 24.8216 59.5377C25.0579 59.8015 25.3482 60.0113 25.6729 60.1529C25.9975 60.2945 26.3488 60.3645 26.7029 60.3582C27.0645 60.3605 27.4229 60.2913 27.7577 60.1546C28.0778 60.0232 28.3691 59.8304 28.6151 59.5871C28.8635 59.3392 29.0587 59.0432 29.1888 58.7172C29.3284 58.3639 29.3976 57.9867 29.3923 57.6068C29.3926 57.2561 29.3342 56.9079 29.2196 56.5765C29.111 56.2556 28.939 55.9598 28.7138 55.7067H28.72ZM28.72 58.5198C28.6481 58.7864 28.5313 59.0389 28.3745 59.2663C28.1916 59.5123 27.9547 59.7131 27.682 59.8532C27.4093 59.9933 27.1081 60.069 26.8016 60.0744C26.4875 60.0806 26.1779 59.9995 25.9072 59.84C25.6441 59.6813 25.4155 59.4715 25.2348 59.2231C25.0451 58.9798 24.8971 58.7067 24.7969 58.4149C24.7112 58.1415 24.6696 57.8562 24.6735 57.5698C24.6755 57.2934 24.7192 57.0188 24.803 56.7554C24.8903 56.478 25.0238 56.2173 25.1978 55.9843C25.3639 55.7562 25.5736 55.5633 25.8147 55.4167C26.0793 55.2657 26.3798 55.1889 26.6844 55.1947C27.0015 55.1896 27.3143 55.2683 27.5912 55.4229C27.8576 55.5794 28.0886 55.7895 28.2697 56.0398C28.4571 56.2859 28.603 56.5609 28.7015 56.8541C28.7991 57.1423 28.8491 57.4444 28.8495 57.7487C28.8496 58.0072 28.8144 58.2646 28.7446 58.5136L28.72 58.5198Z" fill="white"/>
<path fill-rule="evenodd" clip-rule="evenodd" d="M35.203 55.3123C34.8043 55.0594 34.3353 54.9405 33.8644 54.973H32.7356V55.0532H32.7726C32.815 55.0609 32.8545 55.0799 32.8871 55.1081C32.9196 55.1363 32.944 55.1728 32.9577 55.2136C32.9968 55.2945 33.0179 55.3829 33.0193 55.4727V59.7602C33.024 59.8074 33.024 59.8549 33.0193 59.9021C33.0087 59.9513 32.9922 59.9989 32.97 60.044C32.9493 60.085 32.9222 60.1225 32.8898 60.1551C32.8768 60.1702 32.8607 60.1824 32.8426 60.1909C32.8246 60.1994 32.8049 60.204 32.7849 60.2044H32.7479V60.2846H33.8582V60.2044H33.8212C33.8013 60.204 33.7816 60.1994 33.7635 60.1909C33.7455 60.1824 33.7294 60.1702 33.7164 60.1551C33.6856 60.1211 33.6587 60.0839 33.6362 60.044C33.6125 59.9996 33.5959 59.9517 33.5868 59.9021C33.5817 59.855 33.5817 59.8074 33.5868 59.7602V57.7059H33.8891C34.0983 57.702 34.3059 57.6688 34.5059 57.6072C34.7128 57.5463 34.9086 57.4526 35.0858 57.3296C35.2555 57.213 35.3985 57.0616 35.5052 56.8854C35.6509 56.6308 35.7011 56.3326 35.6469 56.0443C35.5926 55.756 35.4374 55.4965 35.2091 55.3123H35.203ZM35.0426 56.7559C34.9821 56.8814 34.896 56.9928 34.7897 57.0828C34.6659 57.1867 34.5236 57.2662 34.3702 57.3173C34.1853 57.3787 33.9913 57.4079 33.7966 57.4036H33.556V55.2506H33.667C33.8987 55.2453 34.1298 55.2765 34.3517 55.3432C34.5175 55.3929 34.6709 55.477 34.802 55.5899C34.9123 55.6897 34.9969 55.8145 35.0487 55.9539C35.0997 56.0942 35.1248 56.2426 35.1228 56.3919C35.1226 56.5176 35.0953 56.6418 35.0426 56.7559V56.7559Z" fill="white"/>
<path fill-rule="evenodd" clip-rule="evenodd" d="M42.3214 55.047H42.3584C42.3996 55.0466 42.4393 55.0621 42.4694 55.0902C42.5039 55.1224 42.5331 55.1599 42.5558 55.2012C42.5787 55.2438 42.5953 55.2896 42.6051 55.3369C42.6097 55.38 42.6097 55.4234 42.6051 55.4665V55.5714L39.965 59.1803V55.4788C39.9662 55.3909 39.9873 55.3044 40.0267 55.2259C40.0463 55.1857 40.0712 55.1484 40.1007 55.1149C40.1258 55.085 40.1609 55.0652 40.1994 55.0593H40.2611V54.9668H39.157V55.047H39.194C39.2352 55.0466 39.2749 55.0621 39.305 55.0902C39.3394 55.1225 39.3685 55.16 39.3914 55.2012C39.4141 55.2439 39.4307 55.2896 39.4407 55.3369C39.4453 55.38 39.4453 55.4234 39.4407 55.4665V59.754C39.4456 59.8012 39.4456 59.8487 39.4407 59.8959C39.4306 59.9452 39.414 59.9929 39.3914 60.0378C39.3691 60.0794 39.3399 60.117 39.305 60.1488C39.2749 60.177 39.2352 60.1924 39.194 60.192H39.157V60.2722H40.2858V60.192H40.2488C40.2279 60.1917 40.2073 60.1872 40.1882 60.1787C40.1691 60.1703 40.152 60.158 40.1378 60.1427C40.105 60.1104 40.0779 60.0728 40.0576 60.0316C40.0363 59.9861 40.0198 59.9386 40.0082 59.8897C40.0022 59.8426 40.0022 59.795 40.0082 59.7478V59.6738L42.6483 56.0649V59.7664C42.653 59.8135 42.653 59.8611 42.6483 59.9082C42.6384 59.9576 42.6218 60.0053 42.5989 60.0501C42.5767 60.0918 42.5475 60.1294 42.5126 60.1612C42.4825 60.1893 42.4427 60.2048 42.4015 60.2044H42.3645V60.2846H43.4934V60.2044H43.4563C43.4355 60.2041 43.4149 60.1996 43.3958 60.1911C43.3767 60.1826 43.3595 60.1703 43.3453 60.155C43.3121 60.1208 43.285 60.0811 43.2651 60.0378C43.2447 59.992 43.2282 59.9445 43.2158 59.8959C43.2098 59.8509 43.2098 59.8052 43.2158 59.7602V55.4665C43.2101 55.4235 43.2101 55.3799 43.2158 55.3369C43.228 55.2903 43.2446 55.2449 43.2651 55.2012C43.2848 55.1596 43.312 55.122 43.3453 55.0902C43.3754 55.0621 43.4152 55.0466 43.4563 55.047H43.4934V54.9668H42.3214V55.047Z" fill="white"/>
<path fill-rule="evenodd" clip-rule="evenodd" d="M51.3581 59.8959C51.2947 59.8309 51.2426 59.7559 51.2039 59.6738L49.3533 54.8496L47.5028 59.6985C47.4859 59.7813 47.4412 59.8558 47.3762 59.9097C47.3111 59.9635 47.2295 59.9935 47.1451 59.9946H46.7935V61.0002H46.8798C46.8889 60.9215 46.9097 60.8445 46.9415 60.7719C46.976 60.6881 47.0217 60.6092 47.0772 60.5375C47.1329 60.4658 47.1995 60.4034 47.2746 60.3524C47.3472 60.3029 47.4334 60.277 47.5213 60.2784H51.1977C51.2854 60.2782 51.3713 60.3039 51.4444 60.3524C51.5199 60.4005 51.5866 60.461 51.6418 60.5313C51.6968 60.6046 51.7405 60.6857 51.7713 60.7719C51.8005 60.8472 51.8192 60.9261 51.8269 61.0064H51.907V59.9946H51.574C51.5321 59.9948 51.4906 59.9861 51.4523 59.9691C51.4141 59.9521 51.3798 59.9272 51.3519 59.8959H51.3581ZM47.7125 59.9946L49.2361 55.9971L50.7721 59.9946H47.7125Z" fill="white"/>
<path fill-rule="evenodd" clip-rule="evenodd" d="M58.5379 55.047H58.5996C58.6408 55.0466 58.6805 55.0621 58.7106 55.0902C58.7451 55.1224 58.7743 55.1599 58.797 55.2012C58.8199 55.2438 58.8365 55.2896 58.8463 55.3369C58.8509 55.38 58.8509 55.4234 58.8463 55.4665V55.5714L56.2063 59.1803V55.4788C56.2016 55.4378 56.2016 55.3964 56.2063 55.3555C56.2172 55.3104 56.2338 55.2669 56.2556 55.2259C56.2753 55.1858 56.3002 55.1484 56.3296 55.1149C56.355 55.0854 56.39 55.0657 56.4283 55.0593H56.49V54.9668H55.3735V55.047H55.4105C55.4517 55.0466 55.4915 55.0621 55.5216 55.0902C55.5539 55.1228 55.5809 55.1603 55.6018 55.2012C55.6247 55.2438 55.6413 55.2896 55.6511 55.3369C55.6557 55.38 55.6557 55.4234 55.6511 55.4665V59.754C55.656 59.8012 55.656 59.8487 55.6511 59.8959C55.6412 59.9452 55.6246 59.993 55.6018 60.0378C55.5814 60.079 55.5543 60.1165 55.5216 60.1488C55.4915 60.177 55.4517 60.1924 55.4105 60.192H55.3735V60.2722H56.5024V60.192H56.4653C56.4445 60.1917 56.4238 60.1872 56.4048 60.1787C56.3857 60.1703 56.3685 60.158 56.3543 60.1427C56.3218 60.1102 56.2948 60.0727 56.2741 60.0316C56.2529 59.9861 56.2364 59.9386 56.2248 59.8897C56.2188 59.8426 56.2188 59.795 56.2248 59.7478V59.6738L58.8648 56.0649V59.7664C58.8695 59.8135 58.8695 59.8611 58.8648 59.9082C58.855 59.9576 58.8384 60.0053 58.8155 60.0501C58.7933 60.0918 58.7641 60.1294 58.7291 60.1612C58.699 60.1893 58.6593 60.2048 58.6181 60.2044H58.5379V60.2846H59.6667V60.2044H59.6297C59.6088 60.2041 59.5882 60.1996 59.5691 60.1911C59.5501 60.1826 59.5329 60.1703 59.5187 60.155C59.4855 60.1208 59.4584 60.0811 59.4385 60.0378C59.4179 59.992 59.4014 59.9446 59.3892 59.8959C59.3833 59.8509 59.3833 59.8052 59.3892 59.7602V55.4665C59.3835 55.4235 59.3835 55.3799 59.3892 55.3369C59.4012 55.2902 59.4177 55.2448 59.4385 55.2012C59.4582 55.1596 59.4854 55.122 59.5187 55.0902C59.5488 55.0621 59.5885 55.0466 59.6297 55.047H59.6667V54.9668H58.5379V55.047Z" fill="white"/>
<path fill-rule="evenodd" clip-rule="evenodd" d="M65.7365 55.047H65.7982C65.8369 55.0523 65.8722 55.0722 65.8969 55.1025C65.9244 55.1363 65.9472 55.1737 65.9647 55.2136C65.9839 55.255 65.9984 55.2985 66.0079 55.3431C66.0126 55.3841 66.0126 55.4255 66.0079 55.4665V57.2864C65.8779 57.3792 65.7396 57.4598 65.5946 57.527C65.4583 57.5942 65.3087 57.63 65.1567 57.6318C65.0106 57.6307 64.8661 57.6014 64.7311 57.5455C64.5921 57.4888 64.4645 57.4073 64.3548 57.3049C64.2414 57.1977 64.1493 57.07 64.0834 56.9286C64.0129 56.778 63.977 56.6136 63.9785 56.4474V55.4665C63.9728 55.4235 63.9728 55.3799 63.9785 55.3369C63.9916 55.2897 64.0102 55.2441 64.034 55.2012C64.0567 55.1599 64.0859 55.1224 64.1204 55.0902C64.1505 55.0621 64.1903 55.0466 64.2314 55.047H64.2684V54.9668H63.1643V55.047H63.2013C63.2189 55.0476 63.2361 55.0517 63.252 55.0591C63.2679 55.0665 63.2821 55.0771 63.2938 55.0902C63.3251 55.1223 63.3502 55.16 63.3679 55.2012C63.3862 55.2451 63.4007 55.2905 63.411 55.3369C63.4156 55.38 63.4156 55.4234 63.411 55.4665V56.398C63.4077 56.6084 63.4433 56.8175 63.5159 57.0149C63.5846 57.2003 63.6895 57.3701 63.8243 57.5146C63.9627 57.6632 64.1308 57.7809 64.3178 57.8601C64.5134 57.9409 64.723 57.9828 64.9346 57.9835C65.1314 57.9853 65.3264 57.9475 65.5083 57.8724C65.6614 57.8126 65.8065 57.7338 65.9401 57.638V59.7787C65.9451 59.8238 65.9451 59.8693 65.9401 59.9144C65.9306 59.9619 65.914 60.0077 65.8907 60.0501C65.8679 60.0914 65.8387 60.1288 65.8044 60.1612C65.7906 60.1749 65.7742 60.1858 65.7562 60.1932C65.7382 60.2006 65.719 60.2044 65.6995 60.2044H65.6625V60.2846H66.7975V60.2044H66.7358C66.6955 60.1983 66.6585 60.1787 66.6309 60.1488C66.5985 60.1163 66.5715 60.0788 66.5507 60.0378C66.5287 59.997 66.5121 59.9534 66.5014 59.9082C66.4968 59.8652 66.4968 59.8218 66.5014 59.7787V55.4603C66.4967 55.4193 66.4967 55.3779 66.5014 55.3369C66.5123 55.2918 66.5289 55.2483 66.5507 55.2074C66.5715 55.1664 66.5985 55.1289 66.6309 55.0963C66.6585 55.0664 66.6955 55.0469 66.7358 55.0408H66.7975V54.9668H65.6687L65.7365 55.047Z" fill="white"/>
<path fill-rule="evenodd" clip-rule="evenodd" d="M73.5766 59.5319C73.5526 59.6099 73.5151 59.683 73.4656 59.7478C73.4148 59.8161 73.3521 59.8746 73.2805 59.9206C73.2014 59.9709 73.1091 59.9967 73.0153 59.9946H71.2758V57.527H72.5959C72.7081 57.5228 72.8179 57.5601 72.9043 57.6318C72.9408 57.6618 72.9702 57.6995 72.9904 57.7421C73.0107 57.7848 73.0213 57.8314 73.0215 57.8786H73.1017V56.9101H73.0215C73.0211 56.9605 73.01 57.0104 72.9887 57.0561C72.9674 57.1019 72.9365 57.1426 72.8981 57.1753C72.8135 57.2509 72.703 57.2907 72.5897 57.2864H71.2696V55.2506H72.8673C72.9393 55.245 73.0118 55.2548 73.0798 55.2792C73.1479 55.3037 73.21 55.3423 73.262 55.3925C73.3444 55.4826 73.3943 55.5977 73.4039 55.7194H73.4841V54.9668H70.3999V55.047H70.4369C70.4781 55.0466 70.5179 55.0621 70.5479 55.0902C70.5826 55.1222 70.6118 55.1597 70.6343 55.2012C70.6581 55.2441 70.6768 55.2897 70.6898 55.3369C70.6953 55.38 70.6953 55.4235 70.6898 55.4665V59.7849C70.6956 59.8299 70.6956 59.8755 70.6898 59.9206C70.6768 59.9679 70.6581 60.0134 70.6343 60.0563C70.6118 60.0978 70.5826 60.1353 70.5479 60.1673C70.5179 60.1955 70.4781 60.2109 70.4369 60.2105H70.3999V60.2907H73.6568V59.3345H73.5766C73.586 59.4 73.586 59.4665 73.5766 59.5319V59.5319Z" fill="white"/>
<path fill-rule="evenodd" clip-rule="evenodd" d="M81.0341 59.6492C80.9332 59.7558 80.8142 59.8436 80.6825 59.9083C80.5616 59.9676 80.4328 60.0091 80.3 60.0317C80.188 60.0511 80.0745 60.0614 79.9608 60.0626C79.6377 60.0646 79.3186 59.9907 79.0294 59.8466C78.7461 59.7075 78.4909 59.5172 78.2768 59.2853C78.0608 59.051 77.8894 58.7792 77.771 58.4833C77.6496 58.1877 77.5868 57.8713 77.586 57.5517C77.5881 57.2643 77.636 56.979 77.7278 56.7066C77.8193 56.4266 77.9638 56.1669 78.1535 55.9416C78.3521 55.7076 78.5981 55.5184 78.8752 55.3864C79.1933 55.2372 79.5416 55.1633 79.8929 55.1705C80.0192 55.1713 80.1452 55.1837 80.2692 55.2075C80.396 55.2304 80.5186 55.272 80.6331 55.3309C80.7493 55.3922 80.8505 55.4786 80.9292 55.5838C81.0185 55.7061 81.0777 55.8477 81.1019 55.9971H81.1821V55.1149C81.1165 55.1215 81.0504 55.1215 80.9847 55.1149L80.7689 55.0533L80.3926 54.9545C80.2366 54.9202 80.0773 54.9036 79.9176 54.9052C79.4818 54.8947 79.0487 54.9767 78.6469 55.1458C78.3095 55.2877 78.005 55.4977 77.7525 55.7627C77.5174 56.0175 77.3368 56.3177 77.222 56.6449C77.1088 56.9617 77.0504 57.2955 77.0493 57.6319C77.0497 57.9684 77.1081 58.3024 77.222 58.619C77.3347 58.9426 77.5108 59.2404 77.7402 59.495C77.9851 59.7577 78.2811 59.9676 78.6099 60.1119C78.9984 60.282 79.4197 60.3641 79.8436 60.3525C80.0216 60.3528 80.1992 60.3363 80.3741 60.3032L80.8305 60.1983L81.1204 60.1242C81.2032 60.1037 81.2881 60.0934 81.3734 60.0934V59.2236H81.2932C81.2402 59.3832 81.1516 59.5288 81.0341 59.6492V59.6492Z" fill="white"/>
<path fill-rule="evenodd" clip-rule="evenodd" d="M88.2882 59.9021C88.2128 59.8197 88.1447 59.731 88.0846 59.6368C88.0288 59.5543 87.9793 59.4677 87.9366 59.3777L87.3198 58.0945C87.2087 57.8596 87.036 57.6592 86.8201 57.5146C86.5683 57.3654 86.2801 57.2886 85.9874 57.2925L87.8687 55.3801C87.9507 55.295 88.0394 55.2166 88.134 55.1457C88.2166 55.0852 88.3154 55.0508 88.4177 55.047V54.9668H87.5603V55.047C87.6035 55.047 87.622 55.047 87.622 55.121C87.6228 55.1496 87.6177 55.178 87.6071 55.2045C87.5965 55.231 87.5806 55.2551 87.5603 55.2753L85.7098 57.126V55.4603C85.7043 55.4173 85.7043 55.3738 85.7098 55.3308C85.7229 55.2835 85.7415 55.2379 85.7653 55.1951C85.7879 55.1536 85.8171 55.1161 85.8517 55.084C85.8818 55.0559 85.9215 55.0404 85.9627 55.0408H85.9997V54.9668H84.8709V55.047H84.9079C84.9274 55.047 84.9467 55.0507 84.9647 55.0581C84.9826 55.0656 84.999 55.0764 85.0128 55.0902C85.0473 55.1224 85.0764 55.1599 85.0991 55.2012C85.1218 55.2439 85.1385 55.2896 85.1485 55.3369C85.153 55.38 85.153 55.4234 85.1485 55.4665V59.754C85.1533 59.8012 85.1533 59.8487 85.1485 59.8959C85.1391 59.9454 85.1225 59.9932 85.0991 60.0378C85.0754 60.0785 85.0464 60.1158 85.0128 60.1488C84.9986 60.1642 84.9814 60.1764 84.9623 60.1849C84.9432 60.1934 84.9226 60.1979 84.9018 60.1982H84.8647V60.2784H85.9936V60.1982H85.938C85.8988 60.193 85.8622 60.1757 85.8332 60.1488C85.7994 60.1174 85.7722 60.0797 85.753 60.0378C85.7314 59.9925 85.7148 59.9449 85.7036 59.8959C85.6987 59.8508 85.6987 59.8053 85.7036 59.7602V57.5516C85.9202 57.5584 86.1319 57.6177 86.3205 57.7244C86.5017 57.8325 86.6474 57.9912 86.7399 58.1809L87.3568 59.4764C87.4051 59.5758 87.4587 59.6726 87.5172 59.7664C87.5776 59.8617 87.6502 59.9488 87.733 60.0255C87.8174 60.1046 87.9157 60.1674 88.023 60.2105C88.1489 60.2586 88.283 60.2817 88.4177 60.2784H88.8248V60.1982C88.7183 60.196 88.6142 60.1662 88.5226 60.1118C88.4353 60.0529 88.3564 59.9823 88.2882 59.9021V59.9021Z" fill="white"/>
<path fill-rule="evenodd" clip-rule="evenodd" d="M96.0602 60.044C95.9962 59.9459 95.9444 59.8402 95.906 59.7294L94.1234 54.8682L92.3037 59.8034C92.2661 59.9099 92.212 60.0098 92.1433 60.0996C92.121 60.1342 92.0911 60.1634 92.0558 60.1848C92.0205 60.2061 91.9809 60.2192 91.9398 60.2229H91.9089V60.3031H92.791V60.2229H92.754C92.7312 60.2216 92.7089 60.2154 92.6887 60.2048C92.6685 60.1941 92.6508 60.1793 92.6368 60.1612C92.5974 60.115 92.5775 60.0553 92.5813 59.9947C92.5748 59.9559 92.5748 59.9163 92.5813 59.8775L93.2722 57.9527H94.66L95.3756 59.9083C95.3824 59.9533 95.3824 59.9991 95.3756 60.044C95.3756 60.1612 95.3139 60.2229 95.1843 60.2229H95.1473V60.3031H96.3255V60.2229H96.2885C96.2354 60.2228 96.1834 60.2084 96.1378 60.1813C96.0923 60.1541 96.0548 60.1153 96.0294 60.0687L96.0602 60.044ZM93.3647 57.6566L93.9815 55.9786L94.5983 57.6566H93.3647Z" fill="white"/>
<path fill-rule="evenodd" clip-rule="evenodd" d="M101.408 55.0719C101.187 55.1277 100.978 55.2239 100.791 55.3557C100.633 55.4689 100.502 55.6166 100.409 55.7876C100.319 55.9565 100.272 56.1452 100.273 56.3366C100.272 56.4895 100.304 56.6409 100.366 56.7808C100.431 56.9262 100.525 57.0564 100.643 57.1633C100.773 57.2803 100.924 57.3723 101.087 57.4347C101.285 57.5104 101.493 57.5542 101.704 57.5643C101.546 57.6239 101.407 57.7264 101.303 57.8604C101.216 57.9813 101.136 58.107 101.063 58.2367L100.446 59.378C100.392 59.4723 100.333 59.563 100.267 59.6494C100.196 59.7456 100.115 59.8345 100.027 59.9147C99.9376 59.9957 99.8379 60.0642 99.7304 60.1183C99.6232 60.1717 99.5048 60.1992 99.385 60.1985V60.2787H99.8045C100.064 60.2822 100.317 60.195 100.52 60.0319C100.728 59.8637 100.898 59.6535 101.02 59.415L101.229 59.051L101.421 58.7117C101.495 58.5698 101.575 58.4279 101.655 58.2922C101.731 58.1641 101.818 58.0424 101.914 57.9282C101.999 57.8274 102.099 57.7401 102.21 57.6691C102.311 57.6059 102.425 57.5679 102.543 57.5581V59.7358C102.549 59.7829 102.549 59.8306 102.543 59.8777C102.531 59.9265 102.515 59.974 102.494 60.0196C102.472 60.0614 102.443 60.099 102.408 60.1306C102.38 60.1596 102.343 60.1772 102.303 60.18H102.266V60.2602H103.388V60.18H103.351C103.331 60.1796 103.312 60.175 103.294 60.1665C103.275 60.158 103.259 60.1457 103.246 60.1306C103.214 60.0981 103.187 60.0606 103.166 60.0196C103.144 59.9747 103.127 59.9269 103.117 59.8777C103.112 59.8305 103.112 59.7829 103.117 59.7358V55.4668C103.112 55.4237 103.112 55.3803 103.117 55.3372C103.127 55.2901 103.144 55.2444 103.166 55.2015C103.186 55.1598 103.213 55.1222 103.246 55.0904C103.26 55.0767 103.277 55.0658 103.295 55.0584C103.313 55.051 103.332 55.0472 103.351 55.0473H103.388V54.9671H102.247C101.981 54.9634 101.715 54.9967 101.458 55.0658L101.408 55.0719ZM102.525 55.2447V57.2928H102.025C101.861 57.2947 101.698 57.2675 101.544 57.2126C101.402 57.1629 101.27 57.0876 101.155 56.9905C101.047 56.8963 100.959 56.7808 100.896 56.6512C100.833 56.5163 100.801 56.3685 100.804 56.2194C100.802 56.0732 100.84 55.9293 100.914 55.8031C100.988 55.677 101.095 55.5735 101.223 55.5038C101.587 55.3116 101.997 55.2221 102.408 55.2447H102.525Z" fill="white"/>
<path fill-rule="evenodd" clip-rule="evenodd" d="M116.49 56.1389C116.26 55.9447 115.997 55.7942 115.713 55.6948C115.397 55.5858 115.066 55.5275 114.732 55.522V55.522C114.727 55.479 114.727 55.4355 114.732 55.3925C114.742 55.3433 114.759 55.2957 114.781 55.2506C114.801 55.2103 114.826 55.173 114.855 55.1395C114.88 55.1096 114.915 55.0899 114.954 55.084H115.016V54.9668H113.893V55.047H113.942C113.983 55.053 114.02 55.0726 114.047 55.1025C114.08 55.1369 114.107 55.1765 114.127 55.2197C114.148 55.2653 114.165 55.3128 114.177 55.3616C114.182 55.4067 114.182 55.4523 114.177 55.4973V55.522C113.852 55.53 113.529 55.5861 113.221 55.6886C112.937 55.781 112.671 55.923 112.437 56.1081C112.216 56.2839 112.036 56.5047 111.907 56.7558C111.777 57.0185 111.711 57.3081 111.716 57.601C111.713 57.8845 111.774 58.165 111.894 58.4215C112.014 58.6732 112.184 58.8977 112.394 59.0816C112.622 59.2794 112.886 59.4322 113.171 59.5319C113.497 59.6456 113.838 59.706 114.183 59.7108V59.754C114.188 59.797 114.188 59.8406 114.183 59.8836C114.171 59.9303 114.154 59.9757 114.134 60.0193C114.113 60.062 114.084 60.0999 114.047 60.1303C114.019 60.157 113.981 60.1724 113.942 60.1735H113.905V60.2537H115.028V60.1735H114.991C114.97 60.174 114.95 60.1705 114.931 60.1631C114.912 60.1557 114.895 60.1445 114.88 60.1303C114.845 60.0983 114.816 60.0608 114.794 60.0193C114.77 59.9767 114.754 59.931 114.744 59.8836C114.74 59.8405 114.74 59.7971 114.744 59.754V59.7108C115.06 59.7061 115.372 59.6499 115.669 59.5443C115.953 59.4451 116.218 59.2991 116.453 59.1124C116.678 58.9326 116.863 58.7078 116.996 58.4523C117.132 58.1871 117.201 57.8929 117.199 57.5948C117.201 57.3154 117.14 57.0391 117.02 56.7867C116.899 56.5359 116.727 56.3132 116.515 56.1328L116.49 56.1389ZM114.201 59.4517C113.949 59.4404 113.701 59.3775 113.474 59.2667C113.245 59.1563 113.036 59.0082 112.857 58.8287C112.678 58.6494 112.532 58.4407 112.425 58.2117C112.32 57.9944 112.265 57.7561 112.264 57.5146C112.266 57.303 112.308 57.0936 112.388 56.8977C112.471 56.689 112.597 56.4999 112.758 56.3425C112.936 56.1695 113.146 56.0314 113.375 55.9353C113.643 55.8238 113.93 55.7671 114.22 55.7688V59.4702L114.201 59.4517ZM116.515 58.329C116.422 58.5374 116.29 58.726 116.126 58.8842C115.947 59.0545 115.738 59.1904 115.509 59.2852C115.255 59.3927 114.983 59.4514 114.707 59.4579V55.7564C114.968 55.7647 115.224 55.8256 115.46 55.9353C115.689 56.0415 115.898 56.1877 116.077 56.3672C116.251 56.5457 116.391 56.7548 116.49 56.9841C116.59 57.2008 116.642 57.4364 116.644 57.675C116.651 57.908 116.607 58.1396 116.515 58.3536V58.329Z" fill="white"/>
<path fill-rule="evenodd" clip-rule="evenodd" d="M123.861 55.0408H123.898C123.938 55.0399 123.978 55.053 124.009 55.0778C124.043 55.1059 124.072 55.1392 124.096 55.1765C124.119 55.2147 124.135 55.2564 124.145 55.2999C124.15 55.3388 124.15 55.3782 124.145 55.4171V55.522L121.517 58.7114V55.411C121.519 55.333 121.541 55.2567 121.579 55.1889C121.599 55.1528 121.624 55.1196 121.653 55.0902C121.68 55.0634 121.714 55.046 121.752 55.0408H121.813V54.9668H120.685V55.0408H120.722C120.762 55.0399 120.801 55.053 120.833 55.0778C120.867 55.1057 120.896 55.1391 120.919 55.1765C120.942 55.2148 120.959 55.2564 120.968 55.2999C120.973 55.3389 120.973 55.3782 120.968 55.4171V59.2235C120.973 59.2645 120.973 59.3058 120.968 59.3469C120.959 59.3923 120.942 59.436 120.919 59.4764C120.896 59.5142 120.867 59.5476 120.833 59.5751C120.801 59.6005 120.762 59.6136 120.722 59.6121H120.685V59.6862H121.813V59.6121H121.776C121.735 59.6125 121.695 59.5971 121.665 59.5689C121.634 59.5405 121.606 59.5072 121.585 59.4702C121.564 59.431 121.548 59.3896 121.536 59.3469C121.53 59.3059 121.53 59.2644 121.536 59.2235V59.1618L124.176 55.9539V59.2235C124.181 59.2645 124.181 59.3059 124.176 59.3469C124.166 59.3923 124.15 59.436 124.127 59.4764C124.104 59.5141 124.075 59.5475 124.04 59.5751C124.009 59.6005 123.969 59.6136 123.929 59.6121H123.892V59.6862H125.021V59.6121H124.984C124.943 59.6119 124.903 59.5965 124.873 59.5689C124.84 59.5392 124.813 59.5036 124.793 59.4641C124.772 59.4247 124.756 59.3833 124.743 59.3407C124.737 59.2998 124.737 59.2582 124.743 59.2173V55.411C124.737 55.3721 124.737 55.3326 124.743 55.2938C124.755 55.251 124.772 55.2096 124.793 55.1704C124.813 55.1326 124.84 55.0991 124.873 55.0717C124.904 55.0468 124.944 55.0337 124.984 55.0347H125.021V54.9668H123.861V55.0408Z" fill="white"/>
<path fill-rule="evenodd" clip-rule="evenodd" d="M131.023 55.3123C130.624 55.0594 130.155 54.9405 129.684 54.973H128.555V55.0532H128.592C128.635 55.0609 128.674 55.0799 128.707 55.1081C128.739 55.1363 128.764 55.1728 128.777 55.2136C128.816 55.2948 128.837 55.383 128.839 55.4727V59.7602C128.844 59.8074 128.844 59.8549 128.839 59.9021C128.829 59.9513 128.812 59.9989 128.79 60.044C128.769 60.0851 128.742 60.1225 128.71 60.1551C128.696 60.1699 128.68 60.1819 128.662 60.1904C128.644 60.1989 128.625 60.2037 128.605 60.2044H128.568V60.2846H129.678V60.2044H129.641C129.621 60.204 129.601 60.1994 129.583 60.1909C129.565 60.1824 129.549 60.1702 129.536 60.1551C129.505 60.1211 129.479 60.0839 129.456 60.044C129.432 59.9995 129.416 59.9516 129.407 59.9021C129.402 59.8549 129.402 59.8074 129.407 59.7602V57.7059H129.709C129.918 57.702 130.126 57.6688 130.326 57.6072C130.533 57.5462 130.728 57.4525 130.906 57.3296C131.075 57.213 131.218 57.0616 131.325 56.8854C131.471 56.6308 131.521 56.3326 131.467 56.0443C131.412 55.756 131.257 55.4965 131.029 55.3123H131.023ZM130.856 56.7559C130.795 56.8811 130.709 56.9924 130.603 57.0828C130.48 57.1867 130.337 57.2662 130.184 57.3173C129.999 57.3787 129.805 57.4079 129.61 57.4036H129.37V55.2506H129.481C129.712 55.2453 129.943 55.2765 130.165 55.3432C130.331 55.3929 130.485 55.477 130.616 55.5899C130.726 55.6895 130.811 55.8144 130.862 55.9539C130.913 56.0942 130.938 56.2426 130.936 56.3919C130.936 56.5176 130.909 56.6417 130.856 56.7559Z" fill="white"/>
<path fill-rule="evenodd" clip-rule="evenodd" d="M137.635 59.3715L135.785 54.973H134.977V55.0532H135.014C135.033 55.0531 135.052 55.0569 135.07 55.0643C135.088 55.0717 135.105 55.0826 135.118 55.0963C135.152 55.1281 135.179 55.1658 135.199 55.2074C135.22 55.2505 135.237 55.2961 135.248 55.3431C135.253 55.3862 135.253 55.4296 135.248 55.4727V59.7602C135.253 59.8074 135.253 59.8549 135.248 59.9021C135.238 59.9513 135.221 59.999 135.199 60.044C135.178 60.0849 135.151 60.1224 135.118 60.155C135.105 60.1699 135.089 60.1819 135.071 60.1904C135.053 60.1989 135.033 60.2036 135.014 60.2044H134.977V60.2846H135.84V60.2044H135.803C135.782 60.2041 135.762 60.1996 135.743 60.1911C135.723 60.1826 135.706 60.1703 135.692 60.155C135.661 60.1216 135.634 60.0843 135.612 60.044C135.588 59.9995 135.572 59.9516 135.563 59.9021C135.557 59.8549 135.557 59.8073 135.563 59.7602V55.775L137.512 60.3709L139.541 55.522V59.754C139.546 59.8012 139.546 59.8487 139.541 59.8959C139.532 59.9454 139.515 59.9933 139.492 60.0378C139.468 60.0785 139.439 60.1159 139.405 60.1488C139.392 60.164 139.376 60.1762 139.358 60.1847C139.34 60.1932 139.321 60.1978 139.301 60.1982H139.264V60.2784H140.392V60.1982H140.355C140.334 60.1979 140.314 60.1934 140.295 60.1849C140.276 60.1764 140.259 60.1642 140.244 60.1488C140.211 60.1159 140.182 60.0786 140.158 60.0378C140.134 59.9933 140.118 59.9454 140.109 59.8959C140.104 59.8487 140.104 59.8012 140.109 59.754V55.4665C140.104 55.4235 140.104 55.38 140.109 55.3369C140.118 55.2896 140.135 55.2438 140.158 55.2012C140.181 55.1597 140.21 55.1222 140.244 55.0902C140.274 55.0621 140.314 55.0466 140.355 55.047H140.392V54.9668H139.498L137.635 59.3715Z" fill="white"/>
</g>
<defs>
<linearGradient id="paint0_linear_3369_3076" x1="25.1546" y1="10.8698" x2="40.2557" y2="19.6963" gradientUnits="userSpaceOnUse">
<stop stop-color="#2466AE"/>
<stop offset="0.47" stop-color="#2466AE"/>
<stop offset="0.96" stop-color="#1D408B"/>
<stop offset="1" stop-color="#1D408B"/>
</linearGradient>
<linearGradient id="paint1_linear_3369_3076" x1="34.5182" y1="34.5473" x2="37.8431" y2="36.4902" gradientUnits="userSpaceOnUse">
<stop stop-color="#1D448E"/>
<stop offset="1" stop-color="#1D408B"/>
</linearGradient>
<linearGradient id="paint2_linear_3369_3076" x1="383.716" y1="424.799" x2="435.605" y2="458.363" gradientUnits="userSpaceOnUse">
<stop stop-color="#1D448E"/>
<stop offset="1" stop-color="#1D408B"/>
</linearGradient>
<linearGradient id="paint3_linear_3369_3076" x1="-4.12665" y1="7.24252" x2="55.1797" y2="41.8946" gradientUnits="userSpaceOnUse">
<stop stop-color="#173764"/>
<stop offset="0.45" stop-color="#2466AE"/>
<stop offset="0.47" stop-color="#2466AE"/>
<stop offset="0.93" stop-color="#1A327D"/>
<stop offset="1" stop-color="#1A327D"/>
</linearGradient>
<clipPath id="clip0_3369_3076">
<rect width="171" height="61" fill="white"/>
</clipPath>
</defs>
</svg>
