<svg width="20" height="28" viewBox="0 0 20 28" fill="none" xmlns="http://www.w3.org/2000/svg">
<path d="M10.0001 0C4.85356 0 0.666748 4.18508 0.666748 9.32881V18.6717C0.666748 23.8153 4.85356 28 10.0001 28C15.1466 28 19.3334 23.8154 19.3334 18.6717V9.32881C19.3334 4.18508 15.1465 0 10.0001 0ZM18.2964 18.6717C18.2964 23.2436 14.5747 26.963 10.0001 26.963C5.4255 26.963 1.70377 23.2436 1.70377 18.6717V9.32881C1.70377 4.75689 5.4255 1.03702 10.0001 1.03702C14.5747 1.03702 18.2964 4.75675 18.2964 9.32881V18.6717Z" fill="white"/>
<path d="M10.0003 3.11133C9.7139 3.11133 9.48169 3.34327 9.48169 3.62991V8.32545C9.48169 8.61208 9.7139 8.84403 10.0003 8.84403C10.2866 8.84403 10.5188 8.61208 10.5188 8.32545V3.62991C10.5187 3.34327 10.2866 3.11133 10.0003 3.11133Z" fill="white"/>
</svg>
