<svg width="16" height="16" viewBox="0 0 16 16" fill="none" xmlns="http://www.w3.org/2000/svg">
<path d="M7.87125 1C9.88063 1 11.5095 2.63729 11.5095 4.65693C11.5095 6.67662 9.88063 8.31402 7.87125 8.31402C5.86186 8.31402 4.23298 6.67662 4.23298 4.65693C4.23298 2.63729 5.86186 1 7.87125 1ZM7.87125 6.16873C8.70186 6.16873 9.37523 5.49186 9.37523 4.65699C9.37523 3.82212 8.70186 3.14529 7.87125 3.14529C7.04064 3.14529 6.36727 3.82212 6.36727 4.65699C6.36727 5.49186 7.04064 6.16873 7.87125 6.16873Z" fill="#286BB2"/>
<path d="M6.5869 11.2239C5.13035 10.9257 4.25752 10.2324 4.21134 10.1952C3.78512 9.85161 3.71666 9.22581 4.05847 8.79736C4.40023 8.36896 5.02279 8.30014 5.4491 8.64366C5.45811 8.65099 6.38905 9.36879 7.92078 9.36983C9.45246 9.36879 10.4031 8.65099 10.4121 8.64366C10.8384 8.30014 11.461 8.36896 11.8027 8.79736C12.1445 9.22581 12.0761 9.85161 11.6499 10.1952C11.6031 10.2329 10.6942 10.9443 9.19682 11.2355L11.2837 13.4276C11.6629 13.823 11.6515 14.4524 11.2582 14.8336C11.0663 15.0197 10.8188 15.1121 10.5716 15.1121C10.3124 15.1121 10.0535 15.0103 9.85941 14.808L7.92073 12.7322L5.78623 14.8214C5.39948 15.2095 4.77323 15.2089 4.38722 14.8203C4.0012 14.4317 4.00167 13.8021 4.38831 13.4141L6.5869 11.2239Z" fill="#286BB2"/>
</svg>
