<svg width="50" height="31" viewBox="0 0 50 31" fill="none" xmlns="http://www.w3.org/2000/svg">
<path fill-rule="evenodd" clip-rule="evenodd" d="M4.89717 8.84412C5.33743 8.84145 6.64586 8.72221 7.20009 10.615C7.57342 11.89 8.16812 13.9785 8.98418 16.8805H9.31653C10.1917 13.821 10.7929 11.7325 11.1201 10.615C11.6801 8.70249 13.0801 8.84416 13.6401 8.84416L17.9606 8.84416V22.4441H13.557V14.4294H13.2617L10.8069 22.4441H7.49378L5.03899 14.4235H4.74369V22.4441H0.340088V8.84416L4.89717 8.84412ZM24.2841 8.84416V16.8648H24.6354L27.6214 10.2695C28.2011 8.957 29.4365 8.84416 29.4365 8.84416H33.6979V22.4442H29.2023V14.4235H28.851L25.9235 21.0188C25.3439 22.3254 24.0499 22.4442 24.0499 22.4442H19.7885V8.84416H24.2841ZM49.2366 15.307C48.6095 17.1051 46.6402 18.3929 44.4599 18.3929H39.7454V22.4442H35.4704V15.307H49.2366Z" fill="white"/>
<path fill-rule="evenodd" clip-rule="evenodd" d="M44.666 8.84473H35.2461C35.4703 11.8725 38.0471 14.4646 40.7146 14.4646H49.5335C50.0424 11.9481 48.2905 8.84473 44.666 8.84473Z" fill="url(#paint0_linear_3369_3124)"/>
<defs>
<linearGradient id="paint0_linear_3369_3124" x1="49.62" y1="12.3798" x2="35.2461" y2="12.3798" gradientUnits="userSpaceOnUse">
<stop stop-color="white"/>
<stop offset="1" stop-color="white"/>
</linearGradient>
</defs>
</svg>
