<svg width="50" height="31" viewBox="0 0 50 31" fill="none" xmlns="http://www.w3.org/2000/svg">
<path d="M12.2503 30.932V28.8746C12.2503 28.0876 11.77 27.5723 10.9453 27.5723C10.533 27.5723 10.0846 27.7081 9.77637 28.1555C9.53617 27.78 9.1919 27.5723 8.67549 27.5723C8.33121 27.5723 7.98694 27.6762 7.71472 28.0517V27.6402H6.99414V30.932H7.71472V29.1143C7.71472 28.5311 8.02296 28.2554 8.50335 28.2554C8.98373 28.2554 9.22392 28.563 9.22392 29.1143V30.932H9.9445V29.1143C9.9445 28.5311 10.2888 28.2554 10.7331 28.2554C11.2135 28.2554 11.4537 28.563 11.4537 29.1143V30.932H12.2503ZM22.9389 27.6402H21.77V26.6455H21.0494V27.6402H20.3969V28.2914H21.0494V29.8014C21.0494 30.5565 21.3576 30.9999 22.1823 30.9999C22.4905 30.9999 22.8348 30.896 23.075 30.7602L22.8668 30.141C22.6587 30.2768 22.4185 30.3128 22.2463 30.3128C21.9021 30.3128 21.766 30.105 21.766 29.7655V28.2914H22.9349V27.6402H22.9389ZM29.0558 27.5683C28.6435 27.5683 28.3672 27.776 28.1951 28.0477V27.6362H27.4745V30.928H28.1951V29.0744C28.1951 28.5271 28.4353 28.2155 28.8837 28.2155C29.0198 28.2155 29.1919 28.2514 29.332 28.2834L29.5402 27.5963C29.3961 27.5683 29.1919 27.5683 29.0558 27.5683ZM19.8124 27.9119C19.4681 27.6722 18.9877 27.5683 18.4713 27.5683C17.6467 27.5683 17.0982 27.9798 17.0982 28.6309C17.0982 29.1782 17.5106 29.4898 18.2311 29.5897L18.5754 29.6257C18.9517 29.6936 19.1599 29.7974 19.1599 29.9692C19.1599 30.2089 18.8837 30.3807 18.4033 30.3807C17.9229 30.3807 17.5426 30.2089 17.3024 30.0371L16.9581 30.5844C17.3344 30.8601 17.8508 30.9959 18.3672 30.9959C19.328 30.9959 19.8805 30.5485 19.8805 29.9333C19.8805 29.35 19.4321 29.0424 18.7475 28.9385L18.4033 28.9026C18.095 28.8666 17.8548 28.7987 17.8548 28.595C17.8548 28.3553 18.095 28.2195 18.4753 28.2195C18.8877 28.2195 19.3 28.3912 19.5082 28.4951L19.8124 27.9119ZM38.9837 27.5683C38.5714 27.5683 38.2952 27.776 38.123 28.0477V27.6362H37.4025V30.928H38.123V29.0744C38.123 28.5271 38.3632 28.2155 38.8116 28.2155C38.9477 28.2155 39.1198 28.2514 39.26 28.2834L39.4681 27.6043C39.328 27.5683 39.1238 27.5683 38.9837 27.5683ZM29.7764 29.2861C29.7764 30.2808 30.4649 30.9999 31.5298 30.9999C32.0102 30.9999 32.3544 30.896 32.6987 30.6244L32.3544 30.0411C32.0782 30.2489 31.806 30.3487 31.4937 30.3487C30.9093 30.3487 30.4969 29.9373 30.4969 29.2861C30.4969 28.6669 30.9093 28.2554 31.4937 28.2235C31.802 28.2235 32.0782 28.3273 32.3544 28.5311L32.6987 27.9478C32.3544 27.6722 32.0102 27.5723 31.5298 27.5723C30.4649 27.5683 29.7764 28.2914 29.7764 29.2861ZM36.4417 29.2861V27.6402H35.7211V28.0517C35.4809 27.7441 35.1367 27.5723 34.6883 27.5723C33.7596 27.5723 33.039 28.2914 33.039 29.2861C33.039 30.2808 33.7596 30.9999 34.6883 30.9999C35.1687 30.9999 35.513 30.8281 35.7211 30.5205V30.932H36.4417V29.2861ZM33.7956 29.2861C33.7956 28.7028 34.1719 28.2235 34.7924 28.2235C35.3768 28.2235 35.7892 28.6709 35.7892 29.2861C35.7892 29.8693 35.3768 30.3487 34.7924 30.3487C34.1759 30.3128 33.7956 29.8653 33.7956 29.2861ZM25.1727 27.5683C24.2119 27.5683 23.5234 28.2554 23.5234 29.2821C23.5234 30.3128 24.2119 30.9959 25.2087 30.9959C25.6891 30.9959 26.1695 30.8601 26.5498 30.5485L26.2055 30.0331C25.9293 30.2409 25.585 30.3767 25.2447 30.3767C24.7964 30.3767 24.352 30.169 24.2479 29.5897H26.6859C26.6859 29.4858 26.6859 29.4179 26.6859 29.3141C26.7179 28.2554 26.0974 27.5683 25.1727 27.5683ZM25.1727 28.1875C25.621 28.1875 25.9293 28.4632 25.9973 28.9745H24.28C24.348 28.5311 24.6563 28.1875 25.1727 28.1875ZM43.075 29.2861V26.3379H42.3544V28.0517C42.1142 27.7441 41.77 27.5723 41.3216 27.5723C40.3929 27.5723 39.6723 28.2914 39.6723 29.2861C39.6723 30.2808 40.3929 30.9999 41.3216 30.9999C41.802 30.9999 42.1463 30.8281 42.3544 30.5205V30.932H43.075V29.2861ZM40.4289 29.2861C40.4289 28.7028 40.8052 28.2235 41.4257 28.2235C42.0102 28.2235 42.4225 28.6709 42.4225 29.2861C42.4225 29.8693 42.0102 30.3487 41.4257 30.3487C40.8052 30.3128 40.4289 29.8653 40.4289 29.2861ZM16.3056 29.2861V27.6402H15.585V28.0517C15.3448 27.7441 15.0005 27.5723 14.5522 27.5723C13.6234 27.5723 12.9029 28.2914 12.9029 29.2861C12.9029 30.2808 13.6234 30.9999 14.5522 30.9999C15.0326 30.9999 15.3768 30.8281 15.585 30.5205V30.932H16.3056V29.2861ZM13.6274 29.2861C13.6274 28.7028 14.0037 28.2235 14.6242 28.2235C15.2087 28.2235 15.621 28.6709 15.621 29.2861C15.621 29.8693 15.2087 30.3487 14.6242 30.3487C14.0037 30.3128 13.6274 29.8653 13.6274 29.2861Z" fill="#1A89FF"/>
<path d="M20.2922 12.3441C20.2922 8.40116 22.1497 4.90168 25 2.64059C22.9023 0.994716 20.2562 0 17.3699 0C10.5324 0 5 5.52088 5 12.3441C5 19.1673 10.5324 24.6881 17.3699 24.6881C20.2562 24.6881 22.9023 23.6934 25 22.0476C22.1457 19.8184 20.2922 16.287 20.2922 12.3441Z" fill="#1A89FF"/>
<path d="M45 12.3441C45 19.1673 39.4676 24.6881 32.6301 24.6881C29.7438 24.6881 27.0977 23.6934 25 22.0476C27.8863 19.7825 29.7078 16.287 29.7078 12.3441C29.7078 8.40116 27.8503 4.90168 25 2.64059C27.0937 0.994716 29.7398 0 32.6261 0C39.4676 0 45 5.55683 45 12.3441Z" fill="#1A89FF" fill-opacity="0.5"/>
</svg>
