<svg width="50" height="30" viewBox="0 0 50 30" fill="none" xmlns="http://www.w3.org/2000/svg">
<path fill-rule="evenodd" clip-rule="evenodd" d="M4.89692 7.84412C5.33719 7.84145 6.64562 7.72221 7.19984 9.61499C7.57318 10.89 8.16788 12.9785 8.98394 15.8805H9.31629C10.1914 12.821 10.7926 10.7325 11.1198 9.61499C11.6798 7.70249 13.0798 7.84416 13.6398 7.84416L17.9604 7.84416V21.4441H13.5568V13.4294H13.2615L10.8067 21.4441H7.49354L5.03874 13.4235H4.74345V21.4441H0.339844V7.84416L4.89692 7.84412ZM24.2839 7.84416V15.8648H24.6352L27.6212 9.26949C28.2008 7.957 29.4362 7.84416 29.4362 7.84416H33.6976V21.4442H29.202V13.4235H28.8507L25.9233 20.0188C25.3436 21.3254 24.0497 21.4442 24.0497 21.4442H19.7883V7.84416H24.2839ZM49.2363 14.307C48.6092 16.1051 46.6399 17.3929 44.4597 17.3929H39.7452V21.4442H35.4701V14.307H49.2363Z" fill="#1A89FF"/>
<path fill-rule="evenodd" clip-rule="evenodd" d="M44.666 7.84424H35.2461C35.4703 10.8721 38.0471 13.4641 40.7146 13.4641H49.5335C50.0424 10.9476 48.2905 7.84424 44.666 7.84424Z" fill="url(#paint0_linear_4191_1971)"/>
<defs>
<linearGradient id="paint0_linear_4191_1971" x1="49.62" y1="11.3794" x2="35.2461" y2="11.3794" gradientUnits="userSpaceOnUse">
<stop stop-color="#1A89FF"/>
<stop offset="1" stop-color="white"/>
</linearGradient>
</defs>
</svg>
