<svg width="50" height="31" viewBox="0 0 50 31" fill="none" xmlns="http://www.w3.org/2000/svg">
<path d="M12.2499 30.932V28.8746C12.2499 28.0876 11.7695 27.5723 10.9448 27.5723C10.5325 27.5723 10.0841 27.7081 9.77588 28.1555C9.53569 27.78 9.19141 27.5723 8.675 27.5723C8.33072 27.5723 7.98645 27.6762 7.71423 28.0517V27.6402H6.99365V30.932H7.71423V29.1143C7.71423 28.5311 8.02248 28.2554 8.50286 28.2554C8.98324 28.2554 9.22344 28.563 9.22344 29.1143V30.932H9.94401V29.1143C9.94401 28.5311 10.2883 28.2554 10.7326 28.2554C11.213 28.2554 11.4532 28.563 11.4532 29.1143V30.932H12.2499ZM22.9384 27.6402H21.7695V26.6455H21.0489V27.6402H20.3964V28.2914H21.0489V29.8014C21.0489 30.5565 21.3571 30.9999 22.1818 30.9999C22.4901 30.9999 22.8343 30.896 23.0745 30.7602L22.8664 30.141C22.6582 30.2768 22.418 30.3128 22.2459 30.3128C21.9016 30.3128 21.7655 30.105 21.7655 29.7655V28.2914H22.9344V27.6402H22.9384ZM29.0553 27.5683C28.643 27.5683 28.3668 27.776 28.1946 28.0477V27.6362H27.474V30.928H28.1946V29.0744C28.1946 28.5271 28.4348 28.2155 28.8832 28.2155C29.0193 28.2155 29.1914 28.2514 29.3315 28.2834L29.5397 27.5963C29.3956 27.5683 29.1914 27.5683 29.0553 27.5683ZM19.8119 27.9119C19.4676 27.6722 18.9872 27.5683 18.4708 27.5683C17.6462 27.5683 17.0977 27.9798 17.0977 28.6309C17.0977 29.1782 17.5101 29.4898 18.2306 29.5897L18.5749 29.6257C18.9512 29.6936 19.1594 29.7974 19.1594 29.9692C19.1594 30.2089 18.8832 30.3807 18.4028 30.3807C17.9224 30.3807 17.5421 30.2089 17.3019 30.0371L16.9576 30.5844C17.3339 30.8601 17.8503 30.9959 18.3668 30.9959C19.3275 30.9959 19.88 30.5485 19.88 29.9333C19.88 29.35 19.4316 29.0424 18.7471 28.9385L18.4028 28.9026C18.0945 28.8666 17.8543 28.7987 17.8543 28.595C17.8543 28.3553 18.0945 28.2195 18.4748 28.2195C18.8872 28.2195 19.2995 28.3912 19.5077 28.4951L19.8119 27.9119ZM38.9832 27.5683C38.5709 27.5683 38.2947 27.776 38.1226 28.0477V27.6362H37.402V30.928H38.1226V29.0744C38.1226 28.5271 38.3627 28.2155 38.8111 28.2155C38.9472 28.2155 39.1194 28.2514 39.2595 28.2834L39.4676 27.6043C39.3275 27.5683 39.1234 27.5683 38.9832 27.5683ZM29.7759 29.2861C29.7759 30.2808 30.4644 30.9999 31.5293 30.9999C32.0097 30.9999 32.3539 30.896 32.6982 30.6244L32.3539 30.0411C32.0777 30.2489 31.8055 30.3487 31.4933 30.3487C30.9088 30.3487 30.4965 29.9373 30.4965 29.2861C30.4965 28.6669 30.9088 28.2554 31.4933 28.2235C31.8015 28.2235 32.0777 28.3273 32.3539 28.5311L32.6982 27.9478C32.3539 27.6722 32.0097 27.5723 31.5293 27.5723C30.4644 27.5683 29.7759 28.2914 29.7759 29.2861ZM36.4412 29.2861V27.6402H35.7206V28.0517C35.4804 27.7441 35.1362 27.5723 34.6878 27.5723C33.7591 27.5723 33.0385 28.2914 33.0385 29.2861C33.0385 30.2808 33.7591 30.9999 34.6878 30.9999C35.1682 30.9999 35.5125 30.8281 35.7206 30.5205V30.932H36.4412V29.2861ZM33.7951 29.2861C33.7951 28.7028 34.1714 28.2235 34.7919 28.2235C35.3764 28.2235 35.7887 28.6709 35.7887 29.2861C35.7887 29.8693 35.3764 30.3487 34.7919 30.3487C34.1754 30.3128 33.7951 29.8653 33.7951 29.2861ZM25.1722 27.5683C24.2114 27.5683 23.5229 28.2554 23.5229 29.2821C23.5229 30.3128 24.2114 30.9959 25.2082 30.9959C25.6886 30.9959 26.169 30.8601 26.5493 30.5485L26.205 30.0331C25.9288 30.2409 25.5845 30.3767 25.2443 30.3767C24.7959 30.3767 24.3515 30.169 24.2475 29.5897H26.6854C26.6854 29.4858 26.6854 29.4179 26.6854 29.3141C26.7174 28.2554 26.0969 27.5683 25.1722 27.5683ZM25.1722 28.1875C25.6206 28.1875 25.9288 28.4632 25.9969 28.9745H24.2795C24.3475 28.5311 24.6558 28.1875 25.1722 28.1875ZM43.0745 29.2861V26.3379H42.3539V28.0517C42.1137 27.7441 41.7695 27.5723 41.3211 27.5723C40.3924 27.5723 39.6718 28.2914 39.6718 29.2861C39.6718 30.2808 40.3924 30.9999 41.3211 30.9999C41.8015 30.9999 42.1458 30.8281 42.3539 30.5205V30.932H43.0745V29.2861ZM40.4284 29.2861C40.4284 28.7028 40.8047 28.2235 41.4252 28.2235C42.0097 28.2235 42.422 28.6709 42.422 29.2861C42.422 29.8693 42.0097 30.3487 41.4252 30.3487C40.8047 30.3128 40.4284 29.8653 40.4284 29.2861ZM16.3051 29.2861V27.6402H15.5845V28.0517C15.3443 27.7441 15.0001 27.5723 14.5517 27.5723C13.623 27.5723 12.9024 28.2914 12.9024 29.2861C12.9024 30.2808 13.623 30.9999 14.5517 30.9999C15.0321 30.9999 15.3764 30.8281 15.5845 30.5205V30.932H16.3051V29.2861ZM13.627 29.2861C13.627 28.7028 14.0033 28.2235 14.6238 28.2235C15.2082 28.2235 15.6206 28.6709 15.6206 29.2861C15.6206 29.8693 15.2082 30.3487 14.6238 30.3487C14.0033 30.3128 13.627 29.8653 13.627 29.2861Z" fill="white"/>
<path d="M20.2922 12.3441C20.2922 8.40116 22.1497 4.90168 25 2.64059C22.9023 0.994716 20.2562 0 17.3699 0C10.5324 0 5 5.52088 5 12.3441C5 19.1673 10.5324 24.6881 17.3699 24.6881C20.2562 24.6881 22.9023 23.6934 25 22.0476C22.1457 19.8184 20.2922 16.287 20.2922 12.3441Z" fill="white"/>
<path d="M45 12.3441C45 19.1673 39.4676 24.6881 32.6301 24.6881C29.7438 24.6881 27.0977 23.6934 25 22.0476C27.8863 19.7825 29.7078 16.287 29.7078 12.3441C29.7078 8.40116 27.8503 4.90168 25 2.64059C27.0937 0.994716 29.7398 0 32.6261 0C39.4676 0 45 5.55683 45 12.3441Z" fill="white" fill-opacity="0.5"/>
</svg>
