<svg width="100" height="100" viewBox="0 0 100 100" fill="none" xmlns="http://www.w3.org/2000/svg">
<g opacity="0.1" clip-path="url(#clip0_3369_2191)">
<path d="M99.9783 30.6072C99.9783 17.4599 89.3209 6.80257 76.1738 6.80257C63.0265 6.80257 52.3692 17.4599 52.3692 30.6072C52.3692 43.7545 63.0265 54.4116 76.1738 54.4116C78.8757 54.4116 81.4621 53.9406 83.8834 53.1106C78.5264 83.8345 54.5676 103.648 76.7773 87.3411C101.405 69.2586 100.005 31.3347 99.9771 30.6397C99.9771 30.6289 99.9783 30.6192 99.9783 30.6072Z" fill="white"/>
<path d="M47.6081 30.6096C47.6081 17.4624 36.9507 6.80501 23.8035 6.80501C10.6562 6.80501 -0.00117874 17.4624 -0.00117874 30.6096C-0.00117874 43.7569 10.6564 54.4141 23.8036 54.4141C26.5058 54.4141 29.092 53.9431 31.5132 53.113C26.1562 83.8369 2.19745 103.65 24.4071 87.3435C49.0343 69.261 47.6347 31.3371 47.6069 30.6421C47.6069 30.6313 47.6081 30.6217 47.6081 30.6096Z" fill="white"/>
</g>
<defs>
<clipPath id="clip0_3369_2191">
<rect width="100" height="100" fill="white" transform="translate(100 100) rotate(-180)"/>
</clipPath>
</defs>
</svg>
