<svg width="43" height="43" viewBox="0 0 43 43" fill="none" xmlns="http://www.w3.org/2000/svg">
<path d="M0.00925011 30.3938C0.00925011 35.9628 4.52353 40.4771 10.0924 40.4771C15.6614 40.4771 20.1757 35.9628 20.1757 30.3938C20.1757 24.8248 15.6614 20.3106 10.0924 20.3106C8.94793 20.3106 7.85238 20.5101 6.82678 20.8617C9.09593 7.84757 19.2445 -0.54509 9.8368 6.36223C-0.594889 14.0217 -0.0019222 30.0856 0.00975036 30.38C0.00975036 30.3846 0.00925011 30.3887 0.00925011 30.3938Z" fill="white"/>
<path d="M22.1924 30.3928C22.1924 35.9618 26.7067 40.4761 32.2756 40.4761C37.8446 40.4761 42.3589 35.9618 42.3589 30.3928C42.3589 24.8238 37.8445 20.3096 32.2756 20.3096C31.131 20.3096 30.0355 20.5092 29.0099 20.8608C31.2791 7.84659 41.4276 -0.546067 32.0199 6.36126C21.5882 14.0207 22.1811 30.0847 22.1929 30.3791C22.1929 30.3837 22.1924 30.3877 22.1924 30.3928Z" fill="white"/>
</svg>
