<svg width="14" height="13" viewBox="0 0 14 13" fill="none" xmlns="http://www.w3.org/2000/svg">
<path fill-rule="evenodd" clip-rule="evenodd" d="M9.28463 0.0154744C9.11244 0.0289822 8.84174 0.0592517 8.68306 0.0827947C8.52436 0.106338 8.25448 0.156951 8.08328 0.195314C7.91208 0.233678 7.64753 0.308189 7.49539 0.360908C7.34325 0.413627 7.11553 0.504927 6.98936 0.563799C6.8632 0.62267 6.65842 0.738416 6.53431 0.820994C6.4102 0.903572 6.24641 1.03925 6.17034 1.12249C6.09427 1.20572 5.99192 1.35526 5.94289 1.45485C5.86012 1.62301 5.85298 1.65957 5.84268 1.96946C5.83404 2.22898 5.84196 2.33882 5.87839 2.46413C5.90414 2.55273 5.95571 2.67725 5.99301 2.74085C6.03028 2.80448 6.13025 2.926 6.21518 3.01093C6.30011 3.09586 6.43762 3.21149 6.52075 3.26793C6.60387 3.32434 6.78748 3.42855 6.92877 3.49951C7.07005 3.57044 7.32845 3.67579 7.50299 3.7336C7.67752 3.79143 7.96182 3.86977 8.13477 3.90772C8.30771 3.94567 8.59072 3.99886 8.76367 4.02593C9.01802 4.06571 9.24016 4.0749 9.92578 4.074C10.6661 4.07301 10.8231 4.06508 11.166 4.01144C11.3819 3.97764 11.721 3.90835 11.9196 3.85744C12.1182 3.80655 12.3968 3.71924 12.5388 3.66343C12.6807 3.60762 12.8584 3.53147 12.9336 3.4942C13.0088 3.45696 13.1703 3.36041 13.2924 3.27969C13.4146 3.19897 13.5826 3.05941 13.6658 2.96958C13.7489 2.87973 13.852 2.73489 13.8948 2.64772C13.9705 2.49353 13.9727 2.4772 13.9727 2.05168C13.9727 1.63272 13.9695 1.60745 13.8983 1.45545C13.8558 1.36481 13.7503 1.21999 13.6522 1.11792C13.5578 1.01956 13.3908 0.879072 13.2811 0.805709C13.1713 0.732318 12.9772 0.622697 12.8497 0.562103C12.7221 0.501509 12.4735 0.403838 12.2972 0.345049C12.1208 0.286259 11.8228 0.206744 11.6348 0.168326C11.4468 0.129881 11.1392 0.0795134 10.9512 0.0563806C10.7632 0.0332478 10.3817 0.00904858 10.1035 0.00262279C9.82529 -0.00380299 9.45678 0.00199392 9.28463 0.0154744ZM3.04883 3.17395C2.87588 3.19566 2.60518 3.23897 2.44727 3.27023C2.28936 3.30148 2.01559 3.36932 1.83889 3.421C1.66217 3.47265 1.40514 3.56343 1.26768 3.62269C1.1302 3.68197 0.918367 3.78954 0.796934 3.86176C0.67468 3.93446 0.483082 4.08463 0.367664 4.19817C0.229332 4.33423 0.132371 4.45845 0.0795977 4.56731C0.00185938 4.72754 0 4.74157 0 5.16887C0 5.58244 0.00388281 5.61463 0.070793 5.75728C0.10973 5.84027 0.213445 5.98582 0.301301 6.0807C0.389129 6.17556 0.535691 6.30618 0.626992 6.37095C0.718266 6.43573 0.905707 6.54511 1.04352 6.61401C1.1813 6.68292 1.43544 6.78803 1.6082 6.84761C1.78098 6.90719 2.06199 6.98717 2.23267 7.02537C2.40332 7.06357 2.66949 7.11375 2.82414 7.13688C2.97877 7.16001 3.31647 7.19165 3.57459 7.20713C3.90009 7.22668 4.19281 7.22646 4.52993 7.20644C4.79724 7.19058 5.05326 7.17013 5.09882 7.16103L5.18164 7.14446V5.16843V3.19244L5.0791 3.17494C5.02272 3.16531 4.61357 3.15229 4.16992 3.14598C3.57129 3.13747 3.28218 3.14467 3.04883 3.17395ZM5.87882 3.68968C5.84188 3.81587 5.83398 3.92391 5.84268 4.18469C5.85293 4.49304 5.86039 4.53168 5.94111 4.69569C5.98916 4.79328 6.07704 4.9283 6.13638 4.9957C6.19574 5.06313 6.31132 5.17002 6.39327 5.23324C6.47519 5.29645 6.63906 5.4034 6.75743 5.47094C6.8758 5.53845 7.09581 5.64189 7.24634 5.70081C7.39689 5.75971 7.6522 5.84502 7.81375 5.89039C7.97527 5.93575 8.29054 6.00376 8.51432 6.04154C8.73811 6.07933 9.14432 6.12437 9.417 6.14162C9.78701 6.16506 10.0356 6.16519 10.3969 6.14222C10.6631 6.12533 11.0106 6.09284 11.169 6.07009C11.3274 6.04737 11.6354 5.98486 11.8535 5.93124C12.0716 5.87762 12.3585 5.79195 12.4912 5.7409C12.6238 5.68982 12.833 5.5974 12.956 5.53552C13.079 5.47364 13.2544 5.36987 13.3457 5.3049C13.437 5.23994 13.5835 5.10915 13.6714 5.01429C13.7592 4.91941 13.8629 4.77386 13.9019 4.69087C13.9654 4.55536 13.9736 4.50111 13.9817 4.15898C13.9874 3.9171 13.9786 3.73491 13.9576 3.65996C13.9394 3.59504 13.9169 3.54194 13.9076 3.54197C13.8983 3.542 13.857 3.59515 13.816 3.66012C13.775 3.72506 13.6642 3.8518 13.5699 3.94176C13.4756 4.03172 13.3025 4.16478 13.1852 4.23746C13.0679 4.31011 12.8614 4.41719 12.7264 4.4754C12.5914 4.53362 12.3428 4.62298 12.174 4.67397C12.0053 4.725 11.738 4.79237 11.5801 4.82376C11.4222 4.85513 11.1491 4.89929 10.9732 4.9219C10.7974 4.94451 10.4467 4.97087 10.1939 4.98047C9.92357 4.99072 9.56553 4.98495 9.32422 4.96642C9.09863 4.94911 8.76025 4.90979 8.57227 4.87902C8.38428 4.84829 8.11262 4.79358 7.96857 4.75745C7.82452 4.72133 7.57843 4.64723 7.4217 4.59282C7.26496 4.53838 7.01982 4.4337 6.87695 4.3602C6.73408 4.2867 6.53155 4.16174 6.42687 4.08247C6.3222 4.00323 6.18685 3.87671 6.12609 3.8013C6.06534 3.72588 5.99547 3.6336 5.97084 3.59622L5.92607 3.52824L5.87882 3.68968ZM5.88788 5.69524C5.86428 5.76185 5.85156 5.93239 5.85156 6.18206V6.56633L5.9544 6.77436C6.03345 6.93426 6.1037 7.02562 6.25811 7.16937C6.36861 7.27223 6.55905 7.41557 6.68134 7.48792C6.80359 7.56027 7.01952 7.66787 7.16114 7.72707C7.30275 7.78624 7.57053 7.87853 7.75619 7.93215C7.94186 7.98577 8.26602 8.05886 8.47656 8.09457C8.68711 8.13031 9.04395 8.17436 9.26953 8.19249C9.51636 8.21234 9.88113 8.21909 10.1855 8.20947C10.4638 8.20066 10.8377 8.17389 11.0164 8.14999C11.1952 8.12612 11.4865 8.07595 11.6637 8.03851C11.841 8.00108 12.1193 7.92665 12.2821 7.87311C12.4449 7.81955 12.6909 7.72267 12.8287 7.65778C12.9665 7.59289 13.1657 7.48387 13.2715 7.41549C13.3772 7.3471 13.5351 7.21951 13.6225 7.13199C13.7098 7.04446 13.8243 6.89303 13.877 6.79547L13.9727 6.61809V6.16692C13.9727 5.84628 13.9623 5.69767 13.937 5.65329C13.9021 5.59218 13.899 5.59434 13.7915 5.75542C13.731 5.84593 13.6179 5.97357 13.54 6.03903C13.4621 6.10452 13.3387 6.19844 13.2658 6.24774C13.1928 6.29707 12.996 6.40232 12.8283 6.48167C12.6606 6.56102 12.4065 6.66301 12.2637 6.70827C12.1208 6.75355 11.8624 6.8221 11.6895 6.86063C11.5165 6.89913 11.2212 6.95204 11.0332 6.97823C10.78 7.01351 10.5001 7.02614 9.95312 7.02704C9.49804 7.02778 9.1047 7.01441 8.92773 6.9922C8.76982 6.97238 8.48066 6.92518 8.28516 6.88734C8.08965 6.8495 7.76732 6.76512 7.56889 6.69982C7.37043 6.63452 7.10309 6.5319 6.97476 6.47177C6.84646 6.41164 6.64863 6.29827 6.53518 6.21983C6.42171 6.1414 6.26136 6.0043 6.17884 5.91519C6.09634 5.82605 6.01016 5.71703 5.98735 5.67292C5.96452 5.62879 5.94098 5.5927 5.93502 5.5927C5.92905 5.5927 5.90784 5.63885 5.88788 5.69524ZM0.0356289 6.7197C0.0103086 6.76408 0 6.91269 0 7.23332C0 7.65472 0.00426563 7.69262 0.0646406 7.80754C0.100188 7.87522 0.178992 7.99569 0.239723 8.07526C0.30048 8.15483 0.443652 8.29032 0.557895 8.37635C0.672137 8.4624 0.864062 8.58358 0.984375 8.64571C1.10469 8.70781 1.32549 8.80411 1.47506 8.85973C1.62463 8.91537 1.88303 8.99631 2.04928 9.03965C2.21553 9.08296 2.49955 9.14244 2.6804 9.17178C2.86128 9.20114 3.18735 9.24005 3.40501 9.25826C3.66557 9.28006 3.98295 9.28462 4.33398 9.27166C4.62725 9.26081 4.93486 9.2438 5.01758 9.23385L5.16797 9.21574L5.17535 8.63124L5.18276 8.04677L5.02496 8.06334C4.9382 8.07247 4.61997 8.08812 4.31782 8.0981C3.96036 8.10991 3.63081 8.10455 3.37446 8.0827C3.15777 8.06422 2.83828 8.02594 2.66451 7.99758C2.49074 7.96925 2.20495 7.90904 2.0294 7.86376C1.85385 7.81851 1.60193 7.73965 1.46959 7.68854C1.33727 7.63744 1.13704 7.54939 1.02465 7.4929C0.91227 7.4364 0.764941 7.3529 0.697266 7.30734C0.62959 7.26179 0.510508 7.17092 0.432633 7.10544C0.354785 7.03997 0.241609 6.91233 0.18118 6.82183C0.0736367 6.66074 0.0705195 6.65858 0.0356289 6.7197ZM5.89244 7.83964C5.8736 7.88965 5.85219 8.07942 5.84486 8.26134C5.83436 8.52272 5.84139 8.62591 5.87839 8.7532C5.90414 8.84179 5.95725 8.96891 5.99638 9.03566C6.0355 9.10243 6.13214 9.2217 6.21113 9.3007C6.29013 9.3797 6.42614 9.49276 6.51334 9.55196C6.60054 9.61113 6.78262 9.71518 6.91797 9.78313C7.05332 9.85108 7.2748 9.94577 7.41016 9.99354C7.54551 10.0413 7.79775 10.1157 7.9707 10.1589C8.14365 10.2021 8.40205 10.2563 8.54492 10.2795C8.68779 10.3026 8.93211 10.3342 9.08786 10.3497C9.24361 10.3652 9.62505 10.3777 9.93552 10.3776C10.246 10.3774 10.66 10.3595 10.8557 10.3376C11.0513 10.3157 11.3452 10.272 11.5088 10.2404C11.6725 10.2088 11.9497 10.1417 12.125 10.0913C12.3003 10.0409 12.5587 9.95001 12.6993 9.88938C12.8399 9.82876 13.0543 9.72007 13.1757 9.64786C13.298 9.57515 13.4896 9.42498 13.605 9.31145C13.7433 9.17538 13.8403 9.05116 13.8931 8.94231C13.9708 8.78207 13.9727 8.76804 13.9727 8.34074C13.9727 8.04117 13.9614 7.87781 13.9371 7.82261L13.9015 7.74197L13.8233 7.87896C13.7802 7.95432 13.6722 8.08339 13.5832 8.16577C13.4942 8.24819 13.3506 8.36259 13.2641 8.42001C13.1775 8.47746 12.9816 8.58334 12.8288 8.65531C12.6759 8.72725 12.4093 8.83096 12.2363 8.88573C12.0634 8.94047 11.7732 9.01551 11.5914 9.05245C11.4096 9.08939 11.0959 9.13915 10.8941 9.16308C10.6644 9.19029 10.3025 9.20658 9.92578 9.20669C9.53854 9.20678 9.18783 9.19075 8.94141 9.16171C8.73086 9.13688 8.41709 9.08671 8.24414 9.05018C8.07119 9.01367 7.84971 8.96063 7.75195 8.93233C7.6542 8.90403 7.45117 8.83504 7.30078 8.77904C7.15039 8.72301 6.92582 8.62236 6.80173 8.55537C6.67764 8.48837 6.48692 8.36267 6.3779 8.27602C6.26361 8.18521 6.13378 8.04981 6.07124 7.95618C6.01161 7.8669 5.95468 7.7837 5.94475 7.77128C5.93482 7.75887 5.91128 7.78963 5.89244 7.83964ZM0.0378437 8.76638C0.00984375 8.81562 0 8.95021 0 9.2841C0 9.72048 0.00246094 9.7402 0.0746211 9.88567C0.115664 9.96838 0.201441 10.0966 0.265262 10.1706C0.329082 10.2445 0.47548 10.3749 0.590598 10.4602C0.705715 10.5456 0.915223 10.6719 1.05621 10.741C1.19716 10.8101 1.42324 10.9051 1.55859 10.9521C1.69395 10.9991 1.91915 11.0674 2.05907 11.1038C2.19898 11.1402 2.45738 11.1943 2.63329 11.2239C2.80919 11.2535 3.11161 11.2923 3.30531 11.3101C3.52923 11.3307 3.88771 11.3366 4.28969 11.3264C4.63739 11.3175 5.01416 11.2963 5.12695 11.2792C5.23975 11.2622 5.334 11.2462 5.33643 11.2437C5.33884 11.2412 5.31111 11.1507 5.27477 11.0425C5.22397 10.8912 5.20458 10.7597 5.19083 10.4726L5.17292 10.0994L5.07475 10.1157C5.02075 10.1246 4.6559 10.1397 4.26398 10.1491C3.68673 10.163 3.47126 10.1574 3.12922 10.1195C2.89702 10.0937 2.56268 10.0425 2.38626 10.0056C2.20984 9.96874 1.94198 9.90185 1.79102 9.85701C1.64008 9.81217 1.40432 9.7271 1.26714 9.66795C1.12998 9.60881 0.918477 9.50132 0.797152 9.42911C0.675828 9.35687 0.488496 9.21164 0.380871 9.10637C0.273246 9.0011 0.160562 8.86656 0.13043 8.80739L0.0756875 8.69982L0.0378437 8.76638ZM5.87882 9.97874C5.84188 10.1049 5.83398 10.213 5.84268 10.4737C5.85298 10.7836 5.86012 10.8202 5.94289 10.9884C5.99192 11.0879 6.09427 11.2375 6.17034 11.3207C6.24641 11.404 6.4102 11.5396 6.53431 11.6222C6.65842 11.7048 6.8632 11.8205 6.98936 11.8794C7.11553 11.9383 7.34325 12.0296 7.49539 12.0823C7.64753 12.135 7.91208 12.2095 8.08328 12.2478C8.25448 12.2861 8.51758 12.3358 8.66797 12.3583C8.81836 12.3807 9.13828 12.4131 9.37891 12.4302C9.6268 12.4479 9.98823 12.4537 10.2129 12.4435C10.431 12.4337 10.7201 12.4133 10.8555 12.3982C10.9908 12.3831 11.2123 12.3524 11.3477 12.33C11.483 12.3076 11.7358 12.2536 11.9095 12.2099C12.0831 12.1663 12.3248 12.0939 12.4465 12.049C12.5682 12.0041 12.7608 11.9233 12.8744 11.8693C12.9881 11.8154 13.1709 11.7112 13.2808 11.6377C13.3906 11.5642 13.5578 11.4236 13.6522 11.3253C13.7503 11.2232 13.8558 11.0784 13.8983 10.9878C13.9649 10.8455 13.9736 10.7922 13.9821 10.4736C13.9875 10.2662 13.9782 10.0583 13.9596 9.97453C13.9421 9.89559 13.919 9.83098 13.9082 9.83098C13.8975 9.83098 13.8654 9.87096 13.8368 9.91985C13.8082 9.96874 13.7109 10.0861 13.6205 10.1807C13.5301 10.2752 13.3753 10.4059 13.2764 10.471C13.1775 10.5361 13.023 10.6264 12.9331 10.6717C12.8431 10.7169 12.6492 10.7988 12.5022 10.8537C12.3551 10.9086 12.1213 10.9842 11.9826 11.0216C11.8439 11.059 11.5582 11.1194 11.3477 11.1556C11.1371 11.1919 10.768 11.2364 10.5273 11.2545C10.2618 11.2746 9.90924 11.2806 9.63028 11.2698C9.37748 11.26 9.0268 11.2337 8.85098 11.2113C8.67513 11.189 8.4082 11.1453 8.25781 11.1142C8.10742 11.0832 7.89824 11.0331 7.79297 11.003C7.6877 10.9728 7.49697 10.9107 7.36914 10.8649C7.24131 10.8192 7.00752 10.7148 6.84961 10.6331C6.6917 10.5513 6.48572 10.4233 6.39185 10.3486C6.298 10.2739 6.17496 10.1541 6.11841 10.0824C6.06189 10.0106 5.99547 9.92162 5.97084 9.88463L5.92607 9.81731L5.87882 9.97874Z" fill="white"/>
</svg>
