<svg width="12" height="11" viewBox="0 0 12 11" fill="none" xmlns="http://www.w3.org/2000/svg">
<path fill-rule="evenodd" clip-rule="evenodd" d="M7.38357 0.00994611C7.33845 0.0203914 6.87303 0.30329 6.34929 0.638579C5.43459 1.2242 5.39773 1.25105 5.41485 1.31979C5.42464 1.35917 5.47011 1.4529 5.51591 1.5281C5.56171 1.60329 5.65323 1.72847 5.71926 1.80629C5.7853 1.88409 5.89891 1.99152 5.97176 2.04498C6.0446 2.09846 6.17694 2.17831 6.26584 2.22241C6.35473 2.26652 6.50723 2.32331 6.60474 2.34863C6.73631 2.38281 6.85955 2.39183 7.08279 2.38358C7.31961 2.37483 7.42704 2.35694 7.58802 2.29949C7.70048 2.25935 7.87622 2.16931 7.97857 2.09939C8.08092 2.02945 8.22986 1.90016 8.30959 1.81206C8.38933 1.72393 8.48836 1.58973 8.52971 1.51383L8.60482 1.37579L8.48096 1.17851C8.41281 1.07001 8.23029 0.785032 8.07539 0.545227C7.89025 0.258665 7.76562 0.0934541 7.71169 0.0632119C7.66658 0.0379189 7.59275 0.0112861 7.54763 0.0040673C7.50251 -0.00315145 7.42869 -0.000499202 7.38357 0.00994611ZM2.51534 3.11833C1.22256 3.95018 0.137557 4.66191 0.104225 4.69997C0.0709202 4.73806 0.0306702 4.81736 0.0148381 4.8762C-0.00700951 4.95733 -0.00506805 5.00849 0.0229046 5.08768C0.0431937 5.14516 0.420428 5.75202 0.861182 6.4363C1.30194 7.12058 1.6947 7.72966 1.73399 7.78982L1.80544 7.89919L1.81912 6.28591L1.83279 4.67263L1.90525 4.53591C1.94512 4.46072 2.0251 4.35183 2.08298 4.29392C2.1409 4.23603 2.24978 4.15605 2.32497 4.11618L2.46169 4.04372L6.37981 4.03005L10.2979 4.01638L9.65444 3.00474C9.30053 2.44833 9.00163 1.99007 8.99023 1.98638C8.97883 1.98269 8.93992 2.0231 8.90374 2.0762C8.8676 2.12928 8.73402 2.27116 8.6069 2.39148C8.41481 2.57331 8.32436 2.63503 8.0711 2.75709C7.90351 2.83786 7.6741 2.92654 7.5613 2.95416C7.41075 2.99104 7.26175 3.00357 7.00076 3.0013C6.70134 2.99867 6.60736 2.98681 6.40474 2.92599C6.27246 2.88626 6.08789 2.81552 5.99459 2.76877C5.90132 2.72201 5.74978 2.63043 5.65785 2.56525C5.56595 2.50006 5.41214 2.36173 5.31605 2.25785C5.21999 2.15394 5.07939 1.96475 5.00362 1.83741L4.86587 1.60592L2.51534 3.11833ZM2.66636 4.69314C2.59448 4.72956 2.52242 4.79368 2.48967 4.85036C2.44116 4.93425 2.43323 5.00425 2.42524 5.41775L2.41617 5.88943H7.05317H11.6902V5.44405C11.6902 5.03655 11.685 4.98829 11.6287 4.87667C11.5837 4.78753 11.5343 4.73809 11.4452 4.69314L11.3231 4.63161H7.05544H2.78774L2.66636 4.69314ZM2.43263 6.90946C2.42508 6.92909 2.4224 7.64582 2.42664 8.50223C2.4341 10.008 2.43618 10.0625 2.48967 10.1551C2.52242 10.2117 2.59448 10.2759 2.66636 10.3123L2.78774 10.3738H7.05544H11.3231L11.4452 10.3123C11.5343 10.2673 11.5837 10.2179 11.6287 10.1287L11.6902 10.0067V8.44027V6.8738H7.06827C3.2933 6.8738 2.44381 6.88034 2.43263 6.90946ZM6.38815 8.24821C6.42719 8.27473 6.47332 8.32761 6.49069 8.3657C6.50805 8.40379 6.52224 8.47869 6.52224 8.53212C6.52224 8.60614 6.50012 8.65139 6.42927 8.72224L6.3363 8.81521H4.92263H3.50896L3.41599 8.72224C3.33803 8.64428 3.32302 8.60958 3.32302 8.50718C3.32302 8.42526 3.34159 8.36149 3.37943 8.31337C3.41047 8.27394 3.47505 8.23011 3.52299 8.21594C3.57324 8.20112 4.18287 8.19232 4.96365 8.19511C6.20694 8.19959 6.32293 8.20391 6.38815 8.24821Z" fill="white"/>
</svg>
