<svg width="14" height="14" viewBox="0 0 14 14" fill="none" xmlns="http://www.w3.org/2000/svg">
<path fill-rule="evenodd" clip-rule="evenodd" d="M8.99596 0.0232756C8.95836 0.03476 8.8772 0.0698967 8.81563 0.101342C8.75405 0.132815 8.66494 0.202678 8.61755 0.256627C8.57019 0.310576 8.50383 0.406662 8.47008 0.470155C8.42037 0.563698 8.40872 0.629705 8.40872 0.818022C8.40872 1.0091 8.4201 1.07188 8.47268 1.171C8.50787 1.23728 9.09467 2.03151 9.7767 2.93593C10.4587 3.84035 11.0591 4.62392 11.1108 4.67721C11.1625 4.73048 11.2647 4.80337 11.3377 4.83917C11.4438 4.89115 11.5147 4.90433 11.6893 4.90457C11.8733 4.90482 11.9301 4.89333 12.0465 4.8323C12.1227 4.79241 12.2296 4.71032 12.2842 4.64989C12.3388 4.58949 12.4023 4.50374 12.4252 4.45939C12.4481 4.41501 12.4779 4.30889 12.4913 4.22355C12.505 4.13578 12.5054 4.01396 12.4922 3.94306C12.4793 3.8741 12.4404 3.76705 12.4058 3.70514C12.3712 3.64323 11.7799 2.84564 11.0918 1.93272C10.4036 1.01979 9.79202 0.231252 9.73263 0.18042C9.67324 0.129561 9.56176 0.0676545 9.48489 0.0428538C9.40803 0.0180256 9.28197 -0.00122437 9.20473 6.07882e-05C9.12751 0.00134594 9.03356 0.0117913 8.99596 0.0232756ZM7.39635 1.59601C7.261 1.63142 7.05797 1.69371 6.94518 1.73445C6.83238 1.77519 6.6232 1.86824 6.48033 1.94122C6.33746 2.0142 6.12968 2.13454 6.01861 2.20864C5.90751 2.28274 5.70585 2.43393 5.57044 2.54456C5.43506 2.65522 5.22632 2.85628 5.10658 2.99136C4.98687 3.12644 4.81124 3.35407 4.71631 3.49722C4.6214 3.64036 4.5164 3.81424 4.48301 3.88361L4.42228 4.00978L5.85463 5.91419L7.28697 7.8186L7.4074 7.80233C7.47362 7.79339 7.64589 7.75095 7.79021 7.70805C7.93453 7.66512 8.1576 7.58311 8.28595 7.52577C8.4143 7.46843 8.62348 7.36272 8.75079 7.29083C8.87811 7.21892 9.09303 7.0775 9.22838 6.97652C9.36373 6.87557 9.59752 6.66906 9.74791 6.51766C9.8983 6.36626 10.0983 6.13384 10.1923 6.00122C10.2863 5.86858 10.4136 5.66891 10.4751 5.55754C10.5502 5.42145 10.5785 5.34415 10.5614 5.32187C10.5473 5.30363 9.89899 4.44279 9.12062 3.40884C8.34225 2.37492 7.69125 1.52956 7.67392 1.5303C7.65661 1.53104 7.5317 1.56062 7.39635 1.59601ZM3.10808 4.46508C3.03549 4.48542 2.92513 4.53787 2.86286 4.58164C2.80058 4.62539 2.70936 4.71401 2.66014 4.77855C2.61092 4.84308 2.55022 4.9658 2.52522 5.05127C2.48752 5.18039 2.48484 5.23622 2.5095 5.38123C2.52684 5.48325 2.57179 5.60818 2.6177 5.68201C2.66088 5.75144 3.2477 6.54039 3.92175 7.43521C4.59577 8.33003 5.1727 9.09005 5.20376 9.12415C5.23485 9.15825 5.33373 9.22283 5.4235 9.26771C5.56054 9.33617 5.6192 9.34927 5.78914 9.34927C5.94891 9.34927 6.02233 9.3347 6.1378 9.28006C6.21824 9.242 6.32961 9.16046 6.38529 9.09886C6.44096 9.03723 6.51263 8.92996 6.54454 8.86042C6.58799 8.76578 6.6022 8.68252 6.60103 8.52896C6.59988 8.37589 6.58429 8.29268 6.53956 8.20083C6.50661 8.13316 5.91875 7.33335 5.23324 6.42349C4.5477 5.51363 3.94817 4.72867 3.90092 4.67915C3.85367 4.62963 3.75331 4.55917 3.67793 4.52258C3.60257 4.48597 3.4732 4.44974 3.39049 4.44205C3.30302 4.43393 3.18486 4.44356 3.10808 4.46508ZM10.1211 7.27262C10.0105 7.37735 9.81977 7.53794 9.69724 7.62951C9.57472 7.72109 9.37921 7.85119 9.26278 7.91865C9.14632 7.98613 9.04602 8.04951 9.0399 8.05955C9.03375 8.06958 9.14553 8.2316 9.28826 8.41958C9.431 8.60757 9.55178 8.76546 9.55664 8.77043C9.56148 8.77538 9.86188 8.55674 10.2242 8.28453L10.8829 7.78964L10.6214 7.44153C10.4775 7.25006 10.3513 7.0909 10.341 7.08781C10.3306 7.08472 10.2317 7.1679 10.1211 7.27262ZM10.7049 8.93001C10.359 9.19407 10.0774 9.42534 10.0792 9.44394C10.0808 9.46253 10.6452 10.224 11.3333 11.1362C12.1514 12.2206 12.6235 12.8233 12.6974 12.8778C12.7596 12.9235 12.877 12.9804 12.9584 13.0041C13.06 13.0336 13.1545 13.0416 13.2592 13.0296C13.3432 13.0199 13.4775 12.9791 13.5575 12.9389C13.6375 12.8986 13.739 12.8247 13.7829 12.7747C13.8269 12.7246 13.8895 12.6317 13.922 12.5682C13.9599 12.4943 13.9855 12.3839 13.9932 12.2614C14.0021 12.1188 13.9922 12.0356 13.9545 11.9352C13.921 11.846 13.4788 11.2342 12.6462 10.1252C11.9545 9.20372 11.3762 8.44983 11.3612 8.44985C11.3462 8.44985 11.0508 8.66592 10.7049 8.93001ZM1.68151 10.6999C1.62135 10.7191 1.51061 10.7665 1.43541 10.8052C1.36022 10.8438 1.23865 10.935 1.16528 11.0079C1.08467 11.0879 0.992689 11.2214 0.932861 11.3454C0.835462 11.5471 0.833685 11.5568 0.824443 11.9401L0.815036 12.3297L0.728739 12.33C0.681271 12.3302 0.574767 12.3617 0.492052 12.4C0.409337 12.4384 0.300181 12.509 0.249458 12.557C0.198763 12.605 0.121872 12.718 0.0785871 12.8083C0.00388399 12.964 -8.08461e-05 12.9909 1.18514e-06 13.3415C5.58726e-05 13.6616 0.00727462 13.7224 0.0544152 13.7997C0.084302 13.8487 0.148833 13.9133 0.197861 13.9432C0.285661 13.9967 0.343411 13.9975 4.12877 13.9975C7.91413 13.9975 7.97188 13.9967 8.05968 13.9432C8.10871 13.9133 8.17324 13.8487 8.20313 13.7997C8.25027 13.7224 8.25749 13.6616 8.25754 13.3415C8.25762 12.9909 8.25366 12.964 8.17895 12.8083C8.13567 12.718 8.05878 12.605 8.00808 12.557C7.95736 12.509 7.8482 12.4384 7.76549 12.4C7.68277 12.3617 7.57627 12.3302 7.5288 12.33L7.44251 12.3297L7.4331 11.9401C7.42386 11.5568 7.42208 11.5471 7.32468 11.3454C7.26548 11.2228 7.17202 11.0866 7.09226 11.0069C7.0125 10.9271 6.87638 10.8337 6.75377 10.7745L6.54869 10.6754L4.16979 10.6701C2.2989 10.666 1.76753 10.6723 1.68151 10.6999Z" fill="white"/>
</svg>
