<svg width="14" height="12" viewBox="0 0 14 12" fill="none" xmlns="http://www.w3.org/2000/svg">
<path fill-rule="evenodd" clip-rule="evenodd" d="M6.62096 0.0407054C6.53283 0.0620609 6.38518 0.115901 6.29284 0.160334C6.20052 0.204795 6.06156 0.293991 5.98404 0.358522C5.9065 0.42308 5.79212 0.537405 5.72986 0.6126C5.66757 0.687795 5.58053 0.824377 5.5364 0.916116C5.49229 1.00788 5.43624 1.16784 5.41185 1.27158C5.38054 1.40475 5.3713 1.53665 5.38035 1.72002C5.38861 1.88685 5.41491 2.04336 5.4539 2.15752C5.48726 2.25528 5.55622 2.404 5.60716 2.48805C5.65808 2.57208 5.76382 2.70593 5.84216 2.78553C5.9205 2.8651 6.05068 2.97247 6.13145 3.02415C6.21223 3.07583 6.3607 3.15056 6.46141 3.19024C6.6273 3.25559 6.67926 3.2624 7.01367 3.2624C7.34809 3.2624 7.40004 3.25559 7.56593 3.19024C7.66664 3.15056 7.81908 3.07329 7.90472 3.01852C7.99034 2.96375 8.11915 2.85859 8.19096 2.78487C8.26279 2.71115 8.36456 2.57982 8.41714 2.49303C8.46975 2.40627 8.54126 2.25528 8.57607 2.15752C8.63004 2.00593 8.63929 1.92751 8.63874 1.62432C8.63816 1.28892 8.63319 1.25652 8.55061 1.0501C8.50246 0.929787 8.40104 0.748991 8.32524 0.648338C8.24945 0.547686 8.11098 0.407495 8.01754 0.336811C7.92411 0.266127 7.78162 0.178819 7.70093 0.14278C7.62024 0.106768 7.47873 0.0594906 7.38648 0.037725C7.29422 0.0159867 7.12031 -0.000993803 7 4.52596e-05C6.87969 0.00108432 6.70912 0.0193773 6.62096 0.0407054ZM11.5746 0.870479C11.4888 0.897905 11.3656 0.951416 11.3007 0.989424C11.2359 1.02743 11.1197 1.12519 11.0427 1.2067C10.9656 1.28821 10.8779 1.40322 10.8478 1.46225C10.8178 1.52131 10.7733 1.63646 10.7491 1.71816C10.7249 1.79984 10.7051 1.94834 10.7051 2.04815C10.7051 2.14795 10.7249 2.29646 10.7491 2.37813C10.7733 2.45983 10.8178 2.57498 10.8478 2.63404C10.8779 2.69308 10.9656 2.80808 11.0427 2.8896C11.1197 2.97111 11.2357 3.06878 11.3004 3.10668C11.3651 3.14458 11.4925 3.19877 11.5835 3.2271C11.6745 3.25543 11.8187 3.27856 11.9038 3.27851C12.01 3.27845 12.0866 3.26136 12.1477 3.22406C12.1967 3.19418 12.2613 3.12965 12.2912 3.08062C12.3245 3.0259 12.3455 2.94294 12.3456 2.86567C12.3457 2.77992 12.3258 2.71022 12.2833 2.64692C12.249 2.59581 12.1783 2.53284 12.1261 2.50695C12.0739 2.48108 11.9723 2.45256 11.9002 2.44359C11.8088 2.43219 11.7407 2.40228 11.675 2.34458C11.6193 2.29564 11.5691 2.21831 11.5521 2.15503C11.5319 2.08022 11.5319 2.01607 11.5521 1.94126C11.569 1.8784 11.6192 1.80074 11.6739 1.75264C11.7257 1.7072 11.8142 1.66293 11.8733 1.65295C11.9349 1.64253 12.0623 1.65229 12.1769 1.67619C12.2856 1.69883 12.4382 1.7518 12.5162 1.7939C12.5941 1.83599 12.7218 1.93401 12.7998 2.01175C12.8789 2.09058 12.9788 2.22968 13.0256 2.32621C13.0717 2.42142 13.1235 2.58253 13.1406 2.68422C13.1633 2.81905 13.1637 2.91456 13.1422 3.03701C13.1259 3.12935 13.0759 3.28329 13.0311 3.37913C12.9816 3.48476 12.8902 3.61267 12.7988 3.70406C12.6987 3.80422 12.5774 3.88835 12.4371 3.95499C12.2567 4.04063 12.1918 4.05682 11.9919 4.06614L11.7578 4.07703L11.7053 3.98545C11.6764 3.93506 11.5851 3.80326 11.5023 3.69252C11.4195 3.58178 11.2541 3.39346 11.1346 3.27402C11.0152 3.15456 10.8297 2.99487 10.7224 2.9191C10.6151 2.84336 10.4305 2.73242 10.3121 2.67257C10.1938 2.61271 10.0041 2.54003 9.89078 2.51102C9.77739 2.48204 9.60187 2.4583 9.50075 2.4583H9.31689L9.25796 2.60353C9.22554 2.6834 9.14017 2.8403 9.06823 2.95216C8.99629 3.06405 8.87283 3.22595 8.79386 3.31198C8.71489 3.398 8.57429 3.52589 8.4814 3.59613C8.38852 3.66638 8.20176 3.77742 8.06641 3.84288C7.93105 3.90834 7.72188 3.98783 7.60156 4.01952C7.43168 4.06428 7.30037 4.07724 7.01367 4.07765C6.72246 4.07806 6.59835 4.06587 6.42578 4.0199C6.30547 3.98786 6.10323 3.91203 5.97636 3.85139C5.84951 3.79074 5.6618 3.6789 5.55923 3.60286C5.45666 3.52684 5.30417 3.38895 5.22033 3.29642C5.13652 3.20391 5.01121 3.03731 4.94186 2.92621C4.87255 2.81511 4.77613 2.61824 4.72762 2.48871C4.65062 2.28308 4.61921 2.23493 4.47989 2.10901C4.39212 2.02969 4.23082 1.90265 4.12144 1.82666C4.01207 1.7507 3.83242 1.64688 3.72225 1.59599C3.61205 1.54508 3.41469 1.47234 3.28366 1.43439C3.15262 1.39641 2.92007 1.35348 2.76686 1.33901C2.58863 1.32217 2.38804 1.32212 2.21003 1.3389C2.05696 1.35334 1.8244 1.39627 1.69321 1.43428C1.56201 1.47231 1.36451 1.54508 1.25431 1.59599C1.14414 1.64688 0.964496 1.75046 0.855121 1.82609C0.745746 1.90175 0.592867 2.02266 0.515375 2.09477C0.419016 2.18446 0.363672 2.2626 0.340156 2.34209C0.312566 2.43542 0.312566 2.48092 0.340184 2.57309C0.368895 2.66893 0.477422 2.78853 0.997199 3.29735L1.61984 3.90681L1.42256 4.20546C1.31406 4.36971 1.18423 4.59751 1.13405 4.71167L1.04286 4.91924H0.675527C0.354512 4.91924 0.295695 4.92638 0.208797 4.97579C0.154109 5.00688 0.0847656 5.06531 0.0546875 5.10567C0.00169531 5.17674 0 5.22169 0 6.55987C0 7.89804 0.00169531 7.94299 0.0546875 8.01406C0.0847656 8.05442 0.154109 8.11285 0.208797 8.14394C0.300809 8.19628 0.352078 8.20049 0.896957 8.20049H1.4857L1.66212 8.42643C1.75916 8.55071 1.92027 8.72883 2.02013 8.82223C2.12002 8.91567 2.26734 9.04164 2.34754 9.10221C2.42774 9.16274 2.59418 9.27289 2.71739 9.34693C2.84061 9.42101 3.02712 9.51521 3.13184 9.5563L3.32227 9.63101L3.32237 10.4128C3.32246 11.1447 3.32593 11.2003 3.37682 11.2837C3.4067 11.3328 3.47123 11.3973 3.52026 11.4272C3.60464 11.4787 3.65955 11.4815 4.55273 11.4815C5.43966 11.4815 5.50132 11.4784 5.58348 11.4283C5.63153 11.3989 5.69144 11.3436 5.71657 11.3052C5.7417 11.2668 5.82911 10.9679 5.91082 10.6408C5.99255 10.3138 6.07154 10.0001 6.08642 9.94365L6.11343 9.84112H7.01367H7.91391L7.94093 9.94365C7.9558 10.0001 8.0348 10.3138 8.11653 10.6408C8.19823 10.9679 8.28565 11.2668 8.31078 11.3052C8.33591 11.3436 8.39582 11.3989 8.44386 11.4283C8.52603 11.4784 8.58769 11.4815 9.47461 11.4815C10.3678 11.4815 10.4227 11.4787 10.5071 11.4272C10.5561 11.3973 10.6206 11.3328 10.6505 11.2837C10.7021 11.1992 10.7049 11.1443 10.705 10.2072L10.7051 9.21978L10.9089 9.06371C11.0209 8.97787 11.2169 8.79809 11.3443 8.66421C11.4717 8.53034 11.6392 8.3251 11.7166 8.20812C11.7939 8.09112 11.9111 7.88467 11.977 7.74932C12.0429 7.61397 12.1273 7.41094 12.1645 7.29815C12.2017 7.18535 12.2522 7.00078 12.2769 6.88799C12.3014 6.7752 12.3286 6.50914 12.3373 6.29674C12.3473 6.05168 12.3408 5.82703 12.3196 5.68202C12.3012 5.55632 12.2565 5.33927 12.2202 5.19968C12.184 5.06012 12.1543 4.93376 12.1543 4.91889C12.1543 4.90404 12.1825 4.8919 12.2169 4.8919C12.2513 4.8919 12.3529 4.87336 12.4425 4.85072C12.5321 4.82808 12.7162 4.7549 12.8516 4.6881C12.9869 4.6213 13.168 4.50755 13.2541 4.43534C13.3401 4.3631 13.4743 4.22403 13.5524 4.12627C13.6304 4.02852 13.7352 3.8624 13.7852 3.75713C13.8352 3.65186 13.9009 3.46841 13.9312 3.34944C13.9678 3.20594 13.9863 3.04409 13.9863 2.86846C13.9863 2.69455 13.9676 2.52959 13.9318 2.38748C13.9018 2.26851 13.8287 2.07276 13.7695 1.95244C13.7102 1.83213 13.5947 1.65284 13.513 1.55405C13.4312 1.45522 13.2859 1.31503 13.19 1.24249C13.0941 1.16995 12.9295 1.06949 12.8242 1.01926C12.7189 0.969026 12.5355 0.903127 12.4165 0.872803C12.2782 0.837557 12.1156 0.818198 11.9654 0.819155C11.8171 0.820084 11.673 0.839006 11.5746 0.870479ZM3.0196 4.94604C3.071 4.96078 3.14803 5.00636 3.19077 5.04729C3.23348 5.08822 3.28109 5.16864 3.29654 5.22598C3.31548 5.29637 3.31568 5.36259 3.29711 5.4298C3.28199 5.48455 3.23591 5.56453 3.19471 5.60754C3.1535 5.65055 3.07305 5.69832 3.01596 5.71369C2.94448 5.73294 2.87878 5.73269 2.80522 5.71289C2.74176 5.69578 2.66459 5.64563 2.61518 5.58935C2.56944 5.53726 2.52402 5.45209 2.51426 5.40014C2.50452 5.34815 2.51035 5.26377 2.52722 5.21264C2.54409 5.16151 2.59145 5.08757 2.63246 5.04836C2.67348 5.00915 2.73779 4.96482 2.77539 4.94989C2.81299 4.93494 2.86229 4.92192 2.88496 4.92096C2.9076 4.92003 2.96819 4.9313 3.0196 4.94604Z" fill="white"/>
</svg>
