<svg width="22" height="22" viewBox="0 0 22 22" fill="none" xmlns="http://www.w3.org/2000/svg">
<path d="M10.0377 2.53833C5.90282 2.53833 2.53857 5.90257 2.53857 10.0375C2.53857 14.1727 5.90282 17.5367 10.0377 17.5367C14.1729 17.5367 17.5369 14.1727 17.5369 10.0375C17.5369 5.90257 14.1729 2.53833 10.0377 2.53833ZM10.0377 16.1522C6.66612 16.1522 3.92304 13.4092 3.92304 10.0375C3.92304 6.66591 6.66612 3.92279 10.0377 3.92279C13.4094 3.92279 16.1525 6.66588 16.1525 10.0375C16.1525 13.4091 13.4094 16.1522 10.0377 16.1522Z" fill="#2E2E2E" fill-opacity="0.7"/>
<path d="M19.3643 18.3855L15.3955 14.4167C15.1251 14.1463 14.6871 14.1463 14.4167 14.4167C14.1463 14.6869 14.1463 15.1253 14.4167 15.3955L18.3855 19.3643C18.5207 19.4995 18.6977 19.5671 18.8749 19.5671C19.0519 19.5671 19.2291 19.4995 19.3643 19.3643C19.6348 19.0941 19.6348 18.6557 19.3643 18.3855Z" fill="#2E2E2E" fill-opacity="0.7"/>
</svg>
