<svg width="16" height="16" viewBox="0 0 16 16" fill="none" xmlns="http://www.w3.org/2000/svg">
<g clip-path="url(#clip0_4407_1456)">
<path fill-rule="evenodd" clip-rule="evenodd" d="M12.256 15.1861C12.4707 15.3381 12.7474 15.3761 12.994 15.2828C13.2407 15.1888 13.422 14.9781 13.4767 14.7228C14.056 12.0001 15.4614 5.10877 15.9887 2.6321C16.0287 2.44543 15.962 2.25143 15.8154 2.12677C15.6687 2.0021 15.4654 1.9661 15.284 2.03343C12.4887 3.0681 3.88002 6.2981 0.361354 7.6001C0.138021 7.68277 -0.00731224 7.89743 2.10952e-05 8.13277C0.00802109 8.36877 0.166688 8.57343 0.395354 8.6421C1.97335 9.1141 4.04469 9.77077 4.04469 9.77077C4.04469 9.77077 5.01269 12.6941 5.51735 14.1808C5.58069 14.3674 5.72669 14.5141 5.91935 14.5648C6.11135 14.6148 6.31669 14.5621 6.46002 14.4268C7.27069 13.6614 8.52402 12.4781 8.52402 12.4781C8.52402 12.4781 10.9054 14.2241 12.256 15.1861V15.1861ZM4.91602 9.40143L6.03535 13.0934L6.28402 10.7554C6.28402 10.7554 10.6087 6.85477 13.074 4.63143C13.146 4.5661 13.156 4.45677 13.096 4.3801C13.0367 4.30343 12.9274 4.28543 12.8454 4.33743C9.98802 6.1621 4.91602 9.40143 4.91602 9.40143Z" fill="white"/>
</g>
<defs>
<clipPath id="clip0_4407_1456">
<rect width="16" height="16" fill="white"/>
</clipPath>
</defs>
</svg>
