<svg width="18" height="18" viewBox="0 0 18 18" fill="none" xmlns="http://www.w3.org/2000/svg">
<g clip-path="url(#clip0_3151_2608)">
<path d="M17.2387 13.0627L14.7987 10.6227C13.9273 9.75131 12.4458 10.0999 12.0973 11.2327C11.8358 12.0171 10.9644 12.4528 10.1801 12.2785C8.43726 11.8427 6.08441 9.57702 5.64869 7.74702C5.38727 6.96271 5.91012 6.09128 6.69441 5.82988C7.82726 5.48131 8.17584 3.99988 7.30441 3.12846L4.86441 0.688457C4.16727 0.0784571 3.12155 0.0784571 2.51155 0.688457L0.85584 2.34417C-0.799874 4.08703 1.03013 8.7056 5.12584 12.8013C9.22155 16.897 13.8401 18.8142 15.583 17.0713L17.2387 15.4156C17.8487 14.7184 17.8487 13.6727 17.2387 13.0627Z" fill="white"/>
</g>
<defs>
<clipPath id="clip0_3151_2608">
<rect width="17.4844" height="17.4844" fill="white" transform="translate(0.230957 0.230957)"/>
</clipPath>
</defs>
</svg>
