<svg width="16" height="16" viewBox="0 0 16 16" fill="none" xmlns="http://www.w3.org/2000/svg">
<path fill-rule="evenodd" clip-rule="evenodd" d="M7.14646 0.0327971C6.99156 0.0483596 6.6888 0.0961409 6.47366 0.138985C6.25852 0.181797 5.89617 0.272485 5.66845 0.340485C5.44073 0.408485 5.0746 0.541797 4.85482 0.636766C4.63505 0.731703 4.31442 0.888172 4.14231 0.984485C3.97019 1.08077 3.70263 1.24398 3.54773 1.3472C3.39283 1.45042 3.16048 1.6202 3.03139 1.72452C2.90231 1.82883 2.68767 2.01252 2.55439 2.13273C2.42114 2.25295 2.18879 2.49042 2.03805 2.66045C1.88734 2.83045 1.66948 3.09627 1.55391 3.25114C1.43834 3.40602 1.24223 3.70233 1.11809 3.90967C0.993947 4.11698 0.811758 4.46383 0.713184 4.68039C0.61461 4.89698 0.483898 5.22183 0.422719 5.4023C0.361541 5.58277 0.276141 5.87105 0.232956 6.04292C0.189772 6.2148 0.124901 6.5312 0.0887882 6.74605C0.0461667 6.99958 0.0168135 7.35067 0.00520373 7.74645C-0.00612445 8.13142 0.00126077 8.49433 0.0252315 8.73083C0.0460728 8.93686 0.0972374 9.2812 0.138857 9.49605C0.180509 9.71089 0.255769 10.0303 0.30612 10.2058C0.356471 10.3814 0.447003 10.6556 0.507305 10.8152C0.567607 10.9748 0.675851 11.232 0.747825 11.3867C0.8198 11.5414 0.935179 11.7664 1.00418 11.8867C1.07318 12.007 1.21591 12.2378 1.32134 12.3996L1.51304 12.6937L1.01798 14.1601C0.745697 14.9666 0.529774 15.6333 0.538129 15.6416C0.546484 15.65 1.23885 15.4376 2.07676 15.1697L3.60018 14.6827L3.8556 14.8351C3.99607 14.9189 4.20255 15.0377 4.31442 15.0992C4.42629 15.1606 4.63752 15.2622 4.78382 15.325C4.93011 15.3877 5.18359 15.4873 5.3471 15.5464C5.51061 15.6055 5.80633 15.6946 6.00426 15.7445C6.20219 15.7944 6.44862 15.851 6.55189 15.8702C6.65516 15.8894 6.90863 15.9254 7.11517 15.9503C7.32171 15.9752 7.71003 15.9956 7.97812 15.9958C8.24621 15.9959 8.61938 15.9811 8.80739 15.9628C8.9954 15.9445 9.32526 15.8949 9.5404 15.8524C9.75554 15.81 10.1179 15.7196 10.3456 15.6516C10.5733 15.5836 10.9395 15.4503 11.1592 15.3553C11.379 15.2604 11.6996 15.1039 11.8718 15.0076C12.0439 14.9113 12.3114 14.7481 12.4663 14.6449C12.6212 14.5417 12.8536 14.3719 12.9827 14.2676C13.1118 14.1633 13.3264 13.9796 13.4597 13.8594C13.5929 13.7391 13.8225 13.5047 13.9697 13.3383C14.117 13.172 14.3348 12.9063 14.4536 12.748C14.5725 12.5897 14.7715 12.2904 14.8957 12.0828C15.02 11.8753 15.2023 11.5283 15.3009 11.3117C15.3995 11.0951 15.5302 10.7703 15.5913 10.5898C15.6525 10.4093 15.7379 10.121 15.7811 9.94917C15.8244 9.7773 15.8913 9.45386 15.9298 9.23042C15.9906 8.87905 16 8.71233 16 7.99605C16 7.27977 15.9906 7.11305 15.9298 6.76167C15.8913 6.53823 15.8244 6.2148 15.7811 6.04292C15.7379 5.87105 15.6525 5.58277 15.5913 5.4023C15.5302 5.22183 15.3995 4.89698 15.3009 4.68039C15.2023 4.46383 15.02 4.1168 14.8957 3.90927C14.7715 3.70173 14.5725 3.40239 14.4536 3.24408C14.3348 3.08577 14.117 2.82014 13.9697 2.6538C13.8225 2.48742 13.5929 2.25295 13.4597 2.13273C13.3264 2.01252 13.1118 1.82883 12.9827 1.72452C12.8536 1.6202 12.6212 1.45042 12.4663 1.3472C12.3114 1.24398 12.0439 1.08077 11.8718 0.984485C11.6996 0.888172 11.379 0.731703 11.1592 0.636766C10.9395 0.541797 10.5733 0.408485 10.3456 0.340485C10.1179 0.272485 9.75554 0.18211 9.5404 0.139672C9.32526 0.0972034 8.9954 0.0475471 8.80739 0.0292659C8.61938 0.0109846 8.23212 -0.00204662 7.94682 0.000265881C7.66152 0.00257838 7.30137 0.0172034 7.14646 0.0327971ZM5.42815 3.70114C5.48135 3.70917 5.55367 3.74717 5.5889 3.78558C5.62414 3.82398 5.68222 3.91361 5.71796 3.98473C5.75369 4.05589 5.9524 4.52264 6.15957 5.02195C6.4168 5.64195 6.53624 5.96777 6.53624 6.04936C6.53624 6.11511 6.50458 6.22702 6.46583 6.29808C6.42709 6.36914 6.26919 6.56908 6.11491 6.74242C5.96063 6.91577 5.81478 7.09498 5.79081 7.1407C5.76508 7.18967 5.75422 7.26717 5.76436 7.32942C5.77378 7.38752 5.87145 7.57183 5.98135 7.73898C6.09125 7.90614 6.2941 8.18355 6.43213 8.35542C6.57013 8.5273 6.81551 8.79514 6.97735 8.95064C7.1392 9.10614 7.40542 9.33348 7.56892 9.45583C7.73243 9.5782 7.97183 9.74033 8.10091 9.81614C8.23 9.89195 8.47643 10.0182 8.64854 10.0967C8.82066 10.1752 9.01837 10.2563 9.0879 10.277C9.18313 10.3052 9.24637 10.3059 9.34441 10.2795C9.41598 10.2603 9.51578 10.2033 9.56619 10.153C9.61657 10.1027 9.73455 9.95886 9.82836 9.83345C9.92215 9.70805 10.0587 9.5237 10.1319 9.4238C10.2051 9.32392 10.3097 9.21411 10.3643 9.17977C10.4389 9.13286 10.4986 9.12111 10.6045 9.13242C10.6876 9.14133 10.9411 9.23817 11.2224 9.36842C11.4847 9.48992 11.9393 9.70927 12.2325 9.85589C12.6639 10.0716 12.7721 10.1387 12.7992 10.2077C12.8193 10.259 12.8254 10.3986 12.8145 10.5585C12.8045 10.7046 12.7627 10.9392 12.7217 11.0797C12.6806 11.2203 12.6107 11.3972 12.5662 11.473C12.5218 11.5487 12.3955 11.6938 12.2856 11.7955C12.1757 11.8972 12.0068 12.0273 11.9104 12.0846C11.8139 12.1419 11.6354 12.2292 11.5136 12.2787C11.3919 12.3281 11.1874 12.3903 11.0592 12.4167C10.931 12.4432 10.7428 12.4648 10.6411 12.4648C10.5393 12.4648 10.3317 12.4431 10.1797 12.4167C10.0277 12.3902 9.77898 12.3328 9.62705 12.2892C9.47516 12.2455 9.18579 12.1497 8.98404 12.0762C8.78232 12.0027 8.49051 11.8903 8.33561 11.8264C8.18071 11.7625 7.92019 11.6393 7.75668 11.5525C7.59318 11.4658 7.32149 11.304 7.15294 11.1931C6.9844 11.0821 6.7098 10.8823 6.54272 10.749C6.37565 10.6157 6.09567 10.3702 5.92052 10.2035C5.74537 10.0367 5.46332 9.74255 5.29374 9.54973C5.12416 9.35692 4.90752 9.10073 4.8123 8.98042C4.71707 8.86011 4.51967 8.59292 4.37363 8.38667C4.22758 8.18042 4.0575 7.9273 3.99563 7.82417C3.9338 7.72105 3.83413 7.53823 3.77417 7.41792C3.71418 7.29761 3.62712 7.0937 3.58072 6.9648C3.53428 6.83589 3.46925 6.61792 3.43617 6.48042C3.39549 6.31127 3.37599 6.11739 3.37584 5.88089C3.37571 5.68867 3.39596 5.43483 3.42084 5.3168C3.44568 5.19877 3.50023 5.00811 3.54201 4.89314C3.58381 4.77814 3.66555 4.60464 3.72369 4.50758C3.78181 4.41052 3.93117 4.22239 4.05562 4.08955C4.21378 3.92073 4.32941 3.82761 4.43981 3.78017C4.52665 3.74286 4.67833 3.70039 4.77684 3.68583C4.87535 3.67123 5.04042 3.66542 5.14369 3.67292C5.24696 3.68039 5.37498 3.69311 5.42815 3.70114Z" fill="#fff"/>
</svg>
