<svg width="16" height="16" viewBox="0 0 16 16" fill="none" xmlns="http://www.w3.org/2000/svg">
<path d="M14.3299 4.21022C14.0799 3.31772 13.5849 2.61272 12.8599 2.11397C11.9449 1.48272 10.8924 1.26022 9.98367 1.12397C8.72617 0.936473 7.58742 0.910223 6.50117 1.04272C5.48367 1.16772 4.71742 1.36647 4.01867 1.68772C2.64867 2.31772 1.82617 3.33647 1.57492 4.71522C1.45242 5.38522 1.36992 5.99022 1.32242 6.56772C1.21242 7.90272 1.31242 9.08397 1.62742 10.179C1.93492 11.2465 2.47117 12.009 3.26742 12.5102C3.46992 12.6377 3.72992 12.7302 3.98117 12.819C4.12367 12.869 4.26242 12.9177 4.37617 12.9715C4.48117 13.0202 4.48117 13.029 4.47992 13.1165C4.47117 13.8752 4.47992 15.3627 4.47992 15.3627L4.48242 15.6802H5.05242L5.14492 15.5902C5.20617 15.5327 6.61867 14.1677 7.12242 13.6177L7.19117 13.5415C7.27742 13.4415 7.27742 13.4415 7.36617 13.4402C8.04617 13.4265 8.74117 13.4002 9.43117 13.3627C10.2674 13.3177 11.2362 13.2365 12.1487 12.8565C12.9837 12.5077 13.5937 11.954 13.9599 11.2115C14.3424 10.4365 14.5687 9.59772 14.6537 8.64647C14.8037 6.97397 14.6974 5.52272 14.3299 4.21022ZM11.3224 10.714C11.1124 11.0552 10.7999 11.2927 10.4312 11.4465C10.1612 11.559 9.88617 11.5352 9.61992 11.4227C7.39117 10.479 5.64242 8.99272 4.48742 6.85522C4.24867 6.41522 4.08367 5.93522 3.89367 5.47022C3.85492 5.37522 3.85742 5.26272 3.83992 5.15772C3.85617 4.40647 4.43242 3.98272 5.01492 3.85522C5.23742 3.80522 5.43492 3.88397 5.59992 4.04272C6.05742 4.47772 6.41867 4.98397 6.69117 5.55147C6.80992 5.80022 6.75617 6.02022 6.55367 6.20522C6.51117 6.24397 6.46742 6.27897 6.42117 6.31397C5.95867 6.66147 5.89117 6.92522 6.13742 7.44897C6.55742 8.34022 7.25492 8.93897 8.15617 9.31022C8.39367 9.40772 8.61742 9.35897 8.79867 9.16647C8.82367 9.14147 8.85117 9.11647 8.86867 9.08647C9.22367 8.49397 9.73992 8.55272 10.2162 8.89022C10.5287 9.11272 10.8324 9.34772 11.1412 9.57397C11.6124 9.92022 11.6087 10.2452 11.3224 10.714ZM8.36617 4.80022C8.26117 4.80022 8.15617 4.80897 8.05242 4.82647C7.87742 4.85522 7.71367 4.73772 7.68367 4.56272C7.65492 4.38897 7.77242 4.22397 7.94742 4.19522C8.08492 4.17147 8.22617 4.16022 8.36617 4.16022C9.75242 4.16022 10.8799 5.28772 10.8799 6.67397C10.8799 6.81522 10.8687 6.95647 10.8449 7.09272C10.8187 7.24897 10.6837 7.36022 10.5299 7.36022C10.5124 7.36022 10.4949 7.35897 10.4762 7.35522C10.3024 7.32647 10.1849 7.16147 10.2137 6.98772C10.2312 6.88522 10.2399 6.78022 10.2399 6.67397C10.2399 5.64147 9.39867 4.80022 8.36617 4.80022ZM9.91992 6.72022C9.91992 6.89647 9.77617 7.04022 9.59992 7.04022C9.42367 7.04022 9.27992 6.89647 9.27992 6.72022C9.27992 6.19147 8.84867 5.76022 8.31992 5.76022C8.14367 5.76022 7.99992 5.61647 7.99992 5.44022C7.99992 5.26397 8.14367 5.12022 8.31992 5.12022C9.20242 5.12022 9.91992 5.83772 9.91992 6.72022ZM11.7474 7.43147C11.7137 7.58022 11.5812 7.68022 11.4349 7.68022C11.4112 7.68022 11.3874 7.67772 11.3637 7.67272C11.1912 7.63272 11.0837 7.46147 11.1224 7.28897C11.1687 7.08522 11.1924 6.87397 11.1924 6.66147C11.1924 5.10647 9.92617 3.84022 8.37117 3.84022C8.15867 3.84022 7.94742 3.86397 7.74367 3.91022C7.57117 3.95022 7.39992 3.84147 7.36117 3.66897C7.32117 3.49647 7.42992 3.32522 7.60242 3.28647C7.85242 3.22897 8.11117 3.20022 8.37117 3.20022C10.2799 3.20022 11.8324 4.75272 11.8324 6.66147C11.8324 6.92147 11.8037 7.18022 11.7474 7.43147Z" fill="#286BB2"/>
</svg>
