<svg width="16" height="16" viewBox="0 0 16 16" fill="none" xmlns="http://www.w3.org/2000/svg">
<g clip-path="url(#clip0_4407_2860)">
<path d="M7.99822 5.81812C6.79457 5.81812 5.81641 6.79628 5.81641 7.99993C5.81641 9.20357 6.79457 10.1817 7.99822 10.1817C9.20187 10.1817 10.18 9.20357 10.18 7.99993C10.18 6.79628 9.20183 5.81812 7.99822 5.81812Z" fill="#1A89FF"/>
<path d="M8.00002 2.54541C4.36364 2.54541 1.25819 4.80721 0 7.99996C1.25819 11.1927 4.36364 13.4545 8.00002 13.4545C11.64 13.4545 14.7418 11.1927 16 7.99996C14.7418 4.80721 11.64 2.54541 8.00002 2.54541ZM8.00002 11.6363C5.99274 11.6363 4.36364 10.0072 4.36364 7.99993C4.36364 5.99265 5.99274 4.36358 8.00002 4.36358C10.0073 4.36358 11.6364 5.99269 11.6364 7.99996C11.6364 10.0072 10.0073 11.6363 8.00002 11.6363Z" fill="#1A89FF"/>
</g>
<defs>
<clipPath id="clip0_4407_2860">
<rect width="16" height="16" fill="white"/>
</clipPath>
</defs>
</svg>
