<svg width="16" height="16" viewBox="0 0 16 16" fill="none" xmlns="http://www.w3.org/2000/svg">
<g clip-path="url(#clip0_3369_2322)">
<path d="M7.99993 5.81836C6.79628 5.81836 5.81812 6.79653 5.81812 8.00017C5.81812 9.20382 6.79628 10.182 7.99993 10.182C9.20357 10.182 10.1817 9.20382 10.1817 8.00017C10.1817 6.79653 9.20354 5.81836 7.99993 5.81836Z" fill="white"/>
<path d="M8.00002 2.5459C4.36364 2.5459 1.25819 4.8077 0 8.00045C1.25819 11.1932 4.36364 13.455 8.00002 13.455C11.64 13.455 14.7418 11.1932 16 8.00045C14.7418 4.8077 11.64 2.5459 8.00002 2.5459ZM8.00002 11.6368C5.99274 11.6368 4.36364 10.0077 4.36364 8.00041C4.36364 5.99314 5.99274 4.36407 8.00002 4.36407C10.0073 4.36407 11.6364 5.99317 11.6364 8.00045C11.6364 10.0077 10.0073 11.6368 8.00002 11.6368Z" fill="white"/>
</g>
<defs>
<clipPath id="clip0_3369_2322">
<rect width="16" height="16" fill="white"/>
</clipPath>
</defs>
</svg>
