<svg width="16" height="16" viewBox="0 0 16 16" fill="none" xmlns="http://www.w3.org/2000/svg">
<path fill-rule="evenodd" clip-rule="evenodd" d="M6.46875 3.01846C6.33984 3.03356 6.15 3.06332 6.04688 3.0846C5.94375 3.10588 5.78681 3.16223 5.69809 3.20983C5.60941 3.2574 5.48638 3.35769 5.42466 3.43271C5.36297 3.50771 5.3125 3.59862 5.3125 3.63476C5.3125 3.68587 5.34744 3.70869 5.46978 3.73752C5.55628 3.75787 5.68097 3.80475 5.74687 3.84168C5.81275 3.87858 5.90994 3.9488 5.96281 3.99767C6.01719 4.04792 6.08628 4.16667 6.12181 4.271C6.15641 4.37246 6.20809 4.59963 6.23672 4.77583C6.27337 5.00132 6.28947 5.30441 6.29112 5.79973C6.29275 6.29289 6.27738 6.62852 6.23966 6.92199C6.21006 7.15225 6.16506 7.40541 6.13966 7.48452C6.11422 7.56363 6.06494 7.67898 6.03013 7.74086C5.98209 7.82622 5.93747 7.85875 5.84491 7.87595C5.75531 7.89256 5.68453 7.87989 5.57819 7.82824C5.49856 7.78956 5.3445 7.66024 5.23578 7.54084C5.12709 7.42147 4.94653 7.17007 4.83453 6.98219C4.72253 6.79432 4.48638 6.33943 4.30969 5.97134C4.133 5.60324 3.88709 5.07041 3.76322 4.78726C3.63934 4.50411 3.49403 4.15548 3.44025 4.01253C3.38562 3.86725 3.298 3.70533 3.24156 3.64533C3.18606 3.5863 3.08834 3.51409 3.02444 3.48481C2.926 3.43972 2.71616 3.43162 1.64944 3.43179C0.900531 3.43189 0.344719 3.44596 0.277281 3.46652C0.214969 3.48557 0.127062 3.54162 0.0819687 3.59114C0.02075 3.65841 0 3.71603 0 3.81893C0 3.9164 0.0697188 4.12813 0.238594 4.54355C0.369844 4.86637 0.615937 5.43538 0.7855 5.80804C0.955062 6.18069 1.22913 6.75214 1.3945 7.07791C1.55991 7.40369 1.794 7.84784 1.91475 8.06492C2.0355 8.282 2.23284 8.62178 2.35328 8.81998C2.47375 9.01818 2.75153 9.44291 2.97062 9.76381C3.18969 10.0847 3.48081 10.494 3.61756 10.6733C3.75431 10.8527 3.97012 11.1006 4.09716 11.2243C4.22419 11.348 4.41344 11.5205 4.51772 11.6076C4.62197 11.6947 4.86103 11.8759 5.04897 12.0102C5.23688 12.1446 5.52422 12.3297 5.6875 12.4217C5.85078 12.5136 6.13203 12.6428 6.3125 12.7087C6.49297 12.7745 6.76016 12.857 6.90625 12.8918C7.12953 12.9451 7.31384 12.9552 8.0625 12.9554L8.95312 12.9557L9.09375 12.8692C9.18775 12.8114 9.25306 12.7392 9.29075 12.6513C9.32922 12.5617 9.35631 12.3765 9.37603 12.0685C9.39191 11.8203 9.42419 11.5399 9.44775 11.4455C9.47131 11.3512 9.52731 11.1946 9.57219 11.0976C9.61703 11.0006 9.71309 10.8655 9.78563 10.7973C9.88772 10.7013 9.94472 10.6733 10.0381 10.6733C10.1045 10.6733 10.2109 10.7031 10.2747 10.7396C10.3384 10.7761 10.4547 10.865 10.5331 10.9371C10.6115 11.0092 10.873 11.3076 11.1143 11.6001C11.3556 11.8926 11.6538 12.2362 11.777 12.3636C11.9002 12.4909 12.0606 12.6368 12.1333 12.6876C12.2061 12.7385 12.3641 12.8252 12.4844 12.8804C12.6582 12.9602 12.7642 12.984 13 12.9964C13.1633 13.0049 13.8031 12.9978 14.4219 12.9805C15.3683 12.954 15.5667 12.9397 15.6719 12.8905C15.7406 12.8583 15.835 12.7918 15.8816 12.7428C15.9362 12.6853 15.9734 12.6018 15.9862 12.5077C15.999 12.4145 15.9883 12.2941 15.9567 12.1749C15.9296 12.0721 15.8356 11.8675 15.748 11.7201C15.6604 11.5727 15.5105 11.3425 15.4149 11.2086C15.3193 11.0746 14.8574 10.5438 14.3886 10.0289C13.8254 9.41044 13.514 9.04276 13.4711 8.94549C13.4346 8.86264 13.4062 8.73006 13.4062 8.64216C13.4062 8.53158 13.4382 8.41702 13.5156 8.2497C13.5758 8.11976 13.7833 7.78177 13.9768 7.49862C14.1703 7.21547 14.4831 6.7599 14.6721 6.48622C14.861 6.21254 15.1428 5.77959 15.2983 5.52407C15.4538 5.26855 15.6528 4.90557 15.7405 4.71745C15.8282 4.52934 15.9225 4.29153 15.95 4.18898C15.9775 4.08646 16 3.93795 16 3.85898C16 3.76707 15.9774 3.68381 15.9371 3.62759C15.9025 3.5793 15.804 3.51416 15.7182 3.48286C15.5803 3.43258 15.3925 3.42698 14.1014 3.43488C13.298 3.43978 12.5933 3.45526 12.5356 3.46927C12.4778 3.48327 12.3913 3.53595 12.3434 3.58637C12.2907 3.6419 12.1794 3.87624 12.061 4.18115C11.9536 4.45788 11.7845 4.86318 11.6852 5.08184C11.586 5.30046 11.4251 5.63252 11.3277 5.81974C11.2303 6.00693 11.0039 6.402 10.8247 6.6976C10.6101 7.05152 10.4163 7.32516 10.2572 7.49866C10.1243 7.64359 9.97525 7.7853 9.92591 7.81362C9.86853 7.8465 9.79853 7.85731 9.73188 7.84358C9.66484 7.82978 9.59437 7.77782 9.53456 7.69809C9.48334 7.6299 9.423 7.49533 9.40044 7.39906C9.37303 7.28233 9.35938 6.98981 9.35938 6.52047C9.35938 6.1335 9.36641 5.36128 9.375 4.80442C9.38922 3.88266 9.38547 3.77572 9.33309 3.6107C9.30147 3.511 9.24003 3.38305 9.19656 3.32632C9.15313 3.26959 9.08009 3.20191 9.03428 3.17589C8.9885 3.14991 8.84603 3.10268 8.71769 3.07097C8.53656 3.02622 8.28516 3.01084 7.59375 3.00216C7.10391 2.99605 6.59766 3.00336 6.46875 3.01846Z" fill="#fff"/>
</svg>
