<svg width="16" height="16" viewBox="0 0 16 16" fill="none" xmlns="http://www.w3.org/2000/svg">
<g clip-path="url(#clip0_4405_1436)">
<path d="M8.77467 12.6628C9.18067 12.6628 9.34667 12.3922 9.342 12.0528C9.32133 10.7748 9.818 10.0868 10.7147 10.9835C11.7067 11.9755 11.912 12.6628 13.1167 12.6628H15.25C15.7887 12.6628 16.0007 12.4895 16.0007 12.2175C16.0007 11.6422 15.0533 10.6268 14.2507 9.8815C13.1267 8.83816 13.074 8.8135 14.042 7.5575C15.2427 5.99816 16.8133 4.00016 15.424 4.00016H12.77C12.2553 4.00016 12.218 4.29016 12.0347 4.72216C11.3713 6.28683 10.1107 8.3135 9.632 8.0035C9.13133 7.68016 9.36067 6.3995 9.39867 4.49616C9.40867 3.9935 9.406 3.64883 8.638 3.47016C8.21867 3.3735 7.81067 3.3335 7.432 3.3335C5.91667 3.3335 4.87133 3.96883 5.46533 4.0795C6.51267 4.27483 6.412 6.54083 6.168 7.5195C5.74267 9.2235 4.144 6.17016 3.478 4.6495C3.31733 4.28416 3.268 4.00016 2.69467 4.00016H0.524667C0.196667 4.00016 0 4.10683 0 4.34416C0 4.7455 1.97333 8.82416 3.85733 10.8575C5.69467 12.8408 7.51067 12.6628 8.77467 12.6628Z" fill="white"/>
</g>
<defs>
<clipPath id="clip0_4405_1436">
<rect width="16" height="16" fill="white"/>
</clipPath>
</defs>
</svg>
