<svg width="17" height="18" viewBox="0 0 17 18" fill="none" xmlns="http://www.w3.org/2000/svg">
<g clip-path="url(#clip0_3369_3170)">
<path d="M10.1897 10.7357C8.86384 12.195 8.76741 14.0143 8.6529 18C12.1364 18 14.5411 17.9871 15.7826 16.7014C16.9879 15.3771 17 12.69 17 9.09643C13.2634 9.225 11.5578 9.32143 10.1897 10.7357ZM0.125 9.09643C0.125 12.69 0.137054 15.3771 1.34241 16.7014C2.58393 17.9871 4.98862 18 8.4721 18C8.35156 14.0143 8.26116 12.195 6.93527 10.7357C5.56719 9.32143 3.86161 9.21857 0.125 9.09643ZM8.4721 0C4.99464 0 2.58393 0.0128571 1.34241 1.29857C0.137054 2.62286 0.125 5.31 0.125 8.90357C3.86161 8.775 5.56719 8.67857 6.93527 7.26429C8.26116 5.805 8.35759 3.98571 8.4721 0ZM10.1897 7.26429C8.86384 5.805 8.76741 3.98571 8.6529 0C12.1364 0 14.5411 0.0128571 15.7826 1.29857C16.9879 2.62286 17 5.31 17 8.90357C13.2634 8.775 11.5578 8.67857 10.1897 7.26429Z" fill="white"/>
</g>
<defs>
<clipPath id="clip0_3369_3170">
<rect width="16.875" height="18" fill="white" transform="translate(0.125)"/>
</clipPath>
</defs>
</svg>
