<svg width="150" height="151" viewBox="0 0 150 151" fill="none" xmlns="http://www.w3.org/2000/svg">
<g clip-path="url(#clip0_4260_97)">
<path d="M89.4643 89.8364C77.6786 101.997 76.8214 117.158 75.8036 150.372C106.768 150.372 128.143 150.265 139.179 139.551C149.893 128.515 150 106.122 150 76.1756C116.786 77.2471 101.625 78.0506 89.4643 89.8364ZM0 76.1756C0 106.122 0.107143 128.515 10.8214 139.551C21.8571 150.265 43.2321 150.372 74.1964 150.372C73.125 117.158 72.3214 101.997 60.5357 89.8364C48.375 78.0506 33.2143 77.1935 0 76.1756ZM74.1964 0.37207C43.2857 0.37207 21.8571 0.479213 10.8214 11.1935C0.107143 22.2292 0 44.6221 0 74.5685C33.2143 73.4971 48.375 72.6935 60.5357 60.9078C72.3214 48.7471 73.1786 33.5864 74.1964 0.37207ZM89.4643 60.9078C77.6786 48.7471 76.8214 33.5864 75.8036 0.37207C106.768 0.37207 128.143 0.479213 139.179 11.1935C149.893 22.2292 150 44.6221 150 74.5685C116.786 73.4971 101.625 72.6935 89.4643 60.9078Z" fill="#286BB2"/>
<path d="M150 76.1756V74.5685C116.786 73.4971 101.625 72.6935 89.4643 60.9078C77.6786 48.7471 76.8214 33.5864 75.8036 0.37207H74.1964C73.125 33.5864 72.3214 48.7471 60.5357 60.9078C48.375 72.6935 33.2143 73.5506 0 74.5685V76.1756C33.2143 77.2471 48.375 78.0506 60.5357 89.8364C72.3214 101.997 73.1786 117.158 74.1964 150.372H75.8036C76.875 117.158 77.6786 101.997 89.4643 89.8364C101.625 78.0506 116.786 77.1935 150 76.1756Z" fill="white"/>
</g>
<defs>
<clipPath id="clip0_4260_97">
<rect width="150" height="150" fill="white" transform="translate(0 0.37207)"/>
</clipPath>
</defs>
</svg>
